<?xml version="1.0" encoding="utf-8"?>
<!-- Generator: Adobe Illustrator 24.3.0, SVG Export Plug-In . SVG Version: 6.00 Build 0)  -->
<svg version="1.2" baseProfile="tiny" id="Capa_1" xmlns="http://www.w3.org/2000/svg" xmlns:xlink="http://www.w3.org/1999/xlink"
	 x="0px" y="0px" viewBox="0 0 356.2744141 356.2744141" overflow="visible" xml:space="preserve">
<g>
	<g>
		<circle fill="#FFFFFF" cx="178.1372528" cy="178.1374359" r="175.6371918"/>
		<path fill="#0675DE" d="M178.137207,356.2744141C79.9121094,356.2744141,0,276.3623047,0,178.137207S79.9121094,0,178.137207,0
			s178.137207,79.9121094,178.137207,178.137207S276.3623047,356.2744141,178.137207,356.2744141z M178.137207,5
			C82.6689453,5,5,82.6689453,5,178.137207s77.6689453,173.137207,173.137207,173.137207
			s173.137207-77.6689453,173.137207-173.137207S273.6054688,5,178.137207,5z"/>
	</g>
	<g>
		<path fill="#FFB98E" d="M167.494873,242.4440308c7.164978-6.0094604,12.3898926-14.7614746,19.4763794-20.4572754
			c0.1695557-0.1361694,0.3346558-0.2606812,0.4993896-0.3843384c-3.1130371-8.6693726-4.7966919-19.0873413-5.5440674-29.3352661
			c-5.2407837,1.5869141-10.6537476,2.3974609-16.1125488,1.9708252
			c-1.7175903,9.6970825-3.9237671,19.6422119-6.5335083,28.1019897c0.3240967,1.2583008,0.618042,2.4127808,0.9602051,3.21698
			C162.6623535,231.2383423,165.1481323,236.802002,167.494873,242.4440308z"/>
		<path fill="#002F87" d="M193.44104,219.8688354l0.6516724,0.3047485
			C193.8829956,220.0501099,193.664917,219.9511108,193.44104,219.8688354z"/>
		<path fill="#002F87" d="M165.6747437,258.9195557l-0.0797119,0.0741577l-0.0350342-0.079834l-16.3467407-0.80896
			l-11.8504028,2.1984863c-0.5695801,6.7937622-0.8272095,13.5794067-0.8104858,20.2230835
			c0.0428467,15.1218872,3.0136719,30.7320557,0.128418,45.7468872c-1.3769531,7.1765747-3.682312,14.0400391-5.7404175,21.078064
			c3.4107056,0.9493408,6.8640137,1.7950439,10.3549194,2.5402832h17.541687l0.0748901,0.4386597
			c0.0040283,0.0229492,0.1491089,0.9172363,0.3098145,2.4279175c6.2149048,0.6655884,12.5239868,1.0162964,18.9155884,1.0162964
			c0.5358887,0,1.0680542-0.0155029,1.6028442-0.0202637c0.2643433-2.1148682,0.4985962-3.4043579,0.5045166-3.4353027
			l0.0819702-0.4279175h23.3355103c-1.9868774-22.442627-3.2061157-42.996521-3.2061157-63.843689
			c0-7.4511108,0.5621948-15.0167847,0.9246826-22.5845947l-8.7780151-3.2107544L165.6747437,258.9195557z M171.984375,265.2084351
			c0,0-7.0214844-4.6547241-15.342041,3.0499878c0.1715698,0.072876,0.34198,0.1552734,0.5123901,0.2397461h6.6015015v9.7507324
			h-7.3754272v4.3865356c0.0001221-0.000061,0.0002441-0.000061,0.0003662-0.0001221v3.7839355
			c0,0-2.56073,2.1898193-6.8261719,1.5836182c-4.2655029-0.6134644-9.6757812-2.9317017-10.117981-9.7543945
			c0,0,1.7498169,4.0273438,7.4356689,5.1151123v-5.1146851h-7.3754272v-1.7808228
			c-1.9806519-0.5878296-1.8881226-1.508728-1.8881226-1.508728l0.4850464-4.3903809c0,0,0.4931641,0.5951538,1.4030762,1.2371826
			v-3.3079834h7.3754272v-7.1970825h9.5081177v6.8540649c0.0463257,0.0181274,0.0926514,0.0359497,0.138916,0.0548706
			c0.8591919-1.7041016,5.7730713-10.3894653,15.4646606-7.6379395V265.2084351z"/>
		<path fill="#002F87" d="M148.4546509,217.2805786l0.0075073,0.0171509l6.6964111-2.62146l13.8056641,32.7186279
			l23.4946289-27.748291c-1.3804321-0.1201172-3.0155029,0.4751587-4.9882202,1.9558105
			c-0.1647339,0.1236572-0.329834,0.2481689-0.4993896,0.3843384c-7.0864868,5.6958008-12.3114014,14.4478149-19.4763794,20.4572754
			c-2.3467407-5.6420288-4.8325195-11.2056885-7.2541504-16.887085c-0.3421631-0.8041992-0.6361084-1.9586792-0.9602051-3.21698
			c-0.7941895-3.083252-1.7741089-6.8082275-4.1219482-7.6643677c-2.5689087-0.932373-5.1210938,0.5824585-7.187439,2.8143921
			l0.0031738-0.0012207L148.4546509,217.2805786z"/>
		<path fill="#002F87" d="M146.5715332,350.9403076c3.8169556,0.692688,7.6791992,1.2537231,11.5778198,1.6954346
			c-0.0812378-0.7498779-0.1567993-1.3342896-0.2075806-1.6954346H146.5715332z"/>
		<path fill="#002F87" d="M180.8045044,353.7408447c7.8130493-0.1164551,15.5027466-0.7390137,23.0367432-1.8439331
			c-0.0288086-0.3198853-0.0570068-0.6381226-0.0855103-0.9572754h-22.5517578
			C181.1184692,351.456665,180.9681396,352.4328003,180.8045044,353.7408447z"/>
		<path fill="#062A30" d="M125.6390991,99.0618896c6.7833862,1.5690308,14.6830444,6.0342407,21.619812,8.4487305
			c8.9802856,3.1350098,17.6859741,5.5279541,27.0585938,7.3290405c9.661499,1.8580933,27.1941528,3.4382324,33.970459-6.0094604
			c-5.5779419,0.0215454-11.9476318-2.828064-14.8186035-7.7071533c1.0806274,1.8405151,9.329834,3.2098999,11.4268799,3.9445801
			c4.008728,1.4016113,8.0280762,2.953064,11.6337891,5.2427979c9.2084961,5.8488159,4.1477661,15.2999878,3.7554321,24.2624512
			c-0.1854248,4.1193848-0.3138428,11.758606,3.0314941,14.4121094
			c1.3374634-6.7478638,14.9719849-17.1119385,20.9314575-10.1288452c0.7347412,0.8596191,1.2910767,1.776062,1.7047729,2.7425537
			c0.3261108,0.7639771,0.5495605,1.5562134,0.6981201,2.3622437c3.0241699-5.8322144,4.7022705-12.3769531,5.0431519-19.0407715
			c0.3173828-6.1307373-0.4315186-12.3078003-2.0614014-18.2244873c-0.720459-2.6143188-1.4658203-5.3425293-2.9637451-7.6109619
			c-0.2139893-0.3245239-4.6862793-6.2946167-3.9052734-6.2197266c6.6764526,0.6168823,10.5175171,1.708374,15.8279419-3.3239136
			c3.4879761-3.3026733,5.649231-7.7748413,6.7155762-12.4220581c2.2183838-9.6972046,0.0036011-20.8850098-6.2911987-28.6741943
			c-7.5252075-9.3048706-22.0620117-12.5182495-33.4390259-12.3328247
			c-8.0422974,0.1356201-18.9128418,2.2897949-22.7182617,10.25354c-0.3776855,0.7874756-0.6195679,1.6774902-0.7745361,2.6032715
			l5.046814,8.7024536l2.0995483,3.6204224l1.5822144,2.7282715l1.9771729,3.4093628l0.657959-1.0647583l3.0814209,1.90448
			l-0.9764404,1.5795288l0.663269,0.02948l3.7159424,0.1652222l4.328064,0.1924438
			c-0.0401611-0.0545044-0.0866699-0.1087036-0.1257935-0.163208c-4.5186768-6.2876587-4.8860474-14.8861694-0.8737793-20.4391479
			c3.284729-4.5545044,8.7556152-6.0488892,14.9968872-4.0977783c3.7625732,1.1732788,7.4182739,4.279541,9.0980225,7.7319336
			c1.2197266,2.5037231,1.3873901,5.0892944,0.4850464,7.4752808c-1.3088989,3.4523926-5.7491455,5.1713867-9.0765991,4.6043701
			c-2.6569824-0.4458008-4.2191162-2.2005615-4.2904663-4.8041992l1.048584-0.0285034
			c0.0748901,2.817627,2.171936,3.5880127,3.416626,3.7982788c2.8531494,0.4815063,6.8118896-1.0163574,7.9210815-3.9443359
			c0.7988892-2.1043091,0.6419678-4.401062-0.4458008-6.6407471c-1.5621338-3.2098999-4.9644775-6.0952148-8.4703369-7.1901245
			c-5.78479-1.8080444-10.8276978-0.4564819-13.8306885,3.7092285c-3.7554321,5.2034302-3.3881226,13.2814331,0.8738403,19.2123413
			c0.2005615,0.2791748,0.4210205,0.5587158,0.6508179,0.8378296l14.0551147,0.624939l5.3460693,0.2377319l-4.2653198,7.5872803
			c2.5228882,0.2715454,4.9735107-0.0772705,7.0777588-1.3203125c5.9452515-3.5163574,7.2577515-12.1721802,5.4673462-18.531189
			c-4.1227417-14.6865845-18.3457642-17.5111694-26.4594116-17.8892822
			c-5.2890625-0.2496948-8.7806396-0.1569824-12.6502075,3.1419678c-2.4109497,2.0542603-3.3275146,4.7362671-4.2191162,7.3290405
			c-0.5777588,1.6904907-1.1769409,3.4379883-2.1826172,5.0003052l-0.8809814-0.5670776
			c0.9344482-1.4517212,1.4836426-3.0673218,2.0721436-4.7719727c0.9343872-2.7283936,1.9008789-5.5494995,4.5293579-7.7891846
			c4.1549072-3.5413818,7.9959717-3.6412964,13.3812866-3.3916626
			c19.5584717,0.9094849,25.5750122,12.0796509,27.4224854,18.6524658
			c1.8901978,6.7371826,0.4493408,15.9349365-5.9453125,19.7153931c-1.8652344,1.1055908-3.9515991,1.583374-6.112854,1.583374
			c-0.6832886,0-1.3746948-0.0604858-2.0679321-0.1514282l-0.5126953,0.9119873l-0.3498535,0.6223755h-17.6985474
			c0.000061,0.000061,0.0001221,0.0001221,0.0001831,0.0001831h17.6982422l-11.3479614,20.1860352l-3.3873291-5.0187988
			l-1.1933594-1.7680664l-0.6096802-0.9033813c-0.3009644,0.3775635-0.6309204,0.7511597-0.9963989,1.1191406
			c-6.1914062,6.2484741-17.875061,4.404541-26.4024048,3.0564575c-1.1626587-0.1820068-2.2611694-0.3530884-3.2811279-0.4993286
			c-7.4324951-1.0378418-14.6082153-2.953064-21.5449219-4.8004761c-1.708313-0.4528198-3.4059448-0.9057617-5.1035767-1.3480835
			c5.8168335,6.9439087,14.1088257,10.513855,22.1405029,13.9734497c2.6106567,1.1268921,5.3175659,2.2932129,7.8996582,3.5592651
			l1.3552246,0.663269l-1.4765015,0.3210449c-2.9315796,0.6347656-6.3839111,0.9342651-10.0715942,0.9342651
			c-8.8269653,0-18.9735107-1.7259521-26.3739014-4.7575684l-0.4422607-0.1782837
			c-7.625061-3.1171265-25.4858398-10.4176636-26.4273682-19.7865601l1.0413818-0.1036377
			c0.8809204,8.7415771,18.331543,15.8707886,25.7818604,18.9165039l0.4458008,0.1820068
			c9.786377,4.0050659,24.447998,5.7027588,34.2700195,4.0620728c-2.1184692-0.9949951-4.2976074-1.9329834-6.4196167-2.8496094
			c-8.609375-3.7090454-17.5148315-7.5465088-23.524292-15.5139771l-0.8987427-1.1876221l1.444397,0.3637085
			c2.2076416,0.5563965,4.4117432,1.1450195,6.6264648,1.7368774c6.9082031,1.840271,14.0553589,3.744751,21.4237061,4.7755127
			c1.0270996,0.1461792,2.1326904,0.3175049,3.2988892,0.5029907c8.3062744,1.3123779,19.6796875,3.1097412,25.496582-2.7606201
			c0.4260254-0.4302368,0.7869873-0.8656006,1.1154175-1.3035278l-4.1256714-6.1127319l-0.9284668-1.3756104l-2.7568359-4.0847168
			h5.7975464c-0.000061-0.000061-0.0001221-0.0001221-0.0001831-0.0001831h-5.7974854l-1.4730225-2.1824951l-1.6019897-2.3735352
			l-0.6900635,1.116272l-3.0814209-1.9007568l0.8968506-1.451416c-0.1008911-0.0349731-0.2017212-0.069397-0.3024292-0.1033325
			l-0.9874268-0.022583l-12.5386963-0.286377l-3.7114868-0.0847168l-12.210022-0.2788696l9.0441895-13.3341675
			c-1.7230225,0.076416-3.4580078,0.2111206-5.2313232,0.2773438c-6.9831543,0.2568359-14.0197144,0.3067017-20.8887329,1.7832031
			c-0.4707642,0.1033936-0.9486694,0.2105103-1.4229736,0.3208618
			c-20.3823242,4.7149658-39.7230835,16.487854-46.5314941,37.3088379
			c-1.7225952,5.2676392-4.1976929,14.921875-1.0092773,20.1039429c2.5714111,4.1691895,7.2363281,3.5701294,12.0510254,6.0523071
			c1.4396362,0.7415771,2.802002,1.7058105,4.1135864,2.8039551
			C127.2045288,119.0549927,125.135376,108.9952393,125.6390991,99.0618896z"/>
		<path fill="#062A30" d="M216.9435425,169.2970581c3.1842651-1.5273438,6.3009033-3.3066406,9.3695068-5.3000488
			c-1.8303833-0.142334-3.6357422-0.5127563-5.3392944-1.1422119
			C219.8666382,165.1140747,218.5020752,167.2609863,216.9435425,169.2970581z"/>
		<path fill="#FFB98E" d="M181.9265747,192.2671509c3.0509644-0.9238281,6.0438232-2.1061401,8.9535522-3.4522095
			c9.3856812-4.3395996,19.4835205-10.921875,26.0634155-19.5178833c1.5585327-2.0360718,2.9230957-4.1829834,4.0302124-6.4422607
			c1.7035522,0.6294556,3.5089111,0.9998779,5.3392944,1.1422119c6.6115112,0.5141602,13.5681763-2.1296387,17.4003906-7.9255371
			c2.2709961-3.4436646,3.6991577-7.9795532,2.9378662-12.1105347c-0.1485596-0.8060303-0.3720093-1.5982666-0.6981201-2.3622437
			c-0.4136963-0.9664917-0.9700317-1.8829346-1.7047729-2.7425537c-5.9594727-6.9830933-19.5939941,3.3809814-20.9314575,10.1288452
			c-3.3453369-2.6535034-3.2169189-10.2927246-3.0314941-14.4121094c0.392334-8.9624634,5.453064-18.4136353-3.7554321-24.2624512
			c-3.6057129-2.2897339-7.625061-3.8411865-11.6337891-5.2427979c-2.0970459-0.7346802-10.3462524-2.1040649-11.4268799-3.9445801
			c2.8709717,4.8790894,9.2406616,7.7286987,14.8186035,7.7071533c-6.7763062,9.4476929-24.30896,7.8675537-33.970459,6.0094604
			c-9.3726196-1.8010864-18.0783081-4.1940308-27.0585938-7.3290405c-6.9367676-2.4144897-14.8364258-6.8796997-21.619812-8.4487305
			c-0.5037231,9.9333496,1.5654297,19.993103,3.1570435,29.9782715c0.1740112,1.0917969,0.342041,2.1826782,0.5006104,3.2723999
			c3.9204712-2.8969116,10.9373169-7.2735596,16.7683716-6.5308228c8.5916138,1.1340942,8.9768066,8.9801025,8.9768066,8.9801025
			s-0.9700317-0.762207-2.5214233-1.6595459c0.8149414,2.1281738,0.5993042,4.145752-1.3713379,4.6859131
			c-0.7905884,0.2138062-1.5966187,0.3668823-2.4093018,0.4781494c-0.3279419,0.4545288-3.0154419,3.9053345-9.1617432,4.0752563
			c-6.5764771,0.1748047-5.781189-5.8740234-5.781189-5.8740234c1.2068481,0.4362183,2.3723145,0.7739258,3.4936523,1.0475464
			c-0.0014648-0.0469971-0.0027466-0.0939331-0.0040894-0.1409912c-3.2826538-0.8173828-6.0394897-1.9017944-7.6410522-2.598999
			c-0.0026855,0.0012817-0.0057373,0.0027466-0.0084229,0.0039673c0.1251831,0.961853,0.2435303,1.9229126,0.3460083,2.8824463
			c1.3338623,12.5252075-9.7578125,15.0217896-14.3085938,25.1790771c3.9979858,0.65979,7.4003296,1.5977783,11.5802002,1.7973633
			c2.9138184,0.1390991,8.3348389-0.3493652,10.3391724,1.7011719c1.4301147,1.4586792,2.8959961,7.1150513,3.7732544,9.1694946
			c4.4295654,10.324707,8.7770386,15.6815796,19.7332153,18.0532227c1.5732422,0.3404541,3.1451416,0.5535278,4.7137451,0.6760864
			C171.2728271,194.6646118,176.685791,193.8540649,181.9265747,192.2671509z M229.0678101,157.6037598
			c1.4052124,0,2.5464478,1.1412354,2.5464478,2.5463867c0,1.4053345-1.1412354,2.5466309-2.5464478,2.5466309
			c-1.4051514,0-2.5428467-1.1412964-2.5428467-2.5466309C226.5249634,158.7449951,227.6626587,157.6037598,229.0678101,157.6037598
			z M184.4387207,125.7817383c7.1364746-0.9094849,16.0632935,5.859436,18.8914795,8.1849365
			c2.0578003,0.7381592,3.7554321-0.2424927,6.4124756-3.3311768c0,0-2.4858398,5.2321167-5.2355347,5.5316772
			c-0.4943237,0.050293-1.8387451-0.5533447-3.6480103-1.3916626c-1.6018677,0.6971436-4.3584595,1.7811279-7.6403198,2.5983887
			c-0.0013428,0.046875-0.0025635,0.0935669-0.0040894,0.1403809c1.1202393-0.2734375,2.2845459-0.6109619,3.4901123-1.0466919
			c0,0,0.7952881,6.0488281-5.78125,5.8740234c-6.1478271-0.1699829-8.835144-3.6225586-9.1619873-4.0757446
			c-0.8112793-0.1112671-1.6159058-0.2642212-2.4050293-0.4776611c-1.9719238-0.5401611-2.1885376-2.5575562-1.3740234-4.6856079
			c-1.5507202,0.8972168-2.5205688,1.6592407-2.5205688,1.6592407S175.8471069,126.9158325,184.4387207,125.7817383z
			 M153.6103516,171.7260742c-2.7553101-1.1343994-4.3981934-2.1828613-4.3981934-2.1828613
			c1.3989868,0.0947876,2.8477173,0.1397705,4.3231812,0.1486816c0.8458862-2.6716919,5.1464233-4.6398315,6.3605347-5.1030884
			c2.7247925-1.0626831,6.6871338,0.5491943,6.6871338,0.5491943s2.696228-0.8950806,5.8347168-2.7640381
			c1.7097778-1.0062866,8.9085693,0.3209229,11.267334,3.9932251c3.1104736-0.6034546,5.0255737-1.0467529,5.0255737-1.0467529
			c-1.4506836,1.4241943-2.9220581,2.6279297-4.4000244,3.6743774c-0.5089111,3.6065063-5.3666382,9.3574219-13.8901367,10.3770142
			C160.4244995,180.5411377,154.8903809,174.8616333,153.6103516,171.7260742z"/>
		<path fill="#FFFFFF" d="M129.6454468,134.7751465c1.6015625,0.6972046,4.3583984,1.7816162,7.6410522,2.598999
			c-0.0718384-2.5444336,0.1509399-5.1315308,2.9873657-5.4317627c0.2768555-0.3186646,0.6828003-0.5236816,1.1363525-0.5236816
			c0.5420532,0,1.0192871,0.2922974,1.2824097,0.727478c4.2220459,1.1119995,3.1271973,5.6674194,2.9446411,6.3240356
			c1.963501-0.0366821,3.1387939-0.255127,3.1387939-0.255127s-0.0130615,0.019165-0.0361938,0.0512695
			c0.8126831-0.1112671,1.6187134-0.2643433,2.4093018-0.4781494c1.9706421-0.5401611,2.1862793-2.5577393,1.3713379-4.6859131
			c-2.0495605-1.1855469-5.116394-2.6077271-8.3277588-2.8270264
			C139.7940063,129.979126,133.6051636,132.9401855,129.6454468,134.7751465z"/>
		<path fill="#57B6B2" d="M138.7543335,137.1771851c0-1.4500122,0.7510986-2.6560059,1.7895508-3.0582275
			c-0.3814697-0.2719727-0.6350708-0.7151489-0.6350708-1.2202148c0-0.3682861,0.1411743-0.6987305,0.3650513-0.9563599
			c-2.8364258,0.3002319-3.0592041,2.8873291-2.9873657,5.4317627c0.0013428,0.0470581,0.0026245,0.0939941,0.0040894,0.1409912
			c0.519104,0.1266479,1.0259399,0.237854,1.5219727,0.3349609
			C138.7758179,137.6326294,138.7543335,137.4082031,138.7543335,137.1771851z"/>
		<path fill="#57B6B2" d="M142.173584,134.1820679c0.9408569,0.4603271,1.6165161,1.6202393,1.6165161,2.9951172
			c0,0.4472656-0.0737915,0.8729248-0.2047119,1.260498c0.7553101,0.036499,1.4406128,0.0439453,2.0518799,0.0325317
			c0.1825562-0.6566162,1.2774048-5.2120361-2.9446411-6.3240356c0.1333618,0.2205811,0.2155151,0.4754639,0.2155151,0.7525635
			C142.9081421,133.4465332,142.6092529,133.9197998,142.173584,134.1820679z"/>
		<path fill="#121617" d="M143.7901001,137.1771851c0-1.3748779-0.6756592-2.53479-1.6165161-2.9951172
			c-0.2252808,0.1355591-0.4849854,0.2182007-0.7633667,0.2182007c-0.3217773,0-0.6201172-0.1057129-0.866333-0.281311
			c-1.0384521,0.4022217-1.7895508,1.6082153-1.7895508,3.0582275c0,0.2310181,0.0214844,0.4554443,0.0582275,0.6729126
			c1.7704468,0.3465576,3.3839111,0.5205078,4.7728271,0.5875854
			C143.7163086,138.0501099,143.7901001,137.6244507,143.7901001,137.1771851z"/>
		<path fill="#FFFFFF" d="M140.5438843,134.1189575c0.2462158,0.1755981,0.5445557,0.281311,0.866333,0.281311
			c0.2783813,0,0.5380859-0.0826416,0.7633667-0.2182007c0.4356689-0.2622681,0.7345581-0.7355347,0.7345581-1.2833252
			c0-0.2770996-0.0821533-0.5319824-0.2155151-0.7525635c-0.2631226-0.4351807-0.7403564-0.727478-1.2824097-0.727478
			c-0.4535522,0-0.8594971,0.2050171-1.1363525,0.5236816c-0.223877,0.2576294-0.3650513,0.5880737-0.3650513,0.9563599
			C139.9088135,133.4038086,140.1624146,133.8469849,140.5438843,134.1189575z"/>
		<path fill="#121617" d="M144.192749,130.2752686c3.2113647,0.2192993,6.2781982,1.6414795,8.3277588,2.8270264
			c1.5513916,0.8973389,2.5214233,1.6595459,2.5214233,1.6595459s-0.3851929-7.8460083-8.9768066-8.9801025
			c-5.8310547-0.7427368-12.8479004,3.6339111-16.7683716,6.5308228c-0.8800659,0.6503296-1.6074829,1.2277832-2.1265869,1.6541138
			c-2.0579224,0.7381592-3.7519531-0.2424927-6.4125366-3.3311768c0,0,2.4893799,5.2321167,5.2391357,5.5316772
			c0.4936523,0.0502319,1.8348389-0.5514526,3.6402588-1.3880615c0.0026855-0.0012207,0.0057373-0.0026855,0.0084229-0.0039673
			C133.6051636,132.9401855,139.7940063,129.979126,144.192749,130.2752686z"/>
		<path fill="#FF8672" d="M183.6850586,166.3671875c-2.3587646-3.6723022-9.5575562-4.9995117-11.267334-3.9932251
			c-3.1384888,1.8689575-5.8347168,2.7640381-5.8347168,2.7640381s-3.9623413-1.6118774-6.6871338-0.5491943
			c-1.2141113,0.4632568-5.5146484,2.4313965-6.3605347,5.1030884
			C164.4303589,169.7575684,176.9074097,167.6820679,183.6850586,166.3671875z"/>
		<path fill="#FF8672" d="M184.3106079,168.994812c-11.9155884,8.4368286-24.3099976,5.3621216-30.7002563,2.7312622
			c1.2800293,3.1355591,6.8141479,8.8150635,16.8101196,7.645752
			C178.9439697,178.3522339,183.8016968,172.6013184,184.3106079,168.994812z"/>
		<path fill="#FFB98E" d="M145.6372681,138.4702148c-0.6112671,0.0114136-1.2965698,0.0039673-2.0518799-0.0325317
			c-1.388916-0.0670776-3.0023804-0.2410278-4.7728271-0.5875854c-0.4960327-0.0971069-1.0028687-0.208313-1.5219727-0.3349609
			c-1.1213379-0.2736206-2.2868042-0.6113281-3.4936523-1.0475464c0,0-0.7952881,6.0488281,5.781189,5.8740234
			c6.1463013-0.1699219,8.8338013-3.6207275,9.1617432-4.0752563c0.0231323-0.0321045,0.0361938-0.0512695,0.0361938-0.0512695
			S147.600769,138.4335327,145.6372681,138.4702148z"/>
		<path fill="#FFFFFF" d="M186.3074951,130.2752686c-3.2095947,0.2192993-6.2758179,1.6417236-8.3249512,2.8273315
			c-0.8145142,2.1280518-0.5979004,4.1454468,1.3740234,4.6856079c0.7891235,0.2134399,1.59375,0.366394,2.4050293,0.4776611
			c-0.0229492-0.0318604-0.0358276-0.0507812-0.0358276-0.0507812s1.1766357,0.218689,3.1422729,0.255188
			c-0.1828003-0.6563721-1.2803345-5.2107544,2.9421997-6.3236694c0.2623291-0.4354248,0.7388916-0.7279053,1.2833862-0.7279053
			c0.4534912,0,0.8582764,0.2049561,1.1342163,0.5234375c2.8396606,0.2984009,3.0628662,2.8863525,2.9909668,5.4317627
			c3.2818604-0.8172607,6.0384521-1.9012451,7.6403198-2.5983887
			C196.8991089,132.9405518,190.7089844,129.979126,186.3074951,130.2752686z"/>
		<path fill="#57B6B2" d="M190.2278442,131.9421387c0.2232056,0.2576904,0.3637695,0.5881958,0.3637695,0.956604
			c0,0.5047607-0.2521362,0.9476929-0.6322021,1.2197266c1.0361938,0.4016724,1.7902222,1.6080933,1.7902222,3.0587158
			c0,0.230896-0.0214233,0.4551392-0.0582275,0.6724854c0.496521-0.097229,1.0037231-0.2084961,1.5233154-0.3353882
			c0.0015259-0.046814,0.0027466-0.0935059,0.0040894-0.1403809
			C193.2907104,134.8284912,193.0675049,132.2405396,190.2278442,131.9421387z"/>
		<path fill="#57B6B2" d="M186.9191284,138.437561c-0.1312256-0.3875122-0.2053223-0.8131714-0.2053223-1.260376
			c0-1.3735962,0.6765747-2.5328369,1.6169434-2.9940186c-0.4367065-0.2619629-0.7350464-0.7357788-0.7350464-1.2844238
			c0-0.2769165,0.0817261-0.5316162,0.2145386-0.7521362c-4.2225342,1.112915-3.125,5.6672974-2.9421997,6.3236694
			C185.479126,138.4816284,186.1642456,138.4741211,186.9191284,138.437561z"/>
		<path fill="#121617" d="M188.3307495,134.1831665c-0.9403687,0.4611816-1.6169434,1.6204224-1.6169434,2.9940186
			c0,0.4472046,0.0740967,0.8728638,0.2053223,1.260376c1.388855-0.0672607,3.0021362-0.241333,4.7722778-0.5878906
			c0.0368042-0.2173462,0.0582275-0.4415894,0.0582275-0.6724854c0-1.4506226-0.7540283-2.6570435-1.7902222-3.0587158
			c-0.2457275,0.1759033-0.5437012,0.2817993-0.8657837,0.2817993
			C188.8148804,134.4002686,188.555603,134.3179932,188.3307495,134.1831665z"/>
		<path fill="#FFFFFF" d="M188.3307495,134.1831665c0.2248535,0.1348267,0.4841309,0.2171021,0.7628784,0.2171021
			c0.3220825,0,0.6200562-0.105896,0.8657837-0.2817993c0.3800659-0.2720337,0.6322021-0.7149658,0.6322021-1.2197266
			c0-0.3684082-0.140564-0.6989136-0.3637695-0.956604c-0.2759399-0.3184814-0.6807251-0.5234375-1.1342163-0.5234375
			c-0.5444946,0-1.0210571,0.2924805-1.2833862,0.7279053c-0.1328125,0.22052-0.2145386,0.4752197-0.2145386,0.7521362
			C187.5957031,133.4473877,187.894043,133.9212036,188.3307495,134.1831665z"/>
		<path fill="#121617" d="M186.3074951,130.2752686c4.4014893-0.2961426,10.5916138,2.6652832,14.5516357,4.5002441
			c1.8092651,0.8383179,3.1536865,1.4419556,3.6480103,1.3916626c2.7496948-0.2995605,5.2355347-5.5316772,5.2355347-5.5316772
			c-2.6570435,3.0886841-4.3546753,4.0693359-6.4124756,3.3311768c-2.828186-2.3255005-11.7550049-9.0944214-18.8914795-8.1849365
			c-8.5916138,1.1340942-8.9767456,8.9801025-8.9767456,8.9801025s0.9698486-0.7620239,2.5205688-1.6592407
			C180.0316772,131.9169922,183.0979004,130.4945679,186.3074951,130.2752686z"/>
		<path fill="#FFB98E" d="M186.9191284,138.437561c-0.7548828,0.0365601-1.4400024,0.0440674-2.0510864,0.0327148
			c-1.9656372-0.036499-3.1422729-0.255188-3.1422729-0.255188s0.0128784,0.0189209,0.0358276,0.0507812
			c0.3268433,0.453186,3.0141602,3.9057617,9.1619873,4.0757446c6.5765381,0.1748047,5.78125-5.8740234,5.78125-5.8740234
			c-1.2055664,0.43573-2.369873,0.7732544-3.4901123,1.0466919c-0.5195923,0.1268921-1.0267944,0.2381592-1.5233154,0.3353882
			C189.9212646,138.196228,188.3079834,138.3703003,186.9191284,138.437561z"/>
		<path fill="#FFFFFF" d="M184.3106079,168.994812c1.4779663-1.0464478,2.9493408-2.2501831,4.4000244-3.6743774
			c0,0-1.9151001,0.4432983-5.0255737,1.0467529c-6.7776489,1.3148804-19.2546997,3.3903809-30.1497192,3.324707
			c-1.4754639-0.0089111-2.9241943-0.053894-4.3231812-0.1486816c0,0,1.6428833,1.0484619,4.3981934,2.1828613
			C160.0006104,174.3569336,172.3950195,177.4316406,184.3106079,168.994812z"/>
		<path fill="#FFB98E" d="M81.8758545,293.0874023c2.1503906,15.3740234,6.2872314,28.180603,11.1905518,38.7330322
			c4.5501709,2.5241699,9.2231445,4.8522949,14.0097046,6.9726562c-8.3005981-12.5410767-14.7342529-29.487854-11.447998-50.1600342
			c1.916748-12.055603,6.7550049-22.5805664,13.1182251-30.9048462l-5.3146362-16.8816528
			C89.6706543,251.0570679,78.2801514,267.3817139,81.8758545,293.0874023z"/>
		<path fill="#FFB98E" d="M242.9180908,250.0070801l-9.0874023,17.449707
			c3.2736816,6.3095093,5.7143555,13.4266357,6.9465332,21.1762695
			c4.1980591,26.4207153-7.4777832,46.7544556-18.6375122,59.5827637
			c5.0587158-1.3049927,10.0244141-2.8396606,14.8956909-4.5733643
			c7.5117798-12.3034058,14.4624634-28.9063721,17.4904785-50.5550537
			C257.1965942,274.0027466,251.6055298,260.088562,242.9180908,250.0070801z"/>
		<polygon fill="#002F87" points="245.8497925,244.3776245 194.0927124,220.173584 193.44104,219.8688354 192.6026611,219.4767456 
			192.4588623,219.6466064 168.9642334,247.3948975 155.1585693,214.6762695 148.4621582,217.2977295 165.9624023,257.2176514 
			201.3736572,224.2565308 202.0869141,225.0233765 165.6747437,258.9195557 192.6026611,260.2520752 201.3806763,263.4628296 
			230.3856201,274.0720825 233.8306885,267.4567871 242.9180908,250.0070801 		"/>
		<polygon fill="#002F87" points="165.5599976,258.9138794 147.4917603,217.697876 147.9743042,217.4887695 
			147.9711304,217.4899902 101.7723389,235.5758057 103.4317017,240.8465576 108.7463379,257.7282104 111.0914917,265.1773071 
			137.362854,260.3034058 149.2132568,258.1049194 		"/>
		<polygon fill="#E3E7ED" points="147.9743042,217.4887695 147.4917603,217.697876 165.5599976,258.9138794 
			165.5950317,258.9937134 165.6747437,258.9195557 202.0869141,225.0233765 201.3736572,224.2565308 165.9624023,257.2176514 
			148.4621582,217.2977295 148.4546509,217.2805786 		"/>
		<path fill="#E3E7ED" d="M158.8369751,349.8917236h-17.541687c1.750061,0.3735962,3.5072632,0.7275391,5.2762451,1.048584
			h11.3702393c0.0507812,0.361145,0.1263428,0.9455566,0.2075806,1.6954346
			c0.3575439,0.0405273,0.7141113,0.0842285,1.0723267,0.1225586c-0.1607056-1.5106812-0.3057861-2.4049683-0.3098145-2.4279175
			L158.8369751,349.8917236z"/>
		<path fill="#E3E7ED" d="M180.2446289,350.3190308c-0.0059204,0.0309448-0.2401733,1.3204346-0.5045166,3.4353027
			c0.3551025-0.0032349,0.7097778-0.0081787,1.0643921-0.0134888c0.1636353-1.3080444,0.3139648-2.2841797,0.3994751-2.8012085
			h22.5517578h0.1416016v-1.0485229h-0.2352295h-23.3355103L180.2446289,350.3190308z"/>
		<path fill="#E3E7ED" d="M146.8729858,268.4966431c0,0,4.8689575-2.1557007,9.5078125-0.3414917v-6.8540649h-9.5081177v7.1970825
			h0.0003662L146.8729858,268.4966431z"/>
		<path fill="#E3E7ED" d="M146.8726807,283.3635864c2.4083862,0.4607544,5.5181885,0.397644,9.5081177-0.7281494v-4.3865356
			h-9.5081177V283.3635864z"/>
		<path fill="#E3E7ED" d="M163.6959229,278.2473755c0,0-3.4996948-5.1384888-9.4237671-6.0140991
			c-1.6674194,2.1572266-4.4368896,4.4816895-8.7419434,4.6734009c-3.0128174,0.135498-4.8752441-0.0949707-6.032959-0.4385986
			v1.7808228h7.3754272h9.5081177h7.3754272v-9.7507324h-6.6015015
			C159.859375,269.8382568,162.3865967,272.6655273,163.6959229,278.2473755z"/>
		<path fill="#E3E7ED" d="M146.2648315,273.1654663c0.2406006-0.0532837,0.4802246-0.1166992,0.7197266-0.1799927
			l-0.1115112-4.4873047h-0.0003662h-7.3754272v3.3079834C140.8658447,272.7718506,143.1865845,273.8445435,146.2648315,273.1654663
			z"/>
		<path fill="#95A2CC" d="M156.5197144,268.210022c-0.0462646-0.0189209-0.0925903-0.0367432-0.138916-0.0548706
			c-4.638855-1.814209-9.5078125,0.3414917-9.5078125,0.3414917l0.000061,0.0015259l0.1115112,4.4873047
			c4.8562012-1.2834473,9.3947754-4.4885864,9.3947754-4.4885864s-0.6112671,1.8010864-2.1071777,3.7363892
			c5.9240723,0.8756104,9.4237671,6.0140991,9.4237671,6.0140991c-1.3093262-5.5818481-3.8365479-8.4091187-6.5411987-9.7492065
			c-0.1704102-0.0844727-0.3408203-0.1668701-0.5123901-0.2397461c-0.0872192,0.0807495-0.1737061,0.1547241-0.2611694,0.2382202
			C156.3811646,268.4966431,156.4278564,268.3922729,156.5197144,268.210022z"/>
		<path fill="#002F87" d="M145.5302124,276.9066772c4.3050537-0.1917114,7.0745239-2.5161743,8.7419434-4.6734009
			c1.4959106-1.9353027,2.1071777-3.7363892,2.1071777-3.7363892s-4.5385742,3.2051392-9.3947754,4.4885864
			c-0.239502,0.0632935-0.479126,0.126709-0.7197266,0.1799927c-3.0782471,0.6790771-5.3989868-0.3936157-6.7675781-1.359314
			c-0.9099121-0.6420288-1.4030762-1.2371826-1.4030762-1.2371826l-0.4850464,4.3903809c0,0-0.0925293,0.9208984,1.8881226,1.508728
			C140.6549683,276.8117065,142.517395,277.0421753,145.5302124,276.9066772z"/>
		<path fill="#95A2CC" d="M156.5197144,268.210022c-0.0918579,0.182251-0.1385498,0.2866211-0.1385498,0.2866211
			c0.0874634-0.0834961,0.1739502-0.1574707,0.2611694-0.2382202c8.3205566-7.7047119,15.342041-3.0499878,15.342041-3.0499878
			v-4.6363525C162.2927856,257.8205566,157.3789062,266.5059204,156.5197144,268.210022z"/>
		<path fill="#95A2CC" d="M146.8726807,283.3635864c-5.6858521-1.0877686-7.4356689-5.1151123-7.4356689-5.1151123
			c0.4421997,6.8226929,5.852478,9.1409302,10.117981,9.7543945c4.2654419,0.6062012,6.8261719-1.5836182,6.8261719-1.5836182
			v-3.7839355c-0.0001221,0.000061-0.0002441,0.000061-0.0003662,0.0001221
			C152.3908691,283.7612305,149.2810669,283.8243408,146.8726807,283.3635864z"/>
		<path fill="#E3E7ED" d="M221.0665283,94.168457c-5.8168945,5.8703613-17.1903076,4.072998-25.496582,2.7606201
			c-1.1661987-0.1854858-2.2717896-0.3568115-3.2988892-0.5029907c-7.3683472-1.0307617-14.5155029-2.9352417-21.4237061-4.7755127
			c-2.2147217-0.5918579-4.4188232-1.180481-6.6264648-1.7368774l-1.444397-0.3637085l0.8987427,1.1876221
			c6.0094604,7.9674683,14.914917,11.8049316,23.524292,15.5139771c2.1220093,0.916626,4.3011475,1.8546143,6.4196167,2.8496094
			c-9.8220215,1.640686-24.4836426-0.0570068-34.2700195-4.0620728l-0.4458008-0.1820068
			c-7.4503174-3.0457153-24.9009399-10.1749268-25.7818604-18.9165039l-1.0413818,0.1036377
			c0.9415283,9.3688965,18.8023071,16.6694336,26.4273682,19.7865601l0.4422607,0.1782837
			c7.4003906,3.0316162,17.546936,4.7575684,26.3739014,4.7575684c3.6876831,0,7.1400146-0.2994995,10.0715942-0.9342651
			l1.4765015-0.3210449l-1.3552246-0.663269c-2.5820923-1.2660522-5.2890015-2.432373-7.8996582-3.5592651
			c-8.0316772-3.4595947-16.3236694-7.029541-22.1405029-13.9734497c1.6976318,0.4423218,3.3952637,0.8952637,5.1035767,1.3480835
			c6.9367065,1.8474121,14.1124268,3.7626343,21.5449219,4.8004761c1.0199585,0.1462402,2.1184692,0.3173218,3.2811279,0.4993286
			c8.5273438,1.3480835,20.2109985,3.1920166,26.4024048-3.0564575c0.3654785-0.367981,0.6954346-0.7415771,0.9963989-1.1191406
			l-0.6228027-0.9227295C221.8535156,93.3028564,221.4925537,93.7382202,221.0665283,94.168457z"/>
		<polygon fill="#E3E7ED" points="220.1685181,81.2918701 221.6448364,81.2918701 221.6446533,81.291687 220.168335,81.291687 		"/>
		<path fill="#E3E7ED" d="M208.1187744,74.3964233c0.100708,0.0339355,0.2015381,0.0683594,0.3024292,0.1033325l0.0587769-0.0950928
			L208.1187744,74.3964233z"/>
		<path fill="#E3E7ED" d="M224.9871216,69.4591064c-4.2619629-5.9309082-4.6292725-14.0089111-0.8738403-19.2123413
			c3.0029907-4.1657104,8.0458984-5.5172729,13.8306885-3.7092285c3.5058594,1.0949097,6.9082031,3.9802246,8.4703369,7.1901245
			c1.0877686,2.2396851,1.2446899,4.536438,0.4458008,6.6407471c-1.1091919,2.9279785-5.0679321,4.4258423-7.9210815,3.9443359
			c-1.2446899-0.2102661-3.3417358-0.9806519-3.416626-3.7982788l-1.048584,0.0285034
			c0.0713501,2.6036377,1.6334839,4.3583984,4.2904663,4.8041992c3.3274536,0.5670166,7.7677002-1.1519775,9.0765991-4.6043701
			c0.9023438-2.3859863,0.7346802-4.9715576-0.4850464-7.4752808c-1.6797485-3.4523926-5.3354492-6.5586548-9.0980225-7.7319336
			c-6.241272-1.9511108-11.7121582-0.4567261-14.9968872,4.0977783c-4.0122681,5.5529785-3.6448975,14.1514893,0.8737793,20.4391479
			c0.0391235,0.0545044,0.0856323,0.1087036,0.1257935,0.163208l1.3774414,0.0612183
			C225.4081421,70.0178223,225.1876831,69.7382812,224.9871216,69.4591064z"/>
		<path fill="#E3E7ED" d="M242.2736816,79.9087524c2.1612549,0,4.2476196-0.4777832,6.112854-1.583374
			c6.3946533-3.7804565,7.8355103-12.9782104,5.9453125-19.7153931c-1.8474731-6.5728149-7.8640137-17.742981-27.4224854-18.6524658
			c-5.3853149-0.2496338-9.2263794-0.1497192-13.3812866,3.3916626c-2.628479,2.2396851-3.5949707,5.060791-4.5293579,7.7891846
			c-0.588501,1.7046509-1.1376953,3.3202515-2.0721436,4.7719727l0.8809814,0.5670776
			c1.0056763-1.5623169,1.6048584-3.3098145,2.1826172-5.0003052c0.8916016-2.5927734,1.8081665-5.2747803,4.2191162-7.3290405
			c3.8695679-3.2989502,7.361145-3.3916626,12.6502075-3.1419678c8.1136475,0.3781128,22.3366699,3.2026978,26.4594116,17.8892822
			c1.7904053,6.3590088,0.4779053,15.0148315-5.4673462,18.531189c-2.104248,1.243042-4.5548706,1.5918579-7.0777588,1.3203125
			l-0.5680542,1.010437C240.8989868,79.8482666,241.5903931,79.9087524,242.2736816,79.9087524z"/>
		<path fill="#0082CA" d="M229.0678101,162.6967773c1.4052124,0,2.5464478-1.1412964,2.5464478-2.5466309
			c0-1.4051514-1.1412354-2.5463867-2.5464478-2.5463867c-1.4051514,0-2.5428467,1.1412354-2.5428467,2.5463867
			C226.5249634,161.555481,227.6626587,162.6967773,229.0678101,162.6967773z"/>
		<polygon fill="#FFB71B" points="239.6930542,80.6693115 240.2057495,79.7573242 240.7738037,78.7468872 245.0391235,71.1596069 
			239.6930542,70.921875 		"/>
		<path fill="#FFB71B" d="M207.1313477,74.3738403l0.9874268,0.022583l0.3612061,0.0082397l4.3103027-6.9753418
			l-1.9771729-3.4093628c-1.0012207-0.0484619-1.795105-0.8636475-1.795105-1.8740234
			c0-0.3091431,0.0812378-0.5966797,0.2128906-0.854248l-2.0995483-3.6204224V74.3738403z"/>
		<path fill="#FFB71B" d="M212.0621338,75.4960327c0.2233276-0.0931396,0.4678955-0.1454468,0.7248535-0.1454468
			c1.0413818,0,1.8866577,0.8452148,1.8866577,1.8865967c0,1.0036621-0.7870483,1.8136597-1.7758179,1.8720093l1.4730225,2.1824951
			h5.7974854h1.4763184h17.6985474l0.3498535-0.6223755V70.921875l-14.0551147-0.624939l-1.3774414-0.0612183l-4.328064-0.1924438
			c-0.1645508,0.8741455-0.9294434,1.5368652-1.8478394,1.5368652c-0.9815063,0-1.774231-0.7484741-1.868103-1.7020874
			l-0.663269-0.02948L212.0621338,75.4960327z M234.5216675,74.3549194c1.0449829,0,1.8866577,0.8415527,1.8866577,1.8829346
			c0,1.0415649-0.8416748,1.8868408-1.8866577,1.8868408c-1.0378418,0-1.8831177-0.8452759-1.8831177-1.8868408
			C232.6385498,75.1964722,233.4838257,74.3549194,234.5216675,74.3549194z M225.2991333,72.4685059
			c1.0413818,0,1.8867188,0.8415527,1.8867188,1.8829346c0,1.0415649-0.8453369,1.8868408-1.8867188,1.8868408
			s-1.8866577-0.8452759-1.8866577-1.8868408C223.4124756,73.3100586,224.2577515,72.4685059,225.2991333,72.4685059z"/>
		<path fill="#FEFEFE" d="M210.8131104,64.0199585l-1.5822144-2.7282715
			c-0.1316528,0.2575684-0.2128906,0.545105-0.2128906,0.854248
			C209.0180054,63.156311,209.8118896,63.9714966,210.8131104,64.0199585z"/>
		<path fill="#FEFEFE" d="M225.2991333,76.2382812c1.0413818,0,1.8867188-0.8452759,1.8867188-1.8868408
			c0-1.0413818-0.8453369-1.8829346-1.8867188-1.8829346s-1.8866577,0.8415527-1.8866577,1.8829346
			C223.4124756,75.3930054,224.2577515,76.2382812,225.2991333,76.2382812z"/>
		<path fill="#FEFEFE" d="M232.6385498,76.237854c0,1.0415649,0.8452759,1.8868408,1.8831177,1.8868408
			c1.0449829,0,1.8866577-0.8452759,1.8866577-1.8868408c0-1.0413818-0.8416748-1.8829346-1.8866577-1.8829346
			C233.4838257,74.3549194,232.6385498,75.1964722,232.6385498,76.237854z"/>
		<path fill="#FEFEFE" d="M218.0845947,71.5801392c0.918396,0,1.6832886-0.6627197,1.8478394-1.5368652l-3.7159424-0.1652222
			C216.3103638,70.831665,217.1030884,71.5801392,218.0845947,71.5801392z"/>
		<path fill="#FEFEFE" d="M214.673645,77.2371826c0-1.0413818-0.8452759-1.8865967-1.8866577-1.8865967
			c-0.256958,0-0.5015259,0.0523071-0.7248535,0.1454468l-0.7662964,1.239624l1.6019897,2.3735352
			C213.8865967,79.0508423,214.673645,78.2408447,214.673645,77.2371826z"/>
		<path fill="#FFB71B" d="M214.3709717,81.2918701l2.7568359,4.0847168
			c0.4967041,0.2841797,0.8482666,0.7836304,0.9284668,1.3756104l4.1256714,6.1127319l0.6228027,0.9227295l0.6096802,0.9033813
			c0.0107422-1.0322266,0.8499756-1.8671875,1.8847046-1.8671875c1.0413818,0,1.8867188,0.8452759,1.8867188,1.8866577
			c0,1.0415649-0.8453369,1.8831177-1.8867188,1.8831177c-0.2446289,0-0.4768066-0.0499878-0.6913452-0.1345215l3.3873291,5.0187988
			l11.3479614-20.1860352h-17.6982422h-1.4763184H214.3709717z M234.5216675,83.2340088
			c1.0449829,0,1.8866577,0.8452759,1.8866577,1.8866577c0,1.0415649-0.8416748,1.8831177-1.8866577,1.8831177
			c-1.0378418,0-1.8831177-0.8415527-1.8831177-1.8831177C232.6385498,84.0792847,233.4838257,83.2340088,234.5216675,83.2340088z"
			/>
		<path fill="#FEFEFE" d="M217.1278076,85.3765869l0.9284668,1.3756104
			C217.9760742,86.1602173,217.6245117,85.6607666,217.1278076,85.3765869z"/>
		<path fill="#FEFEFE" d="M234.5216675,87.0037842c1.0449829,0,1.8866577-0.8415527,1.8866577-1.8831177
			c0-1.0413818-0.8416748-1.8866577-1.8866577-1.8866577c-1.0378418,0-1.8831177,0.8452759-1.8831177,1.8866577
			C232.6385498,86.1622314,233.4838257,87.0037842,234.5216675,87.0037842z"/>
		<path fill="#FEFEFE" d="M227.1858521,94.7105103c0-1.0413818-0.8453369-1.8866577-1.8867188-1.8866577
			c-1.034729,0-1.8739624,0.8349609-1.8847046,1.8671875l1.1933594,1.7680664
			c0.2145386,0.0845337,0.4467163,0.1345215,0.6913452,0.1345215
			C226.3405151,96.5936279,227.1858521,95.7520752,227.1858521,94.7105103z"/>
		<polygon fill="#FFB71B" points="195.6260986,48.7265015 201.9440308,48.7265015 199.0319824,43.7050781 		"/>
		<path fill="#FFB71B" d="M190.8811646,74.0027466c0.1647949-0.8737793,0.9330444-1.5342407,1.8548584-1.5342407
			c0.9509888,0,1.7275391,0.7041626,1.8566284,1.6189575l12.5386963,0.286377V57.6712646l-5.046814-8.7024536l-0.1384888-0.2388306
			h-6.3223267l-7.9083862,11.659729l-9.0441895,13.3341675L190.8811646,74.0027466z M204.7265015,65.0088501
			c0,1.041626-0.8417358,1.8868408-1.8831177,1.8868408s-1.8902588-0.8452148-1.8902588-1.8868408
			c0-1.0413208,0.848877-1.8828735,1.8902588-1.8828735S204.7265015,63.9675293,204.7265015,65.0088501z M201.9589233,50.6729736
			c1.0413818,0,1.8866577,0.8415527,1.8866577,1.8829346c0,1.041626-0.8452759,1.8831177-1.8866577,1.8831177
			c-1.0414429,0-1.8830566-0.8414917-1.8830566-1.8831177C200.0758667,51.5145264,200.9174805,50.6729736,201.9589233,50.6729736z
			 M194.6192017,62.1459351c0,1.041626-0.8417358,1.8831787-1.8831787,1.8831787
			c-1.0413208,0-1.8901978-0.8415527-1.8901978-1.8831787c0-1.0413208,0.848877-1.8865967,1.8901978-1.8865967
			C193.7774658,60.2593384,194.6192017,61.1046143,194.6192017,62.1459351z M185.5196533,67.8104248
			c1.0414429,0,1.8831787,0.8414917,1.8831787,1.8828735c0,1.041626-0.8417358,1.8868408-1.8831787,1.8868408
			c-1.0413208,0-1.8865967-0.8452148-1.8865967-1.8868408C183.6330566,68.6519165,184.4783325,67.8104248,185.5196533,67.8104248z"
			/>
		<path fill="#FEFEFE" d="M201.9589233,54.4390259c1.0413818,0,1.8866577-0.8414917,1.8866577-1.8831177
			c0-1.0413818-0.8452759-1.8829346-1.8866577-1.8829346c-1.0414429,0-1.8830566,0.8415527-1.8830566,1.8829346
			C200.0758667,53.5975342,200.9174805,54.4390259,201.9589233,54.4390259z"/>
		<path fill="#FEFEFE" d="M190.8458252,62.1459351c0,1.041626,0.848877,1.8831787,1.8901978,1.8831787
			c1.0414429,0,1.8831787-0.8415527,1.8831787-1.8831787c0-1.0413208-0.8417358-1.8865967-1.8831787-1.8865967
			C191.6947021,60.2593384,190.8458252,61.1046143,190.8458252,62.1459351z"/>
		<path fill="#FEFEFE" d="M192.7360229,72.4685059c-0.921814,0-1.6900635,0.6604614-1.8548584,1.5342407l3.7114868,0.0847168
			C194.463562,73.1726685,193.6870117,72.4685059,192.7360229,72.4685059z"/>
		<path fill="#FEFEFE" d="M200.953125,65.0088501c0,1.041626,0.848877,1.8868408,1.8902588,1.8868408
			s1.8831177-0.8452148,1.8831177-1.8868408c0-1.0413208-0.8417358-1.8828735-1.8831177-1.8828735
			S200.953125,63.9675293,200.953125,65.0088501z"/>
		<path fill="#FEFEFE" d="M185.5196533,71.5801392c1.0414429,0,1.8831787-0.8452148,1.8831787-1.8868408
			c0-1.0413818-0.8417358-1.8828735-1.8831787-1.8828735c-1.0413208,0-1.8865967,0.8414917-1.8865967,1.8828735
			C183.6330566,70.7349243,184.4783325,71.5801392,185.5196533,71.5801392z"/>
		<polygon fill="#FF8672" points="208.4799805,74.4046631 208.4212036,74.4997559 207.524353,75.9511719 210.6057739,77.8519287 
			211.2958374,76.7356567 212.0621338,75.4960327 215.5532227,69.8485718 216.5296631,68.269043 213.4482422,66.364563 
			212.7902832,67.4293213 		"/>
	</g>
	<path fill="#0675DE" d="M178.137207,356.2744141C79.9121094,356.2744141,0,276.3623047,0,178.137207S79.9121094,0,178.137207,0
		s178.137207,79.9121094,178.137207,178.137207S276.3623047,356.2744141,178.137207,356.2744141z M178.137207,5
		C82.6689453,5,5,82.6689453,5,178.137207s77.6689453,173.137207,173.137207,173.137207
		s173.137207-77.6689453,173.137207-173.137207S273.6054688,5,178.137207,5z"/>
</g>
</svg>
