<svg xmlns="http://www.w3.org/2000/svg" viewBox="0 0 15.2 14.7" overflow="visible" xml:space="preserve">
<path fill="#FFFFFF" d="M14.7,14.7c0-0.7-0.1-1.3-0.2-2l0.5-0.1c0.1,0.7,0.2,1.3,0.2,2L14.7,14.7z M14.2,11.3
	c-0.2-0.6-0.4-1.3-0.7-1.9L14,9.2c0.3,0.6,0.5,1.3,0.7,1.9L14.2,11.3z M12.9,8.1c-0.3-0.6-0.7-1.1-1.1-1.7l0.4-0.3
	c0.4,0.5,0.8,1.1,1.1,1.7L12.9,8.1z M10.9,5.3C10.5,4.8,10,4.4,9.5,4l0.3-0.4c0.5,0.4,1,0.9,1.5,1.4L10.9,5.3z M8.3,3.1
	c-0.5-0.4-1.1-0.7-1.7-1l0.2-0.4c0.6,0.3,1.2,0.7,1.7,1L8.3,3.1z M5.3,1.5C4.7,1.2,4,1,3.4,0.9l0.1-0.5C4.2,0.6,4.8,0.8,5.5,1
	L5.3,1.5z M2,0.6C1.3,0.5,0.7,0.5,0,0.5V0c0.7,0,1.4,0,2,0.1L2,0.6z"/>
</svg>
