<?xml version="1.0" encoding="utf-8"?>
<!-- Generator: Adobe Illustrator 25.0.1, SVG Export Plug-In . SVG Version: 6.00 Build 0)  -->
<svg version="1.1" id="Capa_1" xmlns="http://www.w3.org/2000/svg" xmlns:xlink="http://www.w3.org/1999/xlink" x="0px" y="0px"
	 viewBox="0 0 476.27 489.14" style="enable-background:new 0 0 476.27 489.14;" xml:space="preserve">
<style type="text/css">
	.st0{fill:#B1DBFC;}
	.st1{fill:#0E4C7F;}
	.st2{fill:#DFEBFA;}
	.st3{fill:#5CB3F8;}
	.st4{fill:#FF656F;}
	.st5{fill:#FF4756;}
	.st6{fill:#43CB8E;}
	.st7{fill:#0776DE;}
	.st8{fill:#2A7DE1;}
	.st9{fill:#FFFFFF;}
</style>
<g>
	<g>
		<path class="st0" d="M213.91,268.12v15.07c0,5.76-2.76,11.12-7.3,14.14l-10.96,7.31h82.37l-10.96-7.31
			c-4.54-3.03-7.3-8.38-7.3-14.14v-15.07C244.69,268.12,228.99,268.12,213.91,268.12L213.91,268.12z"/>
		<path class="st0" d="M285.7,304.12h-97.71c-2.72,0-4.93,2.21-4.93,4.93v5.52c0,2.72,2.21,4.93,4.93,4.93h97.71
			c2.72,0,4.93-2.21,4.93-4.93v-5.52C290.62,306.33,288.42,304.12,285.7,304.12z"/>
		<g>
			<g>
				<path class="st1" d="M345.06,93.58H128.62c-7.83,0-14.2,6.37-14.2,14.2v146.8c0,7.83,6.37,14.2,14.2,14.2h216.44
					c7.83,0,14.2-6.37,14.2-14.2v-146.8C359.26,99.95,352.89,93.58,345.06,93.58L345.06,93.58z"/>
			</g>
		</g>
		<g>
			<path class="st2" d="M129.79,126.23v0.99v124.15c0,1.13,0.91,2.04,2.04,2.04h210.02c1.13,0,2.04-0.91,2.04-2.04
				c0-3.31,0-89.06,0-125.13L129.79,126.23z"/>
		</g>
		<path class="st0" d="M144.57,251.36V127.22v-0.99h-14.78v0.99v124.15c0,1.13,0.91,2.04,2.04,2.04h14.78
			C145.49,253.41,144.57,252.49,144.57,251.36z"/>
		<path class="st3" d="M341.85,108.95H151.48v18.27h192.41c0-8.55,0-14.51,0-16.23C343.89,109.86,342.98,108.95,341.85,108.95z"/>
		<path class="st4" d="M151.98,108.95h-20.14c-1.13,0-2.04,0.91-2.04,2.04v16.23h22.19V108.95z"/>
		<path class="st5" d="M146.61,108.95h-14.78c-1.13,0-2.04,0.91-2.04,2.04v16.23h14.78v-16.23
			C144.57,109.86,145.49,108.95,146.61,108.95z"/>
		<g>
			<path class="st6" d="M165.04,163.76l-7.54-7.54c-2.71-2.71-2.71-7.1,0-9.8c2.71-2.71,7.1-2.71,9.8,0l2.64,2.64l6.44-6.44
				c2.71-2.71,7.1-2.71,9.8,0c2.71,2.71,2.71,7.1,0,9.8l-11.34,11.34C172.14,166.46,167.75,166.46,165.04,163.76L165.04,163.76z"/>
		</g>
		<g>
			<path class="st6" d="M165.04,200.22l-7.54-7.54c-2.71-2.71-2.71-7.1,0-9.8c2.71-2.71,7.1-2.71,9.8,0l2.64,2.64l6.44-6.44
				c2.71-2.71,7.1-2.71,9.8,0c2.71,2.71,2.71,7.1,0,9.8l-11.34,11.34C172.14,202.93,167.75,202.93,165.04,200.22L165.04,200.22z"/>
		</g>
		<g>
			<path class="st6" d="M165.04,236.69l-7.54-7.54c-2.71-2.71-2.71-7.1,0-9.8c2.71-2.71,7.1-2.71,9.8,0l2.64,2.64l6.44-6.44
				c2.71-2.71,7.1-2.71,9.8,0c2.71,2.71,2.71,7.1,0,9.8l-11.34,11.34C172.14,239.39,167.75,239.39,165.04,236.69z"/>
		</g>
		<g>
			<path class="st3" d="M312.23,145.9H210.3c-2.54,0-4.6,2.06-4.6,4.6v5.37c0,2.54,2.06,4.6,4.6,4.6h101.93c2.54,0,4.6-2.06,4.6-4.6
				v-5.37C316.83,147.96,314.77,145.9,312.23,145.9z"/>
			<path class="st3" d="M312.23,182.36H210.3c-2.54,0-4.6,2.06-4.6,4.6v5.37c0,2.54,2.06,4.6,4.6,4.6h101.93
				c2.54,0,4.6-2.06,4.6-4.6v-5.37C316.83,184.42,314.77,182.36,312.23,182.36z"/>
			<path class="st3" d="M312.23,218.83H210.3c-2.54,0-4.6,2.06-4.6,4.6v5.37c0,2.54,2.06,4.6,4.6,4.6h101.93
				c2.54,0,4.6-2.06,4.6-4.6v-5.37C316.83,220.89,314.77,218.83,312.23,218.83z"/>
		</g>
		<path class="st7" d="M229,155.87v-5.37c0-2.54,2.06-4.6,4.6-4.6H210.3c-2.54,0-4.6,2.06-4.6,4.6v5.37c0,2.54,2.06,4.6,4.6,4.6
			h23.31C231.06,160.48,229,158.42,229,155.87L229,155.87z"/>
		<path class="st7" d="M229,192.34v-5.37c0-2.54,2.06-4.6,4.6-4.6H210.3c-2.54,0-4.6,2.06-4.6,4.6v5.37c0,2.54,2.06,4.6,4.6,4.6
			h23.31C231.06,196.94,229,194.88,229,192.34L229,192.34z"/>
		<path class="st7" d="M229,228.8v-5.37c0-2.54,2.06-4.6,4.6-4.6H210.3c-2.54,0-4.6,2.06-4.6,4.6v5.37c0,2.54,2.06,4.6,4.6,4.6
			h23.31C231.06,233.41,229,231.35,229,228.8z"/>
	</g>
	<rect x="100.29" y="312.38" class="st8" width="273.1" height="97.64"/>
	<g>
		<path class="st9" d="M125.74,325.9h9.48c6.33,0,9.86,2.58,9.86,7.69v0.14c0,3.46-1.83,5.39-4.37,6.37l5.79,10.03h-7.32l-4.91-8.67
			h-1.63v8.67h-6.91V325.9z M134.88,336.94c2.34,0,3.49-0.98,3.49-2.95v-0.14c0-1.96-1.22-2.74-3.46-2.74h-2.27v5.83H134.88z"/>
		<path class="st9" d="M149.34,325.9h16.73v5.35h-9.82v4.17h7.83v4.95h-7.83v4.4h10.37v5.35h-17.28V325.9z"/>
		<path class="st9" d="M168.68,342.43h6.61c0.17,1.73,0.95,3.15,3.83,3.15c2,0,3.12-0.98,3.12-2.41c0-1.49-0.92-1.9-3.83-2.34
			c-6.84-0.81-9.15-2.85-9.15-7.72c0-4.37,3.59-7.55,9.38-7.55c5.83,0,9.11,2.44,9.55,7.55h-6.44c-0.24-1.73-1.22-2.61-3.12-2.61
			c-1.86,0-2.81,0.85-2.81,2.07c0,1.35,0.75,1.96,3.76,2.37c6.13,0.68,9.28,2.27,9.28,7.52c0,4.44-3.52,8.06-9.76,8.06
			C172.34,350.52,168.89,347.68,168.68,342.43z"/>
		<path class="st9" d="M191.65,340.29v-14.4h6.94v14.09c0,3.42,0.85,5.08,3.79,5.08c2.88,0,3.79-1.56,3.79-5.18V325.9h7.01v14.3
			c0,7.05-4.13,10.33-10.81,10.33C195.54,350.52,191.65,347.07,191.65,340.29z"/>
		<path class="st9" d="M217.69,325.9h6.98v18.83h9.15v5.39h-16.12V325.9z"/>
		<path class="st9" d="M239.1,331.25h-6.27v-5.35h19.51v5.35h-6.27v18.87h-6.98V331.25z"/>
		<path class="st9" d="M259.05,325.9h8.98l7.69,24.22h-7.35l-1.29-4.5h-8.03l-1.29,4.5h-6.47L259.05,325.9z M260.4,340.84h5.32
			l-2.64-9.32L260.4,340.84z"/>
		<path class="st9" d="M278.49,325.9h8.81c8.6,0,12.97,4.3,12.97,11.82v0.27c0,7.55-4.47,12.13-13.01,12.13h-8.77V325.9z
			 M287.06,344.76c4.13,0,5.96-2.17,5.96-6.67v-0.27c0-4.61-1.83-6.57-6.03-6.57h-1.52v13.52H287.06z"/>
		<path class="st9" d="M302.37,338.16v-0.27c0-7.38,5.56-12.33,12.8-12.33c7.38,0,12.84,4.64,12.84,12.16v0.27
			c0,7.45-5.12,12.53-12.94,12.53S302.37,345.44,302.37,338.16z M320.76,338.09v-0.27c0-4.3-2.17-6.84-5.59-6.84
			c-3.42,0-5.56,2.47-5.56,6.88v0.27c0,4.4,2.24,6.94,5.59,6.94C318.63,345.07,320.76,342.43,320.76,338.09z"/>
		<path class="st9" d="M329.5,342.43h6.61c0.17,1.73,0.95,3.15,3.83,3.15c2,0,3.12-0.98,3.12-2.41c0-1.49-0.92-1.9-3.83-2.34
			c-6.84-0.81-9.15-2.85-9.15-7.72c0-4.37,3.59-7.55,9.38-7.55c5.83,0,9.11,2.44,9.55,7.55h-6.44c-0.24-1.73-1.22-2.61-3.12-2.61
			c-1.86,0-2.81,0.85-2.81,2.07c0,1.35,0.75,1.96,3.76,2.37c6.13,0.68,9.28,2.27,9.28,7.52c0,4.44-3.52,8.06-9.76,8.06
			C333.16,350.52,329.7,347.68,329.5,342.43z"/>
		<path class="st9" d="M125.52,355.67h27.7v8.86h-16.26v6.9h12.95v8.19h-12.95v7.29h17.16v8.86h-28.6V355.67z"/>
		<path class="st9" d="M159.85,355.67h12.95l12.84,22.6v-22.6h10.04v40.09h-11.1l-14.64-25.18v25.18h-10.09V355.67z"/>
		<path class="st9" d="M200.84,383.04h10.94c0.28,2.86,1.57,5.21,6.34,5.21c3.31,0,5.16-1.63,5.16-3.98c0-2.47-1.51-3.14-6.34-3.87
			c-11.33-1.35-15.14-4.71-15.14-12.79c0-7.23,5.94-12.5,15.53-12.5c9.65,0,15.08,4.04,15.81,12.5h-10.65
			c-0.39-2.86-2.02-4.32-5.16-4.32c-3.08,0-4.65,1.4-4.65,3.42c0,2.24,1.23,3.25,6.22,3.93c10.15,1.12,15.36,3.76,15.36,12.45
			c0,7.35-5.83,13.35-16.15,13.35C206.9,396.44,201.18,391.73,200.84,383.04z"/>
		<path class="st9" d="M248.29,355.67h14.86l12.73,40.09h-12.17l-2.13-7.46h-13.29l-2.13,7.46h-10.71L248.29,355.67z M250.53,380.4
			h8.8l-4.37-15.42L250.53,380.4z"/>
		<path class="st9" d="M285.36,378.61l-13.07-22.94h12.5l6.79,13.51l6.79-13.51h10.99l-12.45,22.94v17.16h-11.55V378.61z"/>
		<path class="st9" d="M308.18,375.97v-0.45c0-12.22,9.2-20.41,21.2-20.41c12.22,0,21.25,7.68,21.25,20.13v0.45
			c0,12.34-8.47,20.75-21.42,20.75C316.26,396.44,308.18,388.03,308.18,375.97z M338.63,375.86v-0.45c0-7.12-3.59-11.33-9.25-11.33
			c-5.66,0-9.2,4.09-9.2,11.38v0.45c0,7.29,3.7,11.5,9.25,11.5C335.1,387.41,338.63,383.04,338.63,375.86z"/>
	</g>
</g>
</svg>
