<?xml version="1.0" encoding="utf-8"?>
<!-- Generator: Adobe Illustrator 24.3.0, SVG Export Plug-In . SVG Version: 6.00 Build 0)  -->
<svg version="1.2" baseProfile="tiny" id="Capa_1" xmlns="http://www.w3.org/2000/svg" xmlns:xlink="http://www.w3.org/1999/xlink"
	 x="0px" y="0px" viewBox="0 0 356.2744141 356.2744141" overflow="visible" xml:space="preserve">
<g>
	<g>
		<circle fill="#FFFFFF" cx="178.1370239" cy="178.1374359" r="175.6371918"/>
		<path fill="#0675DE" d="M178.1367188,356.2744141C79.9121094,356.2744141,0,276.3623047,0,178.137207S79.9121094,0,178.1367188,0
			c98.2255859,0,178.1376953,79.9121094,178.1376953,178.137207S276.3623047,356.2744141,178.1367188,356.2744141z M178.1367188,5
			C82.6689453,5,5,82.6689453,5,178.137207s77.6689453,173.137207,173.1367188,173.137207
			c95.46875,0,173.1376953-77.6689453,173.1376953-173.137207S273.6054688,5,178.1367188,5z"/>
	</g>
	<g>
		<path fill="none" d="M224.6411133,267.9591675c0.7878418-2.3300171,1.4360352-4.7094116,1.9685059-7.1251221
			c1.2558594-5.6972656,3.8010254-21.0605469-3.6433105-24.1553345l0.9689941,32.5946045
			C224.3989258,268.4541626,224.6318359,267.9782715,224.6411133,267.9591675z"/>
		<path fill="none" d="M75.5419922,158.010498c0.3679199,0.0709839,0.746582,0.1598511,1.1263428,0.2662964v-0.2902222
			C76.2773438,158.0132446,75.8994141,158.0201416,75.5419922,158.010498z"/>
		<path fill="none" d="M76.668335,152.6567383v-0.0814819c-1.255249,0.2044678-2.4342041,0.3290405-3.1011963,0.5354614
			C74.25,153.1096802,75.4206543,152.8534546,76.668335,152.6567383z"/>
		<path fill="#673918" d="M278.6309814,165.012207c-23.7316895-12.5425415,4.9349365-23.6687622,2.8621826-44.5319214
			c-1.4926758-14.9765625-7.1634521-10.2639771-16.0214844-18.7738037
			c-7.6673584-7.3621826-3.3195801-17.0592041-2.0458984-25.5522461c0.8125-5.3858032,0.3647461-10.1812134-1.0412598-14.4329224
			c-5.9760742-18.0307617-29.296875-26.2785034-47.8817139-28.0461426
			c-13.0860596-1.2468872-27.0843506-0.3149414-39.5404053,4.1320801
			c-5.3525391,1.9103394-10.048584,4.4372559-14.6217041,7.7900391
			c-1.7874756,1.3100586-14.7843018,18.246582-10.6553955,18.0344238
			c-15.9018555,0.8025513-29.2004395,4.2217407-34.6193848,20.9923096
			c-5.2297363,16.1606445,12.4033203,27.3134155,3.6115723,42.84375
			c-8.5263672,15.0595703-16.8702393,24.4381714-9.2724609,42.6713867
			c2.8653564,6.871521,7.2263184,10.9207764,8.4997559,18.3161621c1.329834,7.7501831-2.3413086,14.3233643-1.8537598,21.536377
			c5.8001709-2.5137939,12.0317383-5.0275269,15.9880371-10.1779785c3.9797363-5.1766968,3.6181641-13.0133057,8.3205566-17.4338379
			c2.0983887,16.1588745-0.9592285,29.5130615,9.6860352,42.6943359c1.9665527-2.3987427,3.7446289-4.9448853,5.3131104-7.4335327
			c2.9173584-6.5753784,7.6739502-16.1869507,13.177002-23.0113525c0,0,0.9678955,1.03302,2.6063232,2.5393677
			c1.5302734-1.8256836,3.9627686-4.1411743,8.3139648-7.3892212c4.4846191-6.9075928,5.2370605-15.7324829,5.3962402-22.8248901
			c0.0036621-0.2167969,0.0782471-2.868103-0.012207-5.210083c-2.2731934-1.0145874-4.7702637-2.6731567-7.8859863-5.0666504
			c-9.4621582-7.2671509-20.3603516-15.4807129-28.2045898-23.9025269c-1.2722168,0.3154297-2.4421387,0.479187-3.5244141,0.5233765
			c0.0021973,0.048584,0.0124512,0.0943604,0.0124512,0.1435547c0,1.6051025-1.1176758,2.9084473-2.4938965,2.9084473
			c-1.3764648,0-2.4938965-1.3033447-2.4938965-2.9084473c0-0.3158569,0.0541992-0.6143799,0.1342773-0.899231
			c-6.6166992-2.6193237-7.7248535-11.0106201-7.7248535-11.0106201l6.1806641-4.2840576l-0.0004883-0.0015869
			c2.2631836-1.7120361,4.4584961-3.6204224,6.5880127-5.6677856c-3.6455078-1.7391968-4.432251-5.1048584-4.432251-5.1048584
			s2.5500488,3.8174438,7.0306396,2.505249c4.7683105-4.9732056,9.1580811-10.6263428,13.1165771-16.444519
			c-2.0565186,0.6271362-4.1345215,1.4762573-6.2358398,2.5664673c0,0,3.079834-3.401123,8.2753906-5.6293945
			c7.6286621-11.7463379,13.4780273-23.78125,17.088623-31.9193115c0,0,21.4301758-7.9129028,33.6641846,14.9632568
			c3.6832275,6.885437,8.2232666,13.5151978,13.2211914,19.0167847c3.3884277,1.5738525,5.3685303,3.6322021,5.3685303,3.6322021
			c-1.1157227-0.5773926-2.2219238-1.0614624-3.3205566-1.46875c6.6795654,6.7657471,14.0495605,11.4046021,21.2269287,11.960022
			l0.0997314,1.4343262c2.6911621-1.635498,13.6865234-7.4988403,9.4526367,8.7788696
			c-2.036499,7.8377075-4.5749512,12.7807617-7.5405273,15.5718384c0.4266357,0.5219116,0.6923828,1.2241821,0.6923828,2.0010986
			c0,1.6051025-1.1176758,2.9084473-2.4973145,2.9084473c-1.2207031,0-2.234375-1.0317383-2.4455566-2.3881226
			c-1.5373535,0.4589233-3.1577148,0.5331421-4.8564453,0.2839355c-4.4404297,4.8548584-11.3134766,10.2849731-21.9625244,15.284729
			c-11.4750977,5.3915405-18.5023193,9.4267578-23.7564697,11.6085205
			c0.3249512,4.3889771,1.4924316,12.401123,3.7774658,20.2541504c1.0158691,3.4816895,2.1564941,6.2431641,3.4686279,8.3846436
			c3.6040039,1.4328613,6.8376465,3.1306152,9.7435303,5.0420532c3.9191895-4.0142212,7.4039307-9.1057129,11.2717285-14.5235596
			c-0.5440674,15.6531982,11.7828369,22.2891235,15.6829834,35.6672363
			c-0.9420166-8.937561,8.6357422-10.7250366,13.4277344-16.177063c4.7890625-5.4520264,4.7028809-12.4129639,8.1848145-17.6627808
			c4.5991211,5.8820801,15.1054688,16.6907959,11.0354004,24.7422485c0.1679688-0.124939,2.3769531-1.6137695,3.4472656-1.9226074
			c9.5473633-2.7756958,11.2885742-13.3117065,11.2788086-21.6389771
			C288.9152832,171.4623413,287.6914062,169.8009033,278.6309814,165.012207z M142.7436523,160.6502075
			c-1.3764648,0-2.4938965-1.3033447-2.4938965-2.9084473c0-1.6049805,1.1174316-2.9082642,2.4938965-2.9082642
			c1.3762207,0,2.4938965,1.3032837,2.4938965,2.9082642C145.2375488,159.3468628,144.119873,160.6502075,142.7436523,160.6502075z
			 M142.7436523,136.4737549c1.3762207,0,2.4938965,1.3001099,2.4938965,2.9050293
			c0,1.6051636-1.1176758,2.9085083-2.4938965,2.9085083c-1.3764648,0-2.4938965-1.3033447-2.4938965-2.9085083
			C140.2497559,137.7738647,141.3671875,136.4737549,142.7436523,136.4737549z M143.6114502,96.9285278l-0.3116455,0.2883911
			c-5.8764648,5.395752-10.6853027,13.2155762-12.8707275,20.9194336
			c-1.8239746,6.4272461-2.6695557,15.7062378,3.6644287,23.4366455c2.0203857,2.46698,4.2722168,4.0448608,6.5891113,5.2566528
			c-0.2727051-0.4650269-0.4328613-1.0266724-0.4328613-1.6330566c0-1.6049805,1.1174316-2.9082642,2.4938965-2.9082642
			c1.3762207,0,2.4938965,1.3032837,2.4938965,2.9082642c0,1.4052734-0.8566895,2.5739136-1.9936523,2.8432007
			c0.7305908,0.3151245,1.4616699,0.612915,2.1882324,0.9086914c5.8103027,2.3613892,11.2987061,4.5998535,12.6882324,14.8439941
			c0.925293,6.8648682-1.0810547,12.7645874-3.0212402,18.4685669c-1.0810547,3.1837769-2.1918945,6.4371948-2.8220215,9.9093628
			c1.5720215-3.177063,4.1088867-5.5914307,6.5960693-7.9558716c4.0161133-3.8204956,8.1815186-7.7769165,8.1781006-15.0097046
			h0.9718018c0.0067139,7.6508179-4.3046875,11.7531128-8.4766846,15.7194214
			c-3.7606201,3.5715332-7.3059082,6.9476318-7.7799072,12.7445068l-0.9718018-0.0396729
			c0.0098877-5.7738037,1.7211914-10.8080444,3.3792725-15.6829834c1.9898682-5.8533936,3.8736572-11.3849487,2.9748535-18.024292
			c-1.3067627-9.6836548-6.3011475-11.7166748-12.0848389-14.0679321c-0.0061035-0.0024414-0.012207-0.0050049-0.0183105-0.0074463
			c0.1228027,0.3435059,0.1918945,0.7196655,0.1918945,1.1150513c0,1.6051636-1.1176758,2.9052734-2.4938965,2.9052734
			c-1.3764648,0-2.4938965-1.3001099-2.4938965-2.9052734c0-1.1328125,0.5622559-2.1030884,1.3739014-2.5822144
			c-2.8526611-1.3348999-5.7712402-3.1159668-8.2861328-6.1860962c-6.5963135-8.055481-5.7374268-17.6727295-3.8470459-24.3219604
			c2.2319336-7.869873,7.1467285-15.8588867,13.1494141-21.3706055l0.3116455-0.2918701
			c8.3040771-7.6241455,33.5712891-30.8352661,28.6861572-43.2583618l0.9089355-0.3580933
			C177.673584,65.6420898,152.9338379,88.3723145,143.6114502,96.9285278z M253.4852295,96.5736694
			c-10.6125488-0.7096558-18.2564697-10.8410645-26.3453369-21.5695801
			c-9.487915-12.5755005-19.3140869-25.5787354-34.5327148-23.3999634l-0.1392822-0.9650879
			c15.80896-2.2583618,25.7941895,10.9770508,35.4481201,23.7780762
			c7.6212158,10.1048584,14.8408203,19.6759644,24.3818359,21.0521851
			c-4.8818359-5.4819336-10.6323242-13.6003418-12.1678467-22.6838379l0.961792-0.1657715
			c1.5853271,9.3885498,7.8265381,17.7623291,12.7844238,23.1348267l0.8327637,0.9019165L253.4852295,96.5736694z
			 M250.6376953,136.4737549c1.3796387,0,2.4973145,1.3001099,2.4973145,2.9050293
			c0,1.6051636-1.1176758,2.9085083-2.4973145,2.9085083c-1.373291,0-2.4904785-1.3033447-2.4904785-2.9085083
			C248.1472168,137.7738647,249.2644043,136.4737549,250.6376953,136.4737549z M258.2589111,178.8734741
			c-6.2679443-0.4244385-12.6350098-4.6427612-16.0412598-10.4629517c-0.0594482,1.2733765-0.0863037,2.5170288-0.1125488,3.7376099
			c-0.1525879,7.0670166-0.2918701,13.1691895-6.4602051,18.8167114l-0.9051514,0.8291016l0.0893555-1.2270508
			c0.5239258-7.0437622-7.8134766-19.90448-13.8624268-23.4299316c-0.6464844,0.8457031-1.3796387,2.03302-2.1556396,3.2833252
			c-2.878418,4.6296387-6.8116455,10.9703979-11.776123,8.9938354l0.3613281-0.9053955
			c4.1987305,1.6748047,7.7437744-4.026001,10.5825195-8.6057739c0.9350586-1.5057983,1.7410889-2.8024292,2.4871826-3.7044067
			l0.2521973-0.3052368l0.3546143,0.1858521c6.1055908,3.2333374,14.40979,15.5900269,14.7446289,23.3635254
			c5.0441895-5.1534424,5.1700439-10.8112793,5.3125-17.3178711c0.0368652-1.7775879,0.079834-3.6148682,0.2158203-5.5216064
			l0.9287109-0.1692505c2.9248047,6.208252,9.6704102,11.0301514,16.0476074,11.4679565
			c2.6431885,0.1890259,6.1286621-0.3050537,9.2657471-3.0742798c-3.1075439,1.3828735-6.5396729,0.6799316-9.7069092-2.1291504
			c-3.2680664-2.901123-5.6462402-7.5401001-6.3911133-12.2335205c-0.2670898,0.1134644-0.5513916,0.1852417-0.8520508,0.1852417
			c-1.373291,0-2.4904785-1.3033447-2.4904785-2.9084473c0-1.6049805,1.1171875-2.9082642,2.4904785-2.9082642
			c0.2780762,0,0.5408936,0.0653076,0.7907715,0.1630859c0.0732422-0.4846802,0.1719971-0.9596558,0.2921143-1.4279175
			c-0.3287354,0.1852417-0.6929932,0.2980957-1.0828857,0.2980957c-1.373291,0-2.4904785-1.3001099-2.4904785-2.9052734
			c0-1.5335693,1.0234375-2.7754517,2.3120117-2.8840332c-1.2885742-0.1083374-2.3120117-1.347168-2.3120117-2.8808594
			c0-1.6049805,1.1171875-2.9082642,2.4904785-2.9082642c1.3796387,0,2.4973145,1.3032837,2.4973145,2.9082642
			c0,1.5336914-1.0239258,2.772522-2.3183594,2.8808594c1.0996094,0.0922241,1.9990234,1.0013428,2.2456055,2.2161255
			c0.3276367-0.5479126,0.6866455-1.0784302,1.111084-1.5689697c2.0428467-2.3579102,4.616333-4.1419678,7.1035156-5.8665161
			c4.3479004-3.0177612,8.460083-5.8632812,9.7299805-11.4910278c1.6352539-7.2595215-2.5102539-13.1790771-6.5266113-18.9031372
			c-0.7990723-1.1474609-1.6281738-2.3314209-2.3774414-3.4855347l0.8156738-0.5339966
			c0.7363281,1.1409912,1.5253906,2.2684326,2.364624,3.4590454c4.131958,5.8964844,8.4001465,11.9951782,6.6756592,19.6791992
			c-1.3530273,5.9959106-5.8134766,9.086731-10.1247559,12.0747681c-2.4406738,1.6946411-4.9611816,3.4390259-6.9177246,5.7074585
			c-1.5056152,1.7380981-2.3209229,3.906189-2.605957,6.2310791c0.5031738,0.5322266,0.824707,1.2926025,0.824707,2.145813
			c0,0.8302612-0.3027344,1.5750122-0.7823486,2.1051636c0.6165771,4.6135254,2.9449463,9.2532959,6.1750488,12.1188354
			c4.0357666,3.5814819,8.3503418,3.4255981,11.8460693-0.4180298l0.769165,0.593689
			C268.0852051,176.8438721,263.5087891,179.2384644,258.2589111,178.8734741z"/>
		<path fill="#673918" d="M274.2070312,206.8709106c0.0007324-0.0014038,0.0012207-0.0028076,0.0019531-0.0042114
			C274.1945801,206.8773193,274.1899414,206.8815308,274.2070312,206.8709106z"/>
		<path fill="#FFB98E" d="M216.7653809,195.836731c-0.2236328,0.0171509-0.4362793,0.0175171-0.6547852,0.0269165
			c0.2045898,0.1456299,0.4174805,0.2860718,0.6186523,0.4338989
			C216.7392578,196.1431885,216.7615967,195.9932861,216.7653809,195.836731z"/>
		<path fill="#FFB98E" d="M195.2207031,207.361145c6.2514648-0.1491699,9.640625-17.583252,9.640625-17.583252
			c0.0004883,0.0001831,0.0009766,0.0004883,0.0014648,0.0006714c-1.3121338-2.1414795-2.4527588-4.9029541-3.4686279-8.3846436
			c-2.2850342-7.8530273-3.4525146-15.8651733-3.7774658-20.2541504c-5.1240234,2.1277466-8.5649414,2.4845581-12.7766113,0.6047363
			c0.0904541,2.34198,0.0158691,4.9932861,0.012207,5.210083c-0.1591797,7.0924072-0.9116211,15.9172974-5.3962402,22.8248901
			c0.0007324-0.0005493,0.0014648-0.0010376,0.0021973-0.0015869
			C179.458252,189.7778931,187.7092285,207.5402832,195.2207031,207.361145z"/>
		<path fill="#FFB98E" d="M204.8613281,189.7778931c0,0-3.3891602,17.434082-9.640625,17.583252
			c-7.5114746,0.1791382-15.7624512-17.583252-15.7624512-17.583252c-0.0007324,0.0005493-0.0014648,0.0010376-0.0021973,0.0015869
			c-4.3511963,3.2480469-6.7836914,5.5635376-8.3139648,7.3892212c4.5136719,4.1500244,14.1616211,11.9255981,23.0255127,11.8404541
			c9.6984863-0.0906982,20.3248291-8.2719727,24.1380615-11.4940796c-0.515625-0.4119873-1.036499-0.8208008-1.576416-1.2175293
			c-0.2011719-0.1478271-0.4140625-0.288269-0.6186523-0.4338989c-0.4946289-0.3520508-0.9891357-0.7041626-1.5042725-1.0430298
			c-2.9058838-1.911438-6.1395264-3.6091919-9.7435303-5.0420532
			C204.8623047,189.7783813,204.8618164,189.7780762,204.8613281,189.7778931z"/>
		<path fill="#DFE8EF" d="M163.2635498,224.4487915v13.8657837c0,0-0.1685791,0.2710571-0.5157471,0.7293091
			c0.4758301,0.5422974,0.9787598,1.0529785,1.5100098,1.5301514l0.0900879-7.6450806l58.5397949,1.1011353l0.0786133,2.6486206
			c7.4443359,3.0947876,4.8991699,18.4580688,3.6433105,24.1553345c-0.5324707,2.4157104-1.1806641,4.795105-1.9685059,7.1251221
			c0.0002441-0.0004272,0.003418-0.0068359,0.003418-0.0068359s17.8618164-15.2550659,9.2028809,11.7563477
			c-0.2558594,0.798645-0.5456543,1.5822754-0.8621826,2.3532715c3.1124268-4.8649292,5.7191162-10.1452026,8.0341797-15.8587036
			c3.2467041-8.0254517,0.9683838-18.8533325-0.7165527-26.9650879c-1.2836914-6.175415-2.9100342-12.522583-5.2634277-18.4890747
			L163.2635498,224.4487915z"/>
		<path fill="#062A30" d="M170.7983398,325.2525635c-3.0979004,1.37323-6.0727539,1.9227905-7.8820801,1.019104
			c-0.00354,0.0089722,0.2106934-0.6985474,0.4378662-1.31073l-0.0905762-0.00354l0.0159912-1.3635254
			c-0.564209-0.270813-1.1447754,0.0175171-1.6125488-0.3903809c-1.6655273,5.2702637-4.6229248,15.4630737-7.3081055,28.9628906
			c7.7773438,1.0527344,15.7124023,1.6082153,23.7780762,1.6082153c19.7438965,0,38.7260742-3.2589722,56.4399414-9.2662964
			c-2.5296631-8.5440063-5.534668-16.4904785-9.0958252-23.2439575l0.1824951,6.1373901L170.7983398,325.2525635z"/>
		<path fill="#FFB98E" d="M252.0533447,110.3693237c0,0-0.2982178,0.9562988-1.1507568,2.069519l0.4868164,6.9998169
			c0,0-0.5241699,6.5756226-8.0537109,14.8078613c1.6987305,0.2492065,3.3190918,0.1749878,4.8564453-0.2839355
			c-0.0263672-0.1693726-0.0449219-0.3421021-0.0449219-0.5203247c0-1.6049805,1.1171875-2.9083252,2.4904785-2.9083252
			c0.7116699,0,1.3500977,0.3508911,1.8049316,0.9072266c2.9655762-2.7910767,5.5040283-7.7341309,7.5405273-15.5718384
			c4.2338867-16.27771-6.7614746-10.4143677-9.4526367-8.7788696l0.3071289,4.4146118
			C251.618042,110.9249268,252.0533447,110.3693237,252.0533447,110.3693237z"/>
		<path fill="#FFB98E" d="M138.8398438,117.2483521l-6.1806641,4.2840576c0,0,1.1081543,8.3912964,7.7248535,11.0106201
			c0.3265381-1.1625366,1.2541504-2.0090942,2.3596191-2.0090942c1.3339844,0,2.4158936,1.2278442,2.4814453,2.7647705
			c1.0822754-0.0441895,2.2521973-0.2079468,3.5244141-0.5233765c-4.434082-4.7606201-7.8959961-9.5874634-9.5617676-14.3480835
			L138.8398438,117.2483521z"/>
		<path fill="#FFB98E" d="M197.6166992,161.1397705c5.2541504-2.1817627,12.2813721-6.21698,23.7564697-11.6085205
			c10.6490479-4.9997559,17.5220947-10.4298706,21.9625244-15.284729c7.529541-8.2322388,8.0537109-14.8078613,8.0537109-14.8078613
			l-0.4868164-6.9998169c-1.1694336,1.5269165-3.3876953,3.3510132-7.3656006,3.4258423
			c-2.1324463,0.0400391-3.9165039-0.9164429-5.6624756-2.3078613c-4.9194336-0.7962036-9.9550781-1.2696533-15.1135254-1.3969727
			c-0.427002,0.1900635-0.8978271,0.2996826-1.3991699,0.2854614c-0.447998-0.0170898-0.869873-0.1305542-1.2507324-0.3152466
			c-0.3345947-0.0008545-0.6650391-0.0131836-1.0007324-0.0112305c-0.1624756,0.0282593-0.3295898,0.0419312-0.5009766,0.0339966
			c-0.0593262-0.0013428-0.1141357-0.0159912-0.1721191-0.0216675c-4.151123,0.0472412-8.3748779,0.3007812-12.6756592,0.7745972
			c-0.0889893,0.1205444-0.1400146,0.1929321-0.1400146,0.1929321s0.0134277-0.0670776,0.0405273-0.1835938
			c-0.0135498,0.0015259-0.0269775,0.0023193-0.0405273,0.0038452c0,0,0.0249023-0.0396118,0.0638428-0.1000977
			c0.4709473-1.9267578,3.8607178-13.4154053,17.7911377-13.5824585
			c7.6108398-0.0993652,13.4876709,7.7105713,19.1386719,11.8891602c3.7526855,2.774231,6.6767578,1.5282593,8.2224121,0.3795166
			l-0.3071289-4.4146118l-0.0997314-1.4343262c-7.1773682-0.5554199-14.5473633-5.1942749-21.2269287-11.960022
			c-6.9282227-2.5684814-13.517334-1.765625-19.7542725,2.390564c0,0,1.6514893-6.2379761,9.7398682-6.31427
			c3.1286621-0.0358887,5.826416,0.7661743,7.9664307,1.7602539c-4.9979248-5.5015869-9.5379639-12.1313477-13.2211914-19.0167847
			c-12.2340088-22.8761597-33.6641846-14.9632568-33.6641846-14.9632568
			c-3.6105957,8.1380615-9.4599609,20.1729736-17.088623,31.9193115c2.5761719-1.1049194,5.6638184-1.9262085,9.171875-1.8920898
			c10.5825195,0.0896606,12.7315674,8.7252197,12.7315674,8.7252197c-7.5960693-5.0568237-15.5841064-6.319397-23.9429932-3.7702026
			c-3.9584961,5.8181763-8.3482666,11.4713135-13.1165771,16.444519c0.7335205-0.2148438,1.5130615-0.5525513,2.3477783-1.0825195
			c5.8964844-3.7774048,12.3201904-11.156189,19.8979492-10.529541
			c15.1690674,1.2436523,16.8671875,15.0628052,16.8671875,15.0628052s-0.5427246-0.9060669-1.5490723-2.1841431
			c0.8254395,1.2114258,1.2509766,2.020813,1.2509766,2.020813c-4.4815674-0.8153687-8.9012451-1.3915405-13.2558594-1.7280884
			c-0.1661377,0.0328369-0.3371582,0.0518188-0.5136719,0.048645c-0.215332-0.0082397-0.418457-0.0543213-0.614502-0.1160889
			c-0.2181396-0.0148315-0.4348145-0.0249023-0.6525879-0.0384521c-0.3931885,0.1587524-0.8215332,0.2439575-1.2683105,0.2310791
			c-0.5-0.0216675-0.9609375-0.164917-1.3729248-0.3847656c-4.8253174-0.1936646-9.5621338-0.0679321-14.2159424,0.3436279
			c-1.8476562,1.2773438-3.7009277,2.1154175-5.833374,1.923584c-1.479126-0.1272583-2.6842041-0.4894409-3.6860352-0.9673462
			c-2.1295166,2.0473633-4.3248291,3.9557495-6.5880127,5.6677856l0.0004883,0.0015869l0.3479004,1.178894
			c1.6657715,4.7606201,5.1276855,9.5874634,9.5617676,14.3480835c7.8442383,8.421814,18.7424316,16.635376,28.2045898,23.9025269
			c3.1157227,2.3934937,5.612793,4.052063,7.8859863,5.0666504
			C189.0517578,163.6243286,192.4926758,163.2675171,197.6166992,161.1397705z M193.6903076,123.3717651l10.5823975,4.0593872
			c-6.7655029,2.4872437-12.7945557,2.5236816-18.1005859,0.1026611
			C186.1721191,127.5338135,189.6442871,123.2158813,193.6903076,123.3717651z M175.3571777,135.6469116
			c-0.0002441-0.0002441-0.0004883-0.0003662-0.0007324-0.0006104l0.0009766,0.0001221
			c7.3122559-1.5684814,13.5998535-1.2400513,18.9061279,0.9750977c5.6212158-1.5320435,12.2969971-1.3098145,20.0340576,0.6665649
			c0,0-4.1025391,8.7519531-21.7585449,8.4501343C178.4215088,145.489563,175.3601074,135.65625,175.3571777,135.6469116z"/>
		<path fill="#FFFFFF" d="M170.1091309,102.0665283c-7.006958,0.7425537-11.0708008,5.7276001-15.1623535,8.5562134
			c4.6538086-0.4115601,9.390625-0.5372925,14.2159424-0.3436279c-1.0389404-0.5543823-1.7322998-1.6483765-1.7012939-2.8949585
			c0.0727539-1.7411499,1.5352783-3.1141357,3.286377-3.0477295c1.1148682,0.0423584,2.0678711,0.6590576,2.6000977,1.5511475
			c1.237915,0.1108398,2.2055664,1.1513062,2.1541748,2.4213867c-0.0460205,1.1182861-0.8566895,2.0200806-1.9173584,2.2297363
			c4.3546143,0.3365479,8.774292,0.9127197,13.2558594,1.7280884c0,0-0.4255371-0.8093872-1.2509766-2.020813
			C183.0183105,106.9801636,177.4193115,101.2849121,170.1091309,102.0665283z"/>
		<path fill="#FFFFFF" d="M171.8039551,110.4328003c0.2177734,0.0135498,0.4344482,0.0236206,0.6525879,0.0384521
			c-0.1392822-0.0438232-0.2723389-0.0983887-0.3988037-0.1660156
			C171.9733887,110.3484497,171.892334,110.3971558,171.8039551,110.4328003z"/>
		<path fill="#121617" d="M154.9467773,110.6227417c4.0915527-2.8286133,8.1553955-7.8136597,15.1623535-8.5562134
			c7.3101807-0.7816162,12.9091797,4.9136353,15.4804688,8.1794434c1.0063477,1.2780762,1.5490723,2.1841431,1.5490723,2.1841431
			s-1.6981201-13.8191528-16.8671875-15.0628052c-7.5777588-0.6266479-14.0014648,6.7521362-19.8979492,10.529541
			c-0.8347168,0.5299683-1.6142578,0.8676758-2.3477783,1.0825195c-4.4805908,1.3121948-7.0306396-2.505249-7.0306396-2.505249
			s0.7867432,3.3656616,4.432251,5.1048584c1.0018311,0.4779053,2.2069092,0.8400879,3.6860352,0.9673462
			C151.2458496,112.7381592,153.0991211,111.9000854,154.9467773,110.6227417z"/>
		<path fill="#062A30" d="M170.8061523,108.1399536c0.0496826-1.2800293,1.1240234-2.3048706,2.4274902-2.2684326
			c0.0391846,0.0015869,0.0755615,0.0125732,0.1142578,0.0160522c-0.5322266-0.8920898-1.4852295-1.5087891-2.6000977-1.5511475
			c-1.7510986-0.0664062-3.213623,1.3065796-3.286377,3.0477295c-0.0310059,1.246582,0.6623535,2.3405762,1.7012939,2.8949585
			c0.4119873,0.2198486,0.8729248,0.3630981,1.3729248,0.3847656c0.4467773,0.0128784,0.8751221-0.0723267,1.2683105-0.2310791
			c0.0883789-0.0356445,0.1694336-0.0843506,0.2537842-0.1275635
			C171.2897949,109.8946533,170.7751465,109.0779419,170.8061523,108.1399536z"/>
		<path fill="#FFFFFF" d="M175.5020752,108.30896c0.0513916-1.2700806-0.9162598-2.3105469-2.1541748-2.4213867
			c-0.0386963-0.003479-0.0750732-0.0144653-0.1142578-0.0160522c-1.3034668-0.036438-2.3778076,0.9884033-2.4274902,2.2684326
			c-0.0310059,0.9379883,0.4836426,1.7546997,1.2515869,2.1652832c0.1264648,0.067627,0.2595215,0.1221924,0.3988037,0.1660156
			c0.1960449,0.0617676,0.3991699,0.1078491,0.614502,0.1160889c0.1765137,0.0031738,0.3475342-0.0158081,0.5136719-0.048645
			C174.6453857,110.3290405,175.4560547,109.4272461,175.5020752,108.30896z"/>
		<path fill="#FFFFFF" d="M205.7615967,112.9057617c4.3007812-0.4738159,8.5245361-0.727356,12.6756592-0.7745972
			c-1.2188721-0.1195679-2.1307373-1.1679688-2.0927734-2.4026489c0.0496826-1.3033447,1.1374512-2.3180542,2.4174805-2.2682495
			c0.0401611,0.0016479,0.0771484,0.0128174,0.1166992,0.0163574c0.5898438-0.8530273,1.5848389-1.399292,2.6984863-1.3589478
			c1.7476807,0.0498047,3.1208496,1.5223389,3.0645752,3.2665405c-0.0474854,1.2633667-0.8109131,2.2994995-1.8807373,2.7756348
			c5.1584473,0.1273193,10.1940918,0.600769,15.1135254,1.3969727c-3.8959961-3.1050415-7.6018066-8.3811035-14.5638428-9.6177368
			C214.0251465,102.2716675,206.8222656,111.4700928,205.7615967,112.9057617z"/>
		<path fill="#FFFFFF" d="M219.1103516,112.1188354c0.3356934-0.0019531,0.6661377,0.010376,1.0007324,0.0112305
			c-0.1325684-0.064209-0.2558594-0.1428223-0.3771973-0.2241211
			C219.5379639,112.0030518,219.331543,112.0803223,219.1103516,112.1188354z"/>
		<path fill="#FFFFFF" d="M205.621582,112.9189453c0.0135498-0.0015259,0.0269775-0.0023193,0.0405273-0.0038452
			c0.0065918-0.0280762,0.0148926-0.0620117,0.0233154-0.0962524
			C205.6464844,112.8793335,205.621582,112.9189453,205.621582,112.9189453z"/>
		<path fill="#121617" d="M250.8376465,111.5050659c-1.5456543,1.1487427-4.4697266,2.3947144-8.2224121-0.3795166
			c-5.651001-4.1785889-11.527832-11.9885254-19.1386719-11.8891602
			c-13.9304199,0.1670532-17.3201904,11.6557007-17.7911377,13.5824585
			c-0.0084229,0.0342407-0.0167236,0.0681763-0.0233154,0.0962524c-0.0270996,0.1165161-0.0405273,0.1835938-0.0405273,0.1835938
			s0.0510254-0.0723877,0.1400146-0.1929321c1.0606689-1.4356689,8.2635498-10.6340942,17.5490723-8.9666748
			c6.9620361,1.2366333,10.6678467,6.5126953,14.5638428,9.6177368c1.7459717,1.3914185,3.5300293,2.3479004,5.6624756,2.3078613
			c3.9779053-0.0748291,6.196167-1.8989258,7.3656006-3.4258423c0.8525391-1.1132202,1.1507568-2.069519,1.1507568-2.069519
			S251.618042,110.9249268,250.8376465,111.5050659z"/>
		<path fill="#062A30" d="M224.6417236,109.3842163c0.0562744-1.7442017-1.3168945-3.2167358-3.0645752-3.2665405
			c-1.1136475-0.0403442-2.1086426,0.5059204-2.6984863,1.3589478c1.2519531,0.1120605,2.2128906,1.1640015,2.1519775,2.4176636
			c-0.0183105,0.8889771-0.5496826,1.6413574-1.2967529,2.0116577c0.1213379,0.0812988,0.2446289,0.1599121,0.3771973,0.2241211
			c0.3808594,0.1846924,0.8027344,0.2981567,1.2507324,0.3152466c0.5013428,0.0142212,0.972168-0.0953979,1.3991699-0.2854614
			C223.8308105,111.6837158,224.5942383,110.647583,224.6417236,109.3842163z"/>
		<path fill="#FFFFFF" d="M221.0306396,109.8942871c0.0609131-1.2536621-0.9000244-2.305603-2.1519775-2.4176636
			c-0.0395508-0.00354-0.0765381-0.0147095-0.1166992-0.0163574c-1.2800293-0.0498047-2.3677979,0.9649048-2.4174805,2.2682495
			c-0.0379639,1.2346802,0.8739014,2.2830811,2.0927734,2.4026489c0.0579834,0.0056763,0.112793,0.0203247,0.1721191,0.0216675
			c0.1713867,0.0079346,0.338501-0.0057373,0.5009766-0.0339966c0.2211914-0.0385132,0.4276123-0.1157837,0.6235352-0.2128906
			C220.480957,111.5356445,221.0123291,110.7832642,221.0306396,109.8942871z"/>
		<path fill="#FF7F30" d="M204.2727051,127.4311523l-10.5823975-4.0593872
			c-4.0460205-0.1558838-7.5181885,4.1620483-7.5181885,4.1620483
			C191.4781494,129.954834,197.5072021,129.918396,204.2727051,127.4311523z"/>
		<path fill="#CE0E2D" d="M214.2976074,137.2880859c-7.7370605-1.9763794-14.4128418-2.1986084-20.0340576-0.6665649
			c-5.3062744-2.2151489-11.5938721-2.5435791-18.9061279-0.9750977c0.020752,0.0025635,31.9807129,4.0218506,38.9393311,1.6416626
			c0,0-20.8026123,14.1403198-38.9395752-1.6411743c0.0029297,0.0093384,3.0643311,9.8426514,17.1818848,10.0913086
			C210.1950684,146.0400391,214.2976074,137.2880859,214.2976074,137.2880859z"/>
		<path fill="#673918" d="M185.0853271,96.3050537c0,0-2.1490479-8.6355591-12.7315674-8.7252197
			c-3.5080566-0.0341187-6.5957031,0.7871704-9.171875,1.8920898c-5.1955566,2.2282715-8.2753906,5.6293945-8.2753906,5.6293945
			c2.1013184-1.09021,4.1793213-1.9393311,6.2358398-2.5664673C169.5012207,89.9856567,177.4892578,91.24823,185.0853271,96.3050537
			z"/>
		<path fill="#673918" d="M209.449585,96.0866699c6.2369385-4.156189,12.8260498-4.9590454,19.7542725-2.390564
			c1.0986328,0.4072876,2.204834,0.8913574,3.3205566,1.46875c0,0-1.9801025-2.0583496-5.3685303-3.6322021
			c-2.1400146-0.9940796-4.8377686-1.7961426-7.9664307-1.7602539
			C211.1010742,89.8486938,209.449585,96.0866699,209.449585,96.0866699z"/>
		<path fill="#0047BA" d="M164.9855957,301.9365234c-0.1247559-0.1624146-0.7156982-0.7021484-1.4345703-1.3753662
			l-0.0686035,5.821167C165.8046875,305.8048706,167.5004883,305.2396851,164.9855957,301.9365234z"/>
		<path fill="#0047BA" d="M180.630127,317.8765259l-0.0002441-0.0018311
			c-2.2841797,2.9407959-6.1450195,5.7437134-9.831543,7.3778687l54.8652344,2.1491699l-0.1824951-6.1373901l-0.7996826-26.8954468
			C208.7836914,310.8265381,180.630127,317.8765259,180.630127,317.8765259z"/>
		<path fill="#0047BA" d="M209.6990967,260.4460449l-3.7376709,11.5667114h9.7299805l-4.8085938-11.8549194
			c-0.1907959,0.1016846-0.4050293,0.1647339-0.6357422,0.164856v0.1233521H209.6990967z"/>
		<path fill="#0047BA" d="M178.8347168,306.6157227c0,0,0.0615234,0.0525513,0.1605225,0.142334l-0.9053955-6.1564941
			c5.0283203-0.7852173,9.5910645-2.083252,13.7280273-3.7107544l0.4987793-32.0160522
			c-0.3425293-0.4247437-0.5563965-0.9578247-0.5563965-1.5465698v-2.8821411h-12.2211914l5.2677002,12.9935303h2.8343506
			c0,0-1.9499512,6.9577026-9.5510254,6.7255859c-7.6010742-0.2321777-9.5543213-6.7255859-9.5543213-6.7255859h4.1026611
			l4.4046631-13.6138916c-0.1966553-0.2370605-0.3192139-0.5376587-0.3192139-0.8693848v-1.5653076
			c0-0.7559814,0.6066895-1.3695068,1.3662109-1.3695068c0.7528076,0,1.3664551,0.6135254,1.3664551,1.3695068v0.7801514h12.3037109
			v-2.7755127c0-1.366272,1.111084-2.473877,2.4772949-2.473877c1.369873,0,2.480835,1.107605,2.480835,2.473877v2.7755127
			h12.1616211v-0.7801514c0-0.7056885,0.5338135-1.2804565,1.2196045-1.3546753l0.0734863-0.2271729l0.0866699,0.2136841
			c0.74646,0.0074463,1.3530273,0.6168213,1.3530273,1.3681641v1.5653076c0,0.1063843-0.0151367,0.2088013-0.038208,0.3082886
			l5.3684082,13.2357788h2.8319092c0,0-1.9500732,6.9611816-9.5478516,6.7290039
			c-7.6010742-0.2355957-9.5576172-6.7290039-9.5576172-6.7290039h4.1063232l3.8978271-12.0543213h-11.9552002v2.8821411
			c0,1.0668945-0.6776123,1.9669189-1.6229248,2.3162231l-0.5581055,30.1066895
			c17.8687744-8.0172729,26.9366455-22.1293945,29.3979492-26.4777832l-0.9689941-32.5946045l-0.0786133-2.6486206
			l-58.5397949-1.1011353l-0.0900879,7.6450806l-0.6650391,56.4335327
			C170.1945801,298.7491455,178.8347168,306.6157227,178.8347168,306.6157227z"/>
		<path fill="#0047BA" d="M178.0919189,260.3225708c-0.0006104,0-0.0012207,0.0001831-0.0018311,0.0001831
			c-0.0604248,0-0.1179199-0.0101929-0.1760254-0.0177002l-4.0864258,12.6452637h9.7268066l-5.0688477-12.5042725h-0.3936768
			V260.3225708z"/>
		<path fill="#0047BA" d="M163.8381348,324.109436c-0.1804199-0.2716064-0.3685303-0.4243774-0.5585938-0.515564
			l-0.0159912,1.3635254l0.0905762,0.00354C163.548584,324.4368896,163.7525635,323.9824829,163.8381348,324.109436z"/>
		<path fill="#FFB98E" d="M163.8381348,324.109436c-0.0855713-0.1269531-0.2895508,0.3274536-0.4840088,0.8515015
			c-0.2271729,0.6121826-0.4414062,1.3197021-0.4378662,1.31073c1.8093262,0.9036865,4.7841797,0.354126,7.8820801-1.019104
			c3.6865234-1.6341553,7.5473633-4.4370728,9.831543-7.3778687l-1.6346436-11.1166382
			c-0.098999-0.0897827-0.1605225-0.142334-0.1605225-0.142334s-8.6401367-7.8665771-15.2419434-9.6081543
			c-1.0786133-0.2845459-2.1047363-0.411499-3.027832-0.3076782c-0.9414062,0.112793,1.3552246,2.3341064,2.986084,3.8612671
			c0.7188721,0.6732178,1.3098145,1.2129517,1.4345703,1.3753662c2.5148926,3.3031616,0.8190918,3.8683472-1.5031738,4.4458008
			c-1.2821045,0.3188477-2.7543945,0.6414185-3.8161621,1.4306641c-2.5834961,1.9168091-2.4077148,4.6992188,1.2270508,4.5136108
			c-0.5305176,3.4655151-6.5761719,6.1549683,0.6367188,7.3455811c-0.7561035,2.3214722-1.3598633,1.8969727,0.0498047,3.4622803
			c0.027832,0.0307007,0.0584717,0.0440063,0.0871582,0.0690308c0.4677734,0.4078979,1.0483398,0.1195679,1.6125488,0.3903809
			C163.4696045,323.6850586,163.6577148,323.8378296,163.8381348,324.109436z"/>
		<path fill="#5887DA" d="M194.2375488,265.805542c-0.7789307,0-1.4664307-0.3673706-1.9208984-0.9307861l-0.4987793,32.0160522
			c0.927002-0.3647461,1.8356934-0.7432251,2.7194824-1.1397095l0.5581055-30.1066895
			C194.8271484,265.7435303,194.5405273,265.805542,194.2375488,265.805542z"/>
		<path fill="#5887DA" d="M210.2470703,260.4460449v-0.1233521c-0.0002441,0-0.0004883,0.000061-0.0007324,0.000061
			c-0.1689453,0-0.3288574-0.034668-0.4780273-0.0906982l-0.0692139,0.2139893H210.2470703z"/>
		<path fill="#5887DA" d="M179.456543,258.1711426v0.7851562c0,0.2730103-0.0825195,0.5265503-0.2213135,0.7402954
			l0.303833,0.7494507h12.2211914v-2.2749023H179.456543z"/>
		<path fill="#5887DA" d="M208.673584,260.4460449l0.3117676-0.9642334
			c-0.067627-0.1619263-0.1053467-0.3393555-0.1053467-0.5255127v-0.7851562h-12.1616211v2.2749023H208.673584z"/>
		<path fill="#5887DA" d="M178.0919189,260.4460449h0.3936768l-0.0678711-0.1675415
			c-0.1049805,0.026123-0.2130127,0.0439453-0.3258057,0.0440674V260.4460449z"/>
		<path fill="#5887DA" d="M178.4177246,260.2785034l0.0678711,0.1675415l5.0688477,12.5042725h-9.7268066l4.0864258-12.6452637
			c-0.3515625-0.0454102-0.6567383-0.2211914-0.8709717-0.4793701l-4.4046631,13.6138916h12.168335l-5.2677002-12.9935303
			l-0.303833-0.7494507C179.0490723,259.9834595,178.7583008,260.1937256,178.4177246,260.2785034z"/>
		<path fill="#5887DA" d="M172.6384277,273.4395752h-4.1026611c0,0,1.9532471,6.4934082,9.5543213,6.7255859
			c7.6010742,0.2321167,9.5510254-6.7255859,9.5510254-6.7255859h-2.8343506H172.6384277z"/>
		<path fill="#5887DA" d="M210.2597656,256.0228271l-0.0866699-0.2136841l-0.0734863,0.2271729
			c0.0488281-0.0053101,0.0964355-0.0148315,0.1467285-0.0148315
			C210.2508545,256.0214844,210.255127,256.0227661,210.2597656,256.0228271z"/>
		<path fill="#5887DA" d="M210.8828125,260.1578369l4.8085938,11.8549194h-9.7299805l3.7376709-11.5667114l0.0692139-0.2139893
			c-0.3533936-0.1326294-0.6381836-0.4035645-0.782959-0.7502441l-0.3117676,0.9642334l-3.8978271,12.0543213h12.1672363
			l-5.3684082-13.2357788C211.4841309,259.6531982,211.2265625,259.9747314,210.8828125,260.1578369z"/>
		<path fill="#5887DA" d="M200.6694336,272.5003662c0,0,1.956543,6.4934082,9.5576172,6.7290039
			c7.5977783,0.2321777,9.5478516-6.7290039,9.5478516-6.7290039h-2.8319092h-12.1672363H200.6694336z"/>
		<path fill="#5887DA" d="M177.9140625,260.3050537c0.0581055,0.0075073,0.1156006,0.0177002,0.1760254,0.0177002
			c0.0006104,0,0.0012207-0.0001831,0.0018311-0.0001831c0.112793-0.0001221,0.2208252-0.0179443,0.3258057-0.0440674
			c0.3405762-0.0847778,0.6313477-0.2950439,0.8175049-0.5819092c0.1387939-0.2137451,0.2213135-0.4672852,0.2213135-0.7402954
			v-0.7851562v-0.7801514c0-0.7559814-0.6136475-1.3695068-1.3664551-1.3695068
			c-0.7595215,0-1.3662109,0.6135254-1.3662109,1.3695068v1.5653076c0,0.3317261,0.1225586,0.6323242,0.3192139,0.8693848
			C177.2573242,260.0838623,177.5625,260.2596436,177.9140625,260.3050537z"/>
		<path fill="#5887DA" d="M208.9853516,259.4818115c0.1447754,0.3466797,0.4295654,0.6176147,0.782959,0.7502441
			c0.1491699,0.0560303,0.309082,0.0906982,0.4780273,0.0906982c0.0002441,0,0.0004883-0.000061,0.0007324-0.000061
			c0.2307129-0.0001221,0.4449463-0.0631714,0.6357422-0.164856c0.34375-0.1831055,0.6013184-0.5046387,0.6917725-0.8932495
			c0.0230713-0.0994873,0.038208-0.2019043,0.038208-0.3082886v-1.5653076c0-0.7513428-0.6065674-1.3607178-1.3530273-1.3681641
			c-0.0046387-0.000061-0.0089111-0.0013428-0.0134277-0.0013428c-0.050293,0-0.0979004,0.0095215-0.1467285,0.0148315
			c-0.685791,0.0742188-1.2196045,0.6489868-1.2196045,1.3546753v0.7801514v0.7851562
			C208.8800049,259.1424561,208.9177246,259.3198853,208.9853516,259.4818115z"/>
		<path fill="#5887DA" d="M194.2375488,265.805542c0.3029785,0,0.5895996-0.0620117,0.8579102-0.1611328
			c0.9453125-0.3493042,1.6229248-1.2493286,1.6229248-2.3162231v-2.8821411v-2.2749023v-2.7755127
			c0-1.366272-1.1109619-2.473877-2.480835-2.473877c-1.3662109,0-2.4772949,1.107605-2.4772949,2.473877v2.7755127v2.2749023
			v2.8821411c0,0.5887451,0.2138672,1.1218262,0.5563965,1.5465698
			C192.7711182,265.4381714,193.4586182,265.805542,194.2375488,265.805542z"/>
		<path fill="#AE841F" d="M241.0917969,72.6196899l-0.961792,0.1657715
			c1.5355225,9.0834961,7.2860107,17.2019043,12.1678467,22.6838379
			c-9.5410156-1.3762207-16.7606201-10.9473267-24.3818359-21.0521851
			c-9.6539307-12.8010254-19.6391602-26.036438-35.4481201-23.7780762l0.1392822,0.9650879
			c15.2186279-2.178772,25.0447998,10.8244629,34.5327148,23.3999634
			c8.0888672,10.7285156,15.7327881,20.8599243,26.3453369,21.5695801l1.2237549,0.0827637l-0.8327637-0.9019165
			C248.918335,90.382019,242.677124,82.0082397,241.0917969,72.6196899z"/>
		<path fill="#FFB98E" d="M86.9820557,166.8596802v7.7558594l6.9437256-0.9682617l-0.9018555-8.6516113
			C91.7070312,166.6154175,89.7478027,167.4619751,86.9820557,166.8596802z"/>
		<path fill="#DFE8EF" d="M163.2635498,238.3145752v-13.8657837l-10.9613037,0.5650024c0,0,1.126709-3.0236206,3.0565186-7.3731079
			c-1.5684814,2.4886475-3.3465576,5.03479-5.3131104,7.4335327c-7.2883301,8.8898926-17.1616211,15.7501831-28.5217285,10.1098022
			c-22.1994629-11.0169067-25.9006348-61.7734375-25.9006348-61.7734375l-1.6975098,0.2366943l-6.9437256,0.9682617v16.9436035
			h-4.1234131c4.932373,22.6740723,17.2706299,61.4700928,43.9648438,61.4700928
			c23.7366943,0,33.6821289-11.0263062,35.9243164-13.9853516
			C163.0949707,238.5856323,163.2635498,238.3145752,163.2635498,238.3145752z"/>
		<path fill="#673918" d="M76.9431152,145.8412476c0.1809082-0.0213623,0.3665771-0.0269775,0.5537109-0.0249634
			c0.029541-0.0206299,0.060791-0.0402832,0.0905762-0.06073C77.3768311,145.7869873,77.177124,145.8258057,76.9431152,145.8412476z
			"/>
		<path fill="#673918" d="M80.3383789,144.3678589c2.1477051-0.7782593,4.5825195-1.1097412,6.5693359-0.8084106
			c0.0253906,0.0038452,0.0490723,0.0108032,0.0743408,0.0148926v-17.4633179H76.668335v14.6246948
			C79.847168,139.9788208,81.6213379,142.592041,80.3383789,144.3678589z"/>
		<path fill="#673918" d="M86.9820557,174.6155396v-7.7558594c-0.2713623-0.059082-0.5499268-0.1310425-0.8370361-0.2186279
			c-3.6113281-1.1043701-6.019043-4.2316284-4.6726074-8.0388794c0.1357422-0.3978882,4.3808594-7.0637817,3.177002-7.1500244
			c-1.8994141-0.1381226-3.8585205,0.7183228-5.657959,0.607666c-0.7351074,0.2280884-1.5426025,0.3883057-2.3231201,0.5154419
			v0.0814819c2.6182861-0.4127808,5.5794678-0.5596924,5.1101074,2.4902954
			c-0.2976074,1.8966675-2.8654785,2.6862793-5.1101074,2.8395386v0.2902222
			c3.3812256,0.9480591,6.7537842,3.2401123,1.6842041,5.8043213c-0.5500488,0.2788086-1.1153564,0.4077148-1.6842041,0.4393311
			v27.0386963h6.1903076h4.1234131V174.6155396z"/>
		<path fill="#FFB98E" d="M80.3383789,144.3678589c-0.47229,0.6537476-1.3638916,1.1807861-2.7509766,1.3876953
			c-0.0297852,0.0204468-0.0610352,0.0401001-0.0905762,0.06073c2.3146973,0.0250854,4.9550781,1.7946167,4.0559082,4.362915
			c-0.3320312,0.9368896-1.3452148,1.5032959-2.5612793,1.8806152c1.7994385,0.1106567,3.7585449-0.7457886,5.657959-0.607666
			c1.2038574,0.0862427-3.0412598,6.7521362-3.177002,7.1500244c-1.3464355,3.807251,1.0612793,6.9345093,4.6726074,8.0388794
			c0.2871094,0.0875854,0.5656738,0.1595459,0.8370361,0.2186279c2.7657471,0.6022949,4.7249756-0.2442627,6.0418701-1.8640137
			c2.8000488-3.4435425,2.6936035-10.3846436,1.2329102-14.3560181c-1.1793213-3.2145386-3.5964355-6.4689331-7.2747803-7.0653076
			c-0.0252686-0.0040894-0.0489502-0.0110474-0.0743408-0.0148926
			C84.9208984,143.2581177,82.486084,143.5895996,80.3383789,144.3678589z"/>
		<path fill="#FFB98E" d="M76.668335,158.2767944c-0.3797607-0.1064453-0.7584229-0.1953125-1.1263428-0.2662964
			c0.3574219,0.0096436,0.7353516,0.0027466,1.1263428-0.0239258c2.2446289-0.1532593,4.8125-0.9428711,5.1101074-2.8395386
			c0.4693604-3.0499878-2.4918213-2.9030762-5.1101074-2.4902954c-1.2476807,0.1967163-2.418335,0.4529419-3.1011963,0.4539795
			c0.6669922-0.2064209,1.8459473-0.3309937,3.1011963-0.5354614c0.7805176-0.1271362,1.5880127-0.2873535,2.3231201-0.5154419
			c1.2160645-0.3773193,2.229248-0.9437256,2.5612793-1.8806152c0.8991699-2.5682983-1.7412109-4.3378296-4.0559082-4.362915
			c-0.1871338-0.0020142-0.3728027,0.0036011-0.5537109,0.0249634c0.2340088-0.0154419,0.4337158-0.0542603,0.6442871-0.0856934
			c1.387085-0.2069092,2.2786865-0.7339478,2.7509766-1.3876953c1.282959-1.7758179-0.4912109-4.3890381-3.6700439-3.6321411
			c-0.1588135,0.0378418-0.3123779,0.062561-0.4779053,0.1178589l-0.2851562-0.4013672
			c-10.4433594-2.2484131-10.8679199,12.8012085-7.282959,18.5020142c1.520752,2.4188232,4.8458252,5.7440796,8.0460205,5.5662231
			c0.5688477-0.0316162,1.1341553-0.1605225,1.6842041-0.4393311
			C83.4221191,161.5169067,80.0495605,159.2248535,76.668335,158.2767944z"/>
		<rect x="92.8156738" y="101.7459106" fill="#673918" width="7.5046387" height="24.3651123"/>
		<polygon fill="#673918" points="91.3532715,126.1110229 91.3532715,101.7459106 73.0600586,101.7459106 73.0600586,126.1110229 
			76.668335,126.1110229 86.9820557,126.1110229 		"/>
		<rect x="63.3564453" y="101.7459106" fill="#673918" width="8.2412109" height="24.3651123"/>
		<polygon fill="#AE841F" points="63.3564453,97.3319092 56.9060059,97.3319092 56.9060059,130.0210571 63.3564453,130.0210571 
			63.3564453,126.1110229 63.3564453,101.7459106 		"/>
		<polygon fill="#AE841F" points="100.3203125,130.0210571 106.7773438,130.0210571 106.7773438,97.3319092 100.3203125,97.3319092 
			100.3203125,101.7459106 100.3203125,126.1110229 		"/>
		<polygon fill="#AE841F" points="71.5976562,101.7459106 71.5976562,126.1110229 71.5976562,126.3432007 73.0600586,126.3432007 
			73.0600586,126.1110229 73.0600586,101.7459106 		"/>
		<polygon fill="#AE841F" points="91.3532715,126.3432007 92.8156738,126.3432007 92.8156738,126.1110229 92.8156738,101.7459106 
			91.3532715,101.7459106 91.3532715,126.1110229 		"/>
		<path fill="#FFFFFF" d="M214.2967529,137.2880859c-6.9586182,2.380188-38.9185791-1.6390991-38.9393311-1.6416626
			l-0.0009766-0.0001221c0.0002441,0.0002441,0.0004883,0.0003662,0.0007324,0.0006104
			C193.4941406,151.4284058,214.2967529,137.2880859,214.2967529,137.2880859z"/>
		<path fill="#DFE8EF" d="M194.1676025,209.0091553c-8.8638916,0.085144-18.5118408-7.6904297-23.0255127-11.8404541
			c-1.6384277-1.5063477-2.6063232-2.5393677-2.6063232-2.5393677c-5.5030518,6.8244019-10.2596436,16.4359741-13.177002,23.0113525
			c-1.9298096,4.3494873-3.0565186,7.3731079-3.0565186,7.3731079l10.9613037-0.5650024l71.7758789-3.699707l0.0018311-0.0001221
			c-3.1503906-15.2419434-15.2683105-24.5209961-15.2683105-24.5209961s-0.5316162,0.496521-1.4672852,1.2871094
			C214.4924316,200.7371826,203.8660889,208.918457,194.1676025,209.0091553z"/>
		<path fill="#DFE8EF" d="M224.6445312,267.9523315c0,0-0.0031738,0.0064087-0.003418,0.0068359
			c-0.0092773,0.019104-0.2421875,0.4949951-0.7058105,1.3141479c-2.4613037,4.3483887-11.5291748,18.4605103-29.3979492,26.4777832
			c-0.8837891,0.3964844-1.7924805,0.7749634-2.7194824,1.1397095c-4.1369629,1.6275024-8.699707,2.9255371-13.7280273,3.7107544
			l0.9053955,6.1564941l1.6346436,11.1166382l0.0002441,0.0018311c0,0,28.1535645-7.0499878,44.0512695-23.5076294
			c3.5113525-3.6348877,6.4238281-7.7286987,8.303833-12.3069458c0.3165283-0.7709961,0.6063232-1.5546265,0.8621826-2.3532715
			C242.5063477,252.6972656,224.6445312,267.9523315,224.6445312,267.9523315z"/>
		<path fill="#AE841F" d="M145.0456543,149.8464355c0.0061035,0.0024414,0.012207,0.0050049,0.0183105,0.0074463
			c5.7836914,2.3512573,10.7780762,4.3842773,12.0848389,14.0679321c0.8988037,6.6393433-0.9849854,12.1708984-2.9748535,18.024292
			c-1.6580811,4.874939-3.3693848,9.9091797-3.3792725,15.6829834l0.9718018,0.0396729
			c0.473999-5.796875,4.0192871-9.1729736,7.7799072-12.7445068c4.1719971-3.9663086,8.4833984-8.0686035,8.4766846-15.7194214
			h-0.9718018c0.003418,7.2327881-4.1619873,11.189209-8.1781006,15.0097046
			c-2.4871826,2.3644409-5.0240479,4.7788086-6.5960693,7.9558716c0.630127-3.472168,1.7409668-6.7255859,2.8220215-9.9093628
			c1.9401855-5.7039795,3.9465332-11.6036987,3.0212402-18.4685669
			c-1.3895264-10.2441406-6.8779297-12.482605-12.6882324-14.8439941c-0.7265625-0.2957764-1.4576416-0.5935669-2.1882324-0.9086914
			c-0.1038818,0.0245972-0.2133789,0.0286255-0.3215332,0.0376587
			C143.8808594,148.15802,144.6921387,148.857605,145.0456543,149.8464355z"/>
		<path fill="#AE841F" d="M171.6376953,52.9503784c4.8851318,12.4230957-20.3820801,35.6342163-28.6861572,43.2583618
			l-0.3116455,0.2918701c-6.0026855,5.5117188-10.9174805,13.5007324-13.1494141,21.3706055
			c-1.8903809,6.649231-2.7492676,16.2664795,3.8470459,24.3219604c2.5148926,3.0701294,5.4334717,4.8511963,8.2861328,6.1860962
			c0.2871094-0.1694336,0.6038818-0.2734375,0.9412842-0.3018188c-0.7808838-0.0654907-1.465332-0.5365601-1.8823242-1.2478027
			c-2.3168945-1.211792-4.5687256-2.7896729-6.5891113-5.2566528c-6.3339844-7.7304077-5.4884033-17.0093994-3.6644287-23.4366455
			c2.1854248-7.7038574,6.9942627-15.5236816,12.8707275-20.9194336l0.3116455-0.2883911
			c9.3223877-8.5562134,34.0621338-31.286438,28.9351807-44.3362427L171.6376953,52.9503784z"/>
		<path fill="#AE841F" d="M254.9162598,149.3648682c1.956543-2.2684326,4.4770508-4.0128174,6.9177246-5.7074585
			c4.3112793-2.9880371,8.7717285-6.0788574,10.1247559-12.0747681c1.7244873-7.684021-2.5437012-13.7827148-6.6756592-19.6791992
			c-0.8392334-1.1906128-1.6282959-2.3180542-2.364624-3.4590454l-0.8156738,0.5339966
			c0.7492676,1.1541138,1.5783691,2.3380737,2.3774414,3.4855347c4.0163574,5.7240601,8.1618652,11.6436157,6.5266113,18.9031372
			c-1.2698975,5.6277466-5.3820801,8.4732666-9.7299805,11.4910278c-2.4871826,1.7245483-5.0606689,3.508606-7.1035156,5.8665161
			c-0.4244385,0.4905396-0.7834473,1.0210571-1.111084,1.5689697c0.0437012,0.215332,0.0727539,0.4370117,0.0727539,0.6679077
			c0,1.1514893-0.5799561,2.1370239-1.4144287,2.6071777c-0.1201172,0.4682617-0.2188721,0.9432373-0.2921143,1.4279175
			c0.3305664,0.1293335,0.6292725,0.3322754,0.8818359,0.5993652
			C252.5953369,153.2710571,253.4106445,151.1029663,254.9162598,149.3648682z"/>
		<path fill="#AE841F" d="M258.52771,171.9657593c-3.2301025-2.8655396-5.5584717-7.5053101-6.1750488-12.1188354
			c-0.2454834,0.2713623-0.5386963,0.4802246-0.862915,0.618042c0.744873,4.6934204,3.1230469,9.3323975,6.3911133,12.2335205
			c3.1672363,2.809082,6.5993652,3.5120239,9.7069092,2.1291504c-3.137085,2.7692261-6.6225586,3.2633057-9.2657471,3.0742798
			c-6.3771973-0.4378052-13.1228027-5.2597046-16.0476074-11.4679565l-0.9287109,0.1692505
			c-0.1359863,1.9067383-0.1789551,3.7440186-0.2158203,5.5216064c-0.1424561,6.5065918-0.2683105,12.1644287-5.3125,17.3178711
			c-0.3348389-7.7734985-8.6390381-20.130188-14.7446289-23.3635254l-0.3546143-0.1858521l-0.2521973,0.3052368
			c-0.7460938,0.9019775-1.552124,2.1986084-2.4871826,3.7044067c-2.8387451,4.5797729-6.3837891,10.2805786-10.5825195,8.6057739
			l-0.3613281,0.9053955c4.9644775,1.9765625,8.8977051-4.3641968,11.776123-8.9938354
			c0.776001-1.2503052,1.5091553-2.4376221,2.1556396-3.2833252c6.0489502,3.5254517,14.3863525,16.3861694,13.8624268,23.4299316
			l-0.0893555,1.2270508l0.9051514-0.8291016c6.168335-5.647522,6.3076172-11.7496948,6.4602051-18.8167114
			c0.0262451-1.2205811,0.0531006-2.4642334,0.1125488-3.7376099c3.40625,5.8201904,9.7733154,10.0385132,16.0412598,10.4629517
			c5.2498779,0.3649902,9.8262939-2.0296021,12.8840332-6.7320557l-0.769165-0.593689
			C266.8780518,175.3913574,262.5634766,175.5472412,258.52771,171.9657593z"/>
		<path fill="#FFCD00" d="M250.6376953,130.5339355c-1.373291,0-2.4904785,1.3033447-2.4904785,2.9083252
			c0,0.1782227,0.0185547,0.3509521,0.0449219,0.5203247c0.2111816,1.3563843,1.2248535,2.3881226,2.4455566,2.3881226
			c1.3796387,0,2.4973145-1.3033447,2.4973145-2.9084473c0-0.7769165-0.2657471-1.479187-0.6923828-2.0010986
			C251.987793,130.8848267,251.3493652,130.5339355,250.6376953,130.5339355z"/>
		<path fill="#FFCD00" d="M250.8166504,148.0774536c1.2944336-0.1083374,2.3183594-1.347168,2.3183594-2.8808594
			c0-1.6049805-1.1176758-2.9082642-2.4973145-2.9082642c-1.373291,0-2.4904785,1.3032837-2.4904785,2.9082642
			c0,1.5336914,1.0234375,2.772522,2.3120117,2.8808594c0.0600586-0.0050659,0.1173096-0.0209961,0.1784668-0.0209961
			C250.6989746,148.0564575,250.7564697,148.0723877,250.8166504,148.0774536z"/>
		<path fill="#E3E7ED" d="M250.6376953,142.2872925c1.3796387,0,2.4973145-1.3033447,2.4973145-2.9085083
			c0-1.6049194-1.1176758-2.9050293-2.4973145-2.9050293c-1.373291,0-2.4904785,1.3001099-2.4904785,2.9050293
			C248.1472168,140.9839478,249.2644043,142.2872925,250.6376953,142.2872925z"/>
		<path fill="#FFCD00" d="M253.1350098,150.9614868c0-0.230896-0.0290527-0.4525757-0.0727539-0.6679077
			c-0.246582-1.2147827-1.1459961-2.1239014-2.2456055-2.2161255c-0.0601807-0.0050659-0.1176758-0.0209961-0.1789551-0.0209961
			c-0.0611572,0-0.1184082,0.0159302-0.1784668,0.0209961c-1.2885742,0.1085815-2.3120117,1.3504639-2.3120117,2.8840332
			c0,1.6051636,1.1171875,2.9052734,2.4904785,2.9052734c0.3898926,0,0.7541504-0.112854,1.0828857-0.2980957
			C252.5550537,153.0985107,253.1350098,152.1129761,253.1350098,150.9614868z"/>
		<path fill="#FFCD00" d="M253.1350098,157.7417603c0-0.8532104-0.3215332-1.6135864-0.824707-2.145813
			c-0.2525635-0.2670898-0.5512695-0.4700317-0.8818359-0.5993652c-0.2498779-0.0977783-0.5126953-0.1630859-0.7907715-0.1630859
			c-1.373291,0-2.4904785,1.3032837-2.4904785,2.9082642c0,1.6051025,1.1171875,2.9084473,2.4904785,2.9084473
			c0.3006592,0,0.5849609-0.0717773,0.8520508-0.1852417c0.3242188-0.1378174,0.6174316-0.3466797,0.862915-0.618042
			C252.8322754,159.3167725,253.1350098,158.5720215,253.1350098,157.7417603z"/>
		<path fill="#FFCD00" d="M142.7436523,130.5339355c-1.1054688,0-2.0330811,0.8465576-2.3596191,2.0090942
			c-0.0800781,0.2848511-0.1342773,0.583374-0.1342773,0.899231c0,1.6051025,1.1174316,2.9084473,2.4938965,2.9084473
			c1.3762207,0,2.4938965-1.3033447,2.4938965-2.9084473c0-0.0491943-0.0102539-0.0949707-0.0124512-0.1435547
			C145.1595459,131.7617798,144.0776367,130.5339355,142.7436523,130.5339355z"/>
		<path fill="#FFCD00" d="M142.5649414,148.0774536c0.0601807-0.0050659,0.1175537-0.0209961,0.1787109-0.0209961
			c0.0612793,0,0.1186523,0.0159302,0.1787109,0.0209961c0.1081543-0.0090332,0.2176514-0.0130615,0.3215332-0.0376587
			c1.1369629-0.2692871,1.9936523-1.4379272,1.9936523-2.8432007c0-1.6049805-1.1176758-2.9082642-2.4938965-2.9082642
			c-1.3764648,0-2.4938965,1.3032837-2.4938965,2.9082642c0,0.6063843,0.1601562,1.1680298,0.4328613,1.6330566
			C141.0996094,147.5408936,141.7840576,148.0119629,142.5649414,148.0774536z"/>
		<path fill="#E3E7ED" d="M142.7436523,142.2872925c1.3762207,0,2.4938965-1.3033447,2.4938965-2.9085083
			c0-1.6049194-1.1176758-2.9050293-2.4938965-2.9050293c-1.3764648,0-2.4938965,1.3001099-2.4938965,2.9050293
			C140.2497559,140.9839478,141.3671875,142.2872925,142.7436523,142.2872925z"/>
		<path fill="#FFCD00" d="M142.9223633,148.0774536c-0.0600586-0.0050659-0.1174316-0.0209961-0.1787109-0.0209961
			c-0.0611572,0-0.1185303,0.0159302-0.1787109,0.0209961c-0.3374023,0.0283813-0.6541748,0.1323853-0.9412842,0.3018188
			c-0.8116455,0.479126-1.3739014,1.4494019-1.3739014,2.5822144c0,1.6051636,1.1174316,2.9052734,2.4938965,2.9052734
			c1.3762207,0,2.4938965-1.3001099,2.4938965-2.9052734c0-0.3953857-0.0690918-0.7715454-0.1918945-1.1150513
			C144.6921387,148.857605,143.8808594,148.15802,142.9223633,148.0774536z"/>
		<path fill="#FFCD00" d="M142.7436523,154.8334961c-1.3764648,0-2.4938965,1.3032837-2.4938965,2.9082642
			c0,1.6051025,1.1174316,2.9084473,2.4938965,2.9084473c1.3762207,0,2.4938965-1.3033447,2.4938965-2.9084473
			C145.2375488,156.1367798,144.119873,154.8334961,142.7436523,154.8334961z"/>
	</g>
	<path fill="#0675DE" d="M178.1367188,356.2744141C79.9121094,356.2744141,0,276.3623047,0,178.137207S79.9121094,0,178.1367188,0
		c98.2255859,0,178.1376953,79.9121094,178.1376953,178.137207S276.3623047,356.2744141,178.1367188,356.2744141z M178.1367188,5
		C82.6689453,5,5,82.6689453,5,178.137207s77.6689453,173.137207,173.1367188,173.137207
		c95.46875,0,173.1376953-77.6689453,173.1376953-173.137207S273.6054688,5,178.1367188,5z"/>
</g>
</svg>
