<?xml version="1.0" encoding="utf-8"?>
<!-- Generator: Adobe Illustrator 25.0.0, SVG Export Plug-In . SVG Version: 6.00 Build 0)  -->
<svg version="1.1" id="Capa_1" xmlns="http://www.w3.org/2000/svg" xmlns:xlink="http://www.w3.org/1999/xlink" x="0px" y="0px"
	 viewBox="0 0 204.09 96.38" style="enable-background:new 0 0 204.09 96.38;" xml:space="preserve">
<style type="text/css">
	.st0{fill:#FFFFFF;}
	.st1{fill:#FFFFFF;stroke:#FFFFFF;stroke-miterlimit:10;}
	.st2{fill:none;stroke:#FFFFFF;stroke-width:0.112;stroke-miterlimit:3.864;}
	.st3{fill:#00B271;}
	.st4{fill:#FFFFFF;stroke:#FFFFFF;stroke-width:0.112;stroke-miterlimit:3.864;}
	.st5{fill:none;}
	.st6{fill:none;stroke:#FFFFFF;stroke-width:0.325;}
</style>
<g>
	<path class="st0" d="M45.87,71.29l0.05-0.37L45.9,70.9c-0.06,0.04-0.12,0.1-0.21,0.16c-0.08,0.06-0.17,0.11-0.27,0.17
		c-0.1,0.05-0.21,0.09-0.33,0.13c-0.12,0.04-0.25,0.06-0.39,0.06c-0.23,0-0.45-0.04-0.65-0.12c-0.2-0.08-0.37-0.2-0.52-0.36
		c-0.15-0.17-0.26-0.37-0.34-0.62c-0.08-0.25-0.12-0.55-0.12-0.89c0-0.34,0.04-0.64,0.12-0.88c0.08-0.25,0.2-0.46,0.34-0.62
		c0.15-0.17,0.33-0.29,0.52-0.37c0.2-0.08,0.42-0.12,0.65-0.12c0.14,0,0.27,0.02,0.39,0.06c0.12,0.04,0.23,0.08,0.32,0.14
		c0.1,0.06,0.18,0.12,0.25,0.18c0.07,0.06,0.13,0.12,0.17,0.17l0.04-0.01c0.01-0.07,0.03-0.15,0.05-0.25
		c0.02-0.1,0.04-0.18,0.08-0.24c-0.17-0.08-0.36-0.14-0.58-0.2c-0.21-0.06-0.45-0.09-0.71-0.09c-0.33,0-0.63,0.05-0.9,0.15
		c-0.27,0.1-0.51,0.24-0.71,0.43c-0.19,0.19-0.35,0.42-0.46,0.7c-0.11,0.27-0.16,0.58-0.16,0.93c0,0.35,0.05,0.66,0.16,0.94
		c0.11,0.27,0.26,0.5,0.45,0.69c0.19,0.19,0.42,0.33,0.69,0.43c0.27,0.09,0.56,0.14,0.87,0.14c0.15,0,0.29-0.01,0.42-0.04
		c0.14-0.03,0.26-0.05,0.36-0.08c0.11-0.03,0.2-0.07,0.28-0.1C45.77,71.36,45.83,71.32,45.87,71.29"/>
	<path class="st0" d="M50.1,71.62h0.08v-0.2c0-0.1,0-0.21-0.01-0.35c0-0.14,0-0.28-0.01-0.43c0-0.16,0-0.31-0.01-0.46v-0.44v-0.37
		c0-0.12,0-0.28,0.01-0.48c0.01-0.2,0.02-0.4,0.02-0.6c0.01-0.21,0.02-0.4,0.03-0.58c0.01-0.18,0.02-0.32,0.03-0.41
		c-0.08,0.02-0.14,0.03-0.19,0.03c-0.06,0-0.12-0.01-0.2-0.03c0.02,0.36,0.03,0.75,0.04,1.16c0.01,0.41,0.01,0.83,0.01,1.26v0.84
		c-0.18-0.19-0.4-0.42-0.64-0.69c-0.24-0.27-0.5-0.56-0.77-0.86c-0.27-0.3-0.54-0.61-0.82-0.92c-0.27-0.31-0.53-0.61-0.77-0.88h-0.1
		c0.01,0.14,0.01,0.35,0.01,0.64c0,0.28,0.01,0.62,0.01,1.02c0,0.14,0,0.29-0.01,0.46c0,0.17-0.01,0.35-0.02,0.53
		c0,0.18-0.01,0.36-0.02,0.54c-0.01,0.18-0.02,0.35-0.02,0.51c-0.01,0.15-0.02,0.29-0.03,0.4c-0.01,0.11-0.01,0.19-0.02,0.23
		c0.07-0.01,0.14-0.01,0.22-0.01c0.08,0,0.15,0,0.21,0.01c0-0.03-0.01-0.09-0.01-0.19c0-0.09-0.01-0.2-0.01-0.33
		c0-0.12-0.01-0.26-0.01-0.4c0-0.15-0.01-0.29-0.01-0.43c0-0.14,0-0.27-0.01-0.4v-0.32c0-0.33,0-0.6,0.01-0.79
		c0-0.19,0.01-0.35,0.01-0.46c0.51,0.57,1.03,1.14,1.54,1.72C49.16,70.51,49.65,71.08,50.1,71.62"/>
	<path class="st0" d="M54.66,71.54c-0.05-0.01-0.11-0.01-0.16-0.01h-0.16h-0.16c-0.05,0-0.1,0-0.15,0.01
		c-0.03-0.09-0.07-0.21-0.11-0.34c-0.05-0.14-0.1-0.28-0.16-0.42c-0.06-0.15-0.11-0.3-0.17-0.45c-0.06-0.15-0.12-0.3-0.17-0.43
		c-0.13,0-0.26-0.01-0.39-0.01c-0.13,0-0.26-0.01-0.39-0.01c-0.12,0-0.24,0-0.36,0.01c-0.12,0-0.24,0-0.36,0.01
		c-0.13,0.32-0.24,0.63-0.34,0.92c-0.1,0.29-0.18,0.53-0.23,0.72c-0.07-0.01-0.14-0.01-0.22-0.01c-0.08,0-0.15,0-0.22,0.01
		c0.32-0.72,0.63-1.44,0.94-2.15c0.31-0.71,0.61-1.44,0.92-2.18h0.11c0.1,0.24,0.2,0.5,0.31,0.78c0.11,0.28,0.22,0.56,0.34,0.84
		c0.11,0.28,0.23,0.57,0.34,0.85c0.12,0.28,0.22,0.54,0.32,0.79c0.1,0.24,0.19,0.45,0.27,0.64C54.54,71.3,54.61,71.44,54.66,71.54
		 M52.03,69.62c0.1,0,0.21,0,0.32,0.01c0.11,0,0.22,0.01,0.32,0.01H53c0.11,0,0.22-0.01,0.33-0.01l-0.66-1.57L52.03,69.62z"/>
</g>
<rect x="55.01" y="69.91" class="st0" width="1.48" height="0.38"/>
<g>
	<path class="st0" d="M60.39,71.29l0.05-0.37l-0.02-0.02c-0.06,0.04-0.12,0.1-0.21,0.16c-0.08,0.06-0.17,0.11-0.27,0.17
		c-0.1,0.05-0.21,0.09-0.33,0.13c-0.12,0.04-0.25,0.06-0.39,0.06c-0.23,0-0.45-0.04-0.65-0.12c-0.2-0.08-0.37-0.2-0.52-0.36
		c-0.15-0.17-0.26-0.37-0.34-0.62c-0.08-0.25-0.12-0.55-0.12-0.89c0-0.34,0.04-0.64,0.12-0.88c0.08-0.25,0.2-0.46,0.34-0.62
		c0.15-0.17,0.32-0.29,0.52-0.37c0.2-0.08,0.42-0.12,0.65-0.12c0.14,0,0.27,0.02,0.39,0.06c0.12,0.04,0.23,0.08,0.32,0.14
		c0.1,0.06,0.18,0.12,0.25,0.18c0.07,0.06,0.13,0.12,0.17,0.17l0.04-0.01c0.01-0.07,0.03-0.15,0.05-0.25
		c0.02-0.1,0.04-0.18,0.08-0.24c-0.17-0.08-0.36-0.14-0.58-0.2c-0.21-0.06-0.45-0.09-0.71-0.09c-0.33,0-0.63,0.05-0.9,0.15
		c-0.27,0.1-0.51,0.24-0.71,0.43c-0.2,0.19-0.35,0.42-0.46,0.7c-0.11,0.27-0.16,0.58-0.16,0.93c0,0.35,0.05,0.66,0.16,0.94
		c0.11,0.27,0.26,0.5,0.45,0.69c0.19,0.19,0.42,0.33,0.69,0.43c0.27,0.09,0.56,0.14,0.87,0.14c0.15,0,0.29-0.01,0.42-0.04
		c0.14-0.03,0.26-0.05,0.36-0.08c0.11-0.03,0.2-0.07,0.28-0.1C60.29,71.36,60.35,71.32,60.39,71.29"/>
	<path class="st0" d="M61.2,68.66v1.12c0,0.14,0,0.29-0.01,0.46c0,0.17,0,0.33-0.01,0.49c0,0.16-0.01,0.31-0.02,0.46
		c0,0.14-0.01,0.26-0.02,0.36c0.09-0.01,0.18-0.01,0.27-0.01s0.18,0,0.27,0.01c-0.01-0.09-0.02-0.21-0.02-0.35
		c0-0.14-0.01-0.29-0.01-0.45c0-0.16-0.01-0.31-0.01-0.46v-0.4c0-0.32,0.06-0.57,0.19-0.75c0.13-0.18,0.33-0.27,0.61-0.27
		c0.2,0,0.36,0.08,0.48,0.24c0.11,0.16,0.17,0.39,0.17,0.7v0.38c0,0.24-0.01,0.47-0.02,0.7c-0.01,0.23-0.02,0.45-0.02,0.66
		c0.08-0.01,0.16-0.01,0.24-0.01c0.09,0,0.17,0,0.25,0.01c0-0.06-0.01-0.12-0.01-0.18v-0.2v-0.4c0-0.21,0-0.41,0.01-0.59
		c0.01-0.19,0.01-0.37,0.01-0.55c0-0.21-0.03-0.39-0.09-0.52c-0.06-0.14-0.13-0.25-0.22-0.33c-0.09-0.08-0.19-0.14-0.31-0.17
		c-0.11-0.03-0.22-0.05-0.33-0.05c-0.21,0-0.4,0.05-0.55,0.15c-0.15,0.09-0.29,0.23-0.4,0.41h-0.01v-0.47v-0.45
		c0-0.16,0.01-0.32,0.01-0.48c0-0.16,0.01-0.31,0.01-0.46c0.01-0.14,0.02-0.27,0.02-0.37c-0.11,0.02-0.2,0.03-0.27,0.03
		c-0.07,0-0.16-0.01-0.27-0.03c0.01,0.1,0.01,0.23,0.02,0.38c0.01,0.14,0.01,0.3,0.02,0.46c0,0.16,0.01,0.32,0.01,0.49
		C61.19,68.37,61.2,68.52,61.2,68.66"/>
	<path class="st0" d="M64.6,69.76v0.64c0,0.18,0,0.38-0.01,0.59c0,0.2-0.02,0.38-0.04,0.55c0.09-0.01,0.18-0.01,0.27-0.01
		s0.18,0,0.27,0.01c-0.02-0.17-0.03-0.35-0.04-0.55c0-0.21-0.01-0.4-0.01-0.59v-0.64c0-0.19,0-0.38,0.01-0.58
		c0.01-0.21,0.02-0.4,0.04-0.58c-0.11,0.02-0.2,0.03-0.27,0.03s-0.16-0.01-0.27-0.03c0.02,0.18,0.03,0.37,0.04,0.58
		C64.6,69.38,64.6,69.58,64.6,69.76 M64.52,67.53c0,0.09,0.03,0.16,0.09,0.22c0.06,0.06,0.13,0.09,0.21,0.09s0.15-0.03,0.21-0.09
		c0.06-0.06,0.09-0.14,0.09-0.22c0-0.09-0.03-0.16-0.09-0.22c-0.06-0.06-0.13-0.09-0.21-0.09s-0.16,0.03-0.21,0.09
		C64.55,67.37,64.52,67.44,64.52,67.53"/>
	<path class="st0" d="M66.26,68.66v1.12c0,0.14,0,0.29-0.01,0.46c0,0.17,0,0.33-0.01,0.49c0,0.16-0.01,0.31-0.02,0.46
		c0,0.14-0.01,0.26-0.02,0.36c0.09-0.01,0.18-0.01,0.27-0.01c0.09,0,0.18,0,0.27,0.01c-0.01-0.1-0.02-0.21-0.02-0.36
		c0-0.14-0.01-0.3-0.01-0.46c0-0.16-0.01-0.32-0.01-0.49v-0.46v-1.12V68.2c0-0.16,0.01-0.33,0.01-0.49c0-0.16,0.01-0.31,0.01-0.46
		c0.01-0.15,0.02-0.27,0.02-0.38c-0.11,0.02-0.2,0.03-0.27,0.03c-0.07,0-0.16-0.01-0.27-0.03c0.01,0.1,0.01,0.23,0.02,0.38
		c0.01,0.14,0.01,0.3,0.02,0.46c0,0.16,0.01,0.32,0.01,0.49C66.25,68.37,66.26,68.52,66.26,68.66"/>
	<path class="st0" d="M67.51,70.17c0,0.21,0.03,0.4,0.1,0.58c0.07,0.18,0.17,0.33,0.3,0.46c0.13,0.13,0.28,0.23,0.46,0.3
		c0.18,0.07,0.37,0.1,0.59,0.1c0.19,0,0.37-0.03,0.55-0.1c0.18-0.07,0.33-0.15,0.44-0.25l0.04-0.3l-0.03-0.02
		c-0.05,0.06-0.11,0.12-0.18,0.17c-0.07,0.05-0.14,0.1-0.22,0.14c-0.08,0.04-0.16,0.07-0.24,0.09c-0.08,0.02-0.17,0.03-0.24,0.03
		c-0.17,0-0.31-0.03-0.44-0.09c-0.13-0.06-0.23-0.14-0.32-0.24c-0.09-0.1-0.15-0.23-0.2-0.37c-0.04-0.14-0.06-0.29-0.06-0.45v-0.08
		c0-0.04,0-0.07,0.01-0.09c0.13,0,0.26-0.01,0.39-0.01c0.13,0,0.26-0.01,0.39-0.01c0.21,0,0.43,0,0.64,0.01
		c0.21,0,0.42,0.01,0.64,0.01c0-0.04,0.01-0.08,0.01-0.12c0-0.04,0.01-0.08,0.01-0.12c0-0.17-0.03-0.34-0.08-0.49
		c-0.05-0.15-0.12-0.28-0.23-0.4c-0.1-0.12-0.23-0.21-0.39-0.27c-0.15-0.07-0.33-0.11-0.54-0.11c-0.44,0-0.78,0.14-1.02,0.43
		C67.62,69.26,67.51,69.66,67.51,70.17 M68.88,68.74c0.15,0,0.28,0.04,0.37,0.1c0.1,0.07,0.17,0.16,0.22,0.27
		c0.05,0.11,0.09,0.22,0.11,0.35c0.02,0.12,0.03,0.24,0.03,0.35c-0.13,0.01-0.26,0.01-0.39,0.01c-0.14,0-0.27,0.01-0.4,0.01
		c-0.13,0-0.26,0-0.39-0.01c-0.13,0-0.26-0.01-0.38-0.01c0.01-0.11,0.03-0.23,0.06-0.35c0.04-0.13,0.08-0.24,0.15-0.35
		c0.07-0.11,0.15-0.2,0.25-0.27C68.61,68.78,68.73,68.74,68.88,68.74"/>
	<path class="st0" d="M36.3,64.63l-0.02,0.73c0.09-0.01,0.17-0.02,0.25-0.02c0.08,0,0.17,0.01,0.26,0.02c0-0.3-0.01-0.59-0.01-0.87
		c0-0.28-0.01-0.6-0.01-0.96c0-0.33,0-0.69,0.01-1.09c0-0.4,0.01-0.78,0.01-1.16c0.01-0.38,0.02-0.72,0.03-1.03
		c0.01-0.31,0.02-0.55,0.03-0.72c-0.06,0.01-0.11,0.02-0.16,0.03c-0.05,0-0.09,0.01-0.14,0.01c-0.05,0-0.1,0-0.15-0.01
		c-0.05-0.01-0.1-0.02-0.15-0.03c0,0.12,0.01,0.27,0.01,0.42c0,0.16,0.01,0.33,0.01,0.51c0,0.18,0.01,0.37,0.01,0.57
		c0,0.2,0.01,0.39,0.01,0.59v0.76h-0.01c-0.19-0.51-0.53-0.77-1.02-0.77c-0.17,0-0.35,0.04-0.52,0.12c-0.17,0.08-0.32,0.2-0.46,0.36
		c-0.13,0.16-0.24,0.36-0.33,0.6c-0.08,0.24-0.13,0.53-0.13,0.86c0,0.33,0.04,0.62,0.11,0.86c0.08,0.24,0.18,0.43,0.31,0.59
		c0.13,0.15,0.27,0.26,0.43,0.33c0.16,0.07,0.33,0.1,0.5,0.1c0.16,0,0.31-0.03,0.43-0.08c0.12-0.05,0.23-0.12,0.32-0.2
		c0.09-0.08,0.17-0.17,0.23-0.26c0.06-0.1,0.11-0.19,0.15-0.27H36.3z M34.4,63.61c0-0.23,0.02-0.45,0.05-0.65
		c0.04-0.21,0.1-0.38,0.17-0.53c0.08-0.15,0.18-0.27,0.29-0.36c0.12-0.09,0.26-0.13,0.42-0.13c0.32,0,0.56,0.13,0.72,0.39
		c0.16,0.26,0.25,0.63,0.25,1.13c0,0.21-0.02,0.41-0.06,0.62c-0.04,0.21-0.1,0.39-0.18,0.56c-0.08,0.16-0.18,0.29-0.3,0.39
		c-0.12,0.1-0.27,0.15-0.45,0.15c-0.11,0-0.21-0.02-0.33-0.07c-0.11-0.05-0.21-0.13-0.3-0.25c-0.08-0.12-0.15-0.29-0.21-0.49
		C34.43,64.17,34.4,63.92,34.4,63.61"/>
	<path class="st0" d="M37.46,63.65c0,0.26,0.04,0.5,0.11,0.72c0.08,0.22,0.19,0.41,0.33,0.58c0.15,0.16,0.32,0.28,0.51,0.37
		c0.2,0.08,0.42,0.12,0.66,0.12c0.21,0,0.42-0.04,0.61-0.13c0.2-0.09,0.37-0.19,0.5-0.32l0.04-0.38l-0.03-0.02
		c-0.06,0.08-0.13,0.15-0.21,0.22c-0.08,0.07-0.16,0.13-0.25,0.18c-0.09,0.05-0.18,0.08-0.27,0.12c-0.09,0.03-0.18,0.04-0.27,0.04
		c-0.19,0-0.35-0.04-0.49-0.11c-0.14-0.08-0.26-0.18-0.36-0.3c-0.1-0.13-0.17-0.28-0.23-0.46c-0.05-0.17-0.07-0.36-0.07-0.56v-0.1
		c0-0.05,0-0.09,0.01-0.12c0.15-0.01,0.29-0.01,0.43-0.02c0.15,0,0.29-0.01,0.44-0.01c0.24,0,0.48,0,0.71,0.01
		c0.23,0,0.47,0.01,0.71,0.02c0-0.05,0.01-0.1,0.01-0.15c0-0.05,0.01-0.1,0.01-0.16c0-0.22-0.03-0.42-0.09-0.61
		c-0.05-0.19-0.14-0.36-0.25-0.49c-0.11-0.14-0.26-0.26-0.43-0.34c-0.17-0.09-0.37-0.13-0.6-0.13c-0.5,0-0.88,0.18-1.14,0.54
		C37.59,62.52,37.46,63.01,37.46,63.65 M39,61.86c0.17,0,0.31,0.04,0.42,0.13c0.11,0.09,0.19,0.2,0.25,0.33
		c0.06,0.13,0.1,0.28,0.12,0.43c0.02,0.15,0.03,0.3,0.03,0.44c-0.14,0-0.29,0.01-0.44,0.02c-0.15,0-0.3,0.01-0.44,0.01
		c-0.14,0-0.29,0-0.44-0.01c-0.15,0-0.29-0.01-0.43-0.02c0.01-0.14,0.03-0.29,0.07-0.44c0.04-0.16,0.1-0.3,0.17-0.43
		c0.07-0.13,0.17-0.25,0.28-0.33C38.7,61.91,38.83,61.86,39,61.86"/>
	<path class="st0" d="M46.72,65.36c-0.06-0.01-0.12-0.02-0.18-0.02h-0.17h-0.18c-0.05,0-0.11,0-0.17,0.02
		c-0.03-0.12-0.07-0.26-0.13-0.43c-0.05-0.17-0.11-0.34-0.18-0.52c-0.06-0.19-0.13-0.37-0.19-0.56c-0.07-0.19-0.13-0.37-0.19-0.54
		c-0.14-0.01-0.29-0.01-0.43-0.01c-0.15,0-0.29-0.01-0.44-0.01c-0.14,0-0.27,0-0.4,0.01c-0.13,0-0.27,0-0.41,0.01
		c-0.14,0.4-0.27,0.78-0.38,1.15c-0.12,0.36-0.2,0.66-0.26,0.9c-0.07-0.01-0.16-0.02-0.24-0.02c-0.09,0-0.17,0-0.25,0.02
		c0.36-0.9,0.71-1.8,1.05-2.69c0.34-0.89,0.69-1.8,1.03-2.72h0.13c0.11,0.3,0.22,0.62,0.35,0.97c0.12,0.34,0.25,0.7,0.38,1.05
		c0.13,0.36,0.26,0.71,0.39,1.06c0.13,0.35,0.25,0.68,0.36,0.98c0.12,0.3,0.22,0.57,0.31,0.8C46.58,65.06,46.66,65.24,46.72,65.36
		 M43.77,62.96c0.12,0,0.24,0,0.36,0.01c0.12,0,0.24,0.01,0.36,0.01h0.37c0.12,0,0.25-0.01,0.37-0.01L44.5,61L43.77,62.96z"/>
	<path class="st0" d="M47.11,63.54c0,0.35,0.05,0.65,0.14,0.89c0.1,0.24,0.22,0.44,0.38,0.59c0.16,0.15,0.33,0.26,0.52,0.32
		c0.2,0.06,0.39,0.09,0.58,0.09c0.21,0,0.42-0.04,0.61-0.13c0.2-0.09,0.37-0.19,0.5-0.32c0.01-0.13,0.02-0.25,0.04-0.38l-0.03-0.02
		c-0.06,0.08-0.13,0.15-0.21,0.22c-0.08,0.07-0.16,0.13-0.25,0.18c-0.09,0.05-0.18,0.08-0.27,0.12c-0.09,0.03-0.18,0.04-0.27,0.04
		c-0.38,0-0.66-0.13-0.86-0.4c-0.2-0.27-0.29-0.67-0.29-1.21c0-0.24,0.02-0.46,0.06-0.66c0.05-0.21,0.11-0.38,0.2-0.53
		c0.09-0.15,0.21-0.27,0.35-0.35c0.15-0.09,0.32-0.13,0.52-0.13c0.11,0,0.2,0.02,0.29,0.06c0.09,0.04,0.17,0.08,0.24,0.15
		c0.08,0.06,0.14,0.12,0.19,0.19c0.05,0.07,0.09,0.13,0.13,0.2h0.05c0.02-0.09,0.04-0.18,0.06-0.26c0.03-0.09,0.06-0.17,0.09-0.25
		c-0.08-0.09-0.22-0.17-0.42-0.23c-0.19-0.07-0.41-0.11-0.65-0.11c-0.21,0-0.42,0.04-0.62,0.12c-0.2,0.07-0.39,0.19-0.54,0.35
		c-0.16,0.16-0.28,0.35-0.38,0.6C47.16,62.92,47.11,63.2,47.11,63.54"/>
	<path class="st0" d="M52.18,62.33l0.05-0.04c0-0.1,0-0.22,0.01-0.34c0-0.13,0.02-0.22,0.04-0.29c-0.04-0.02-0.08-0.03-0.11-0.04
		c-0.03,0-0.06-0.01-0.1-0.01c-0.32,0-0.62,0.28-0.88,0.83l-0.01-0.01v-0.31c0-0.11,0.02-0.25,0.03-0.44
		c-0.05,0.01-0.1,0.02-0.14,0.03c-0.04,0-0.09,0.01-0.13,0.01c-0.05,0-0.1,0-0.14-0.01c-0.04-0.01-0.09-0.02-0.14-0.03
		c0.01,0.34,0.02,0.64,0.02,0.91c0,0.26,0.01,0.49,0.01,0.69v0.25c0,0.44,0,0.81-0.01,1.11c0,0.3-0.01,0.54-0.02,0.71
		c0.09-0.01,0.18-0.01,0.28-0.01c0.09,0,0.18,0,0.27,0.01c-0.01-0.11-0.02-0.26-0.03-0.44v-0.8v-0.85c0-0.15,0.02-0.29,0.05-0.42
		c0.03-0.13,0.08-0.25,0.13-0.34c0.06-0.1,0.13-0.18,0.21-0.23c0.08-0.06,0.18-0.09,0.29-0.09c0.07,0,0.13,0.01,0.19,0.04
		C52.11,62.27,52.15,62.29,52.18,62.33"/>
	<path class="st0" d="M52.6,63.65c0,0.26,0.04,0.5,0.11,0.72c0.08,0.22,0.19,0.41,0.33,0.58c0.15,0.16,0.32,0.28,0.51,0.37
		c0.2,0.08,0.42,0.12,0.66,0.12c0.21,0,0.42-0.04,0.61-0.13c0.2-0.09,0.37-0.19,0.5-0.32l0.04-0.38l-0.03-0.02
		c-0.06,0.08-0.13,0.15-0.21,0.22c-0.08,0.07-0.16,0.13-0.25,0.18c-0.09,0.05-0.18,0.08-0.27,0.12c-0.09,0.03-0.18,0.04-0.27,0.04
		c-0.19,0-0.35-0.04-0.49-0.11c-0.14-0.08-0.26-0.18-0.36-0.3c-0.1-0.13-0.17-0.28-0.23-0.46c-0.05-0.17-0.07-0.36-0.07-0.56v-0.1
		c0-0.05,0-0.09,0.01-0.12c0.15-0.01,0.29-0.01,0.43-0.02c0.15,0,0.29-0.01,0.44-0.01c0.24,0,0.48,0,0.71,0.01
		c0.23,0,0.47,0.01,0.71,0.02c0-0.05,0.01-0.1,0.01-0.15c0-0.05,0.01-0.1,0.01-0.16c0-0.22-0.03-0.42-0.09-0.61
		c-0.05-0.19-0.14-0.36-0.25-0.49c-0.11-0.14-0.26-0.26-0.43-0.34c-0.17-0.09-0.37-0.13-0.6-0.13c-0.5,0-0.88,0.18-1.14,0.54
		C52.72,62.52,52.6,63.01,52.6,63.65 M54.13,61.86c0.17,0,0.31,0.04,0.42,0.13c0.11,0.09,0.19,0.2,0.25,0.33
		c0.06,0.13,0.1,0.28,0.12,0.43c0.02,0.15,0.03,0.3,0.03,0.44c-0.14,0-0.29,0.01-0.44,0.02c-0.15,0-0.3,0.01-0.44,0.01
		c-0.14,0-0.29,0-0.44-0.01c-0.15,0-0.29-0.01-0.43-0.02c0.01-0.14,0.03-0.29,0.07-0.44c0.04-0.16,0.1-0.3,0.17-0.43
		c0.07-0.13,0.17-0.25,0.28-0.33C53.83,61.91,53.97,61.86,54.13,61.86"/>
	<path class="st0" d="M58.45,64.63l-0.02,0.73c0.09-0.01,0.17-0.02,0.25-0.02c0.08,0,0.17,0.01,0.26,0.02c0-0.3-0.01-0.59-0.01-0.87
		c0-0.28-0.01-0.6-0.01-0.96c0-0.33,0-0.69,0.01-1.09c0-0.4,0.01-0.78,0.01-1.16c0.01-0.38,0.02-0.72,0.03-1.03
		c0.01-0.31,0.02-0.55,0.03-0.72c-0.06,0.01-0.11,0.02-0.16,0.03c-0.04,0-0.09,0.01-0.14,0.01c-0.05,0-0.1,0-0.15-0.01
		c-0.05-0.01-0.1-0.02-0.15-0.03c0,0.12,0.01,0.27,0.01,0.42c0,0.16,0.01,0.33,0.01,0.51c0,0.18,0.01,0.37,0.01,0.57
		c0,0.2,0.01,0.39,0.01,0.59v0.76h-0.01c-0.19-0.51-0.53-0.77-1.02-0.77c-0.17,0-0.35,0.04-0.52,0.12c-0.17,0.08-0.32,0.2-0.46,0.36
		c-0.13,0.16-0.24,0.36-0.33,0.6c-0.08,0.24-0.13,0.53-0.13,0.86c0,0.33,0.04,0.62,0.11,0.86c0.08,0.24,0.18,0.43,0.31,0.59
		c0.13,0.15,0.27,0.26,0.43,0.33c0.16,0.07,0.33,0.1,0.5,0.1c0.16,0,0.31-0.03,0.43-0.08c0.12-0.05,0.23-0.12,0.32-0.2
		c0.09-0.08,0.17-0.17,0.23-0.26c0.06-0.1,0.11-0.19,0.15-0.27H58.45z M56.55,63.61c0-0.23,0.02-0.45,0.05-0.65
		c0.04-0.21,0.1-0.38,0.17-0.53c0.08-0.15,0.18-0.27,0.29-0.36c0.12-0.09,0.26-0.13,0.42-0.13c0.32,0,0.56,0.13,0.72,0.39
		c0.16,0.26,0.24,0.63,0.24,1.13c0,0.21-0.02,0.41-0.06,0.62c-0.04,0.21-0.1,0.39-0.18,0.56c-0.08,0.16-0.18,0.29-0.31,0.39
		c-0.12,0.1-0.27,0.15-0.44,0.15c-0.11,0-0.21-0.02-0.33-0.07c-0.11-0.05-0.21-0.13-0.3-0.25c-0.08-0.12-0.16-0.29-0.21-0.49
		C56.57,64.17,56.55,63.92,56.55,63.61"/>
	<path class="st0" d="M60.06,63.14v0.8c0,0.23,0,0.48-0.01,0.73c0,0.25-0.02,0.48-0.04,0.69c0.1-0.01,0.2-0.02,0.3-0.02
		c0.1,0,0.2,0,0.3,0.02c-0.02-0.21-0.04-0.44-0.05-0.69c0-0.26-0.01-0.5-0.01-0.73v-0.8c0-0.23,0-0.47,0.01-0.73
		c0.01-0.26,0.02-0.5,0.05-0.72c-0.12,0.02-0.22,0.04-0.3,0.04c-0.08,0-0.18-0.01-0.3-0.04c0.02,0.22,0.04,0.46,0.04,0.72
		C60.05,62.66,60.06,62.91,60.06,63.14 M59.96,60.35c0,0.11,0.03,0.2,0.1,0.28c0.07,0.08,0.15,0.12,0.24,0.12
		c0.09,0,0.17-0.04,0.24-0.12c0.07-0.08,0.1-0.17,0.1-0.28c0-0.11-0.03-0.2-0.1-0.28c-0.07-0.08-0.15-0.12-0.24-0.12
		c-0.09,0-0.17,0.04-0.24,0.12C60,60.15,59.96,60.24,59.96,60.35"/>
	<path class="st0" d="M62.3,60.66l-0.55,0.27c0.01,0.16,0.01,0.32,0.01,0.48c0,0.15,0.01,0.28,0.01,0.39
		c-0.09,0-0.24-0.01-0.44-0.02c0,0.03,0.01,0.05,0.01,0.08c0,0.03,0.01,0.05,0.01,0.08c0,0.03,0,0.06-0.01,0.09
		c0,0.03,0,0.05-0.01,0.08c0.04,0,0.09-0.01,0.13-0.01c0.04,0,0.08-0.01,0.11-0.01h0.21c0,0.29,0,0.55-0.01,0.79
		c0,0.23-0.01,0.45-0.02,0.64c0,0.19-0.01,0.37-0.01,0.53c0,0.16-0.01,0.31-0.01,0.45c0,0.31,0.07,0.54,0.2,0.7
		c0.13,0.16,0.34,0.24,0.62,0.24c0.08,0,0.17-0.01,0.26-0.04c0.09-0.02,0.18-0.04,0.25-0.05v-0.19c-0.04,0.02-0.1,0.03-0.16,0.04
		c-0.06,0.01-0.1,0.01-0.14,0.01c-0.13,0-0.23-0.03-0.31-0.1c-0.07-0.07-0.12-0.15-0.16-0.26c-0.04-0.11-0.06-0.24-0.07-0.38
		c0-0.14-0.01-0.28-0.01-0.42v-0.58c0-0.22,0.01-0.42,0.01-0.62c0-0.2,0.01-0.37,0.01-0.52c0.01-0.14,0.02-0.23,0.02-0.25h0.33
		c0.07,0,0.14,0,0.2,0.01c0.06,0,0.12,0,0.18,0.01c0-0.01-0.01-0.04-0.01-0.08v-0.09v-0.08c0-0.04,0-0.07,0.01-0.08
		c-0.16,0.01-0.3,0.02-0.43,0.02h-0.27c0.01-0.19,0.02-0.38,0.02-0.56c0.01-0.19,0.02-0.38,0.03-0.58H62.3z"/>
	<path class="st0" d="M63.64,62.06v0.4h0.07c0.08-0.17,0.19-0.29,0.34-0.39c0.16-0.09,0.32-0.14,0.5-0.14
		c0.13,0,0.25,0.03,0.34,0.08c0.09,0.05,0.17,0.12,0.23,0.21c0.06,0.09,0.1,0.19,0.13,0.31c0.03,0.12,0.04,0.24,0.04,0.37
		c0,0.08-0.01,0.14-0.02,0.19c-0.01,0.05-0.05,0.09-0.12,0.12c-0.06,0.04-0.16,0.07-0.3,0.11c-0.13,0.03-0.32,0.07-0.56,0.12
		c-0.29,0.06-0.52,0.17-0.69,0.34c-0.16,0.17-0.25,0.41-0.25,0.72c0,0.15,0.02,0.28,0.07,0.4c0.05,0.11,0.12,0.21,0.2,0.29
		c0.08,0.08,0.18,0.14,0.29,0.18c0.11,0.04,0.21,0.05,0.33,0.05c0.23,0,0.42-0.04,0.57-0.13c0.16-0.09,0.31-0.22,0.47-0.41
		c0.01,0.13,0.06,0.24,0.13,0.33c0.08,0.08,0.18,0.12,0.33,0.12c0.09,0,0.17-0.01,0.24-0.02c0.08-0.01,0.14-0.04,0.19-0.06V65.1
		c-0.02,0.02-0.05,0.03-0.07,0.03h-0.07c-0.07,0-0.12-0.02-0.15-0.05c-0.03-0.04-0.06-0.08-0.07-0.13
		c-0.02-0.06-0.03-0.12-0.03-0.19v-0.2c0-0.32,0-0.63,0.01-0.92c0.01-0.29,0.01-0.59,0.01-0.88c0-0.17-0.03-0.33-0.08-0.46
		c-0.05-0.14-0.13-0.26-0.22-0.36c-0.09-0.1-0.21-0.18-0.34-0.23c-0.13-0.06-0.28-0.08-0.44-0.08c-0.18,0-0.35,0.03-0.52,0.09
		C64.02,61.77,63.84,61.89,63.64,62.06 M65.28,63.44l-0.03,1.16c-0.08,0.14-0.18,0.27-0.33,0.38c-0.14,0.11-0.29,0.16-0.46,0.16
		c-0.15,0-0.28-0.06-0.4-0.18c-0.12-0.12-0.18-0.31-0.18-0.55c0-0.14,0.02-0.26,0.07-0.36c0.05-0.09,0.11-0.17,0.19-0.23
		c0.08-0.06,0.17-0.11,0.27-0.15c0.1-0.04,0.2-0.06,0.31-0.08c0.1-0.03,0.2-0.05,0.3-0.07C65.12,63.5,65.21,63.47,65.28,63.44"/>
	<path class="st0" d="M66.67,63.54c0,0.35,0.05,0.65,0.14,0.89c0.1,0.24,0.22,0.44,0.38,0.59c0.16,0.15,0.33,0.26,0.52,0.32
		c0.19,0.06,0.39,0.09,0.58,0.09c0.21,0,0.42-0.04,0.61-0.13c0.2-0.09,0.37-0.19,0.5-0.32c0-0.13,0.02-0.25,0.04-0.38l-0.03-0.02
		c-0.06,0.08-0.13,0.15-0.21,0.22c-0.08,0.07-0.16,0.13-0.25,0.18c-0.09,0.05-0.18,0.08-0.27,0.12c-0.09,0.03-0.18,0.04-0.27,0.04
		c-0.38,0-0.66-0.13-0.86-0.4c-0.19-0.27-0.29-0.67-0.29-1.21c0-0.24,0.02-0.46,0.06-0.66c0.04-0.21,0.11-0.38,0.2-0.53
		c0.09-0.15,0.21-0.27,0.35-0.35c0.15-0.09,0.32-0.13,0.52-0.13c0.11,0,0.2,0.02,0.29,0.06c0.09,0.04,0.17,0.08,0.24,0.15
		c0.08,0.06,0.14,0.12,0.19,0.19c0.05,0.07,0.1,0.13,0.13,0.2h0.05c0.02-0.09,0.04-0.18,0.06-0.26c0.03-0.09,0.06-0.17,0.09-0.25
		c-0.08-0.09-0.22-0.17-0.42-0.23c-0.19-0.07-0.41-0.11-0.65-0.11c-0.21,0-0.42,0.04-0.62,0.12c-0.2,0.07-0.39,0.19-0.54,0.35
		c-0.16,0.16-0.28,0.35-0.38,0.6C66.72,62.92,66.67,63.2,66.67,63.54"/>
	<path class="st0" d="M70.39,63.14v0.8c0,0.23,0,0.48-0.01,0.73c0,0.25-0.02,0.48-0.04,0.69c0.1-0.01,0.2-0.02,0.3-0.02
		c0.1,0,0.2,0,0.3,0.02c-0.02-0.21-0.04-0.44-0.05-0.69c0-0.26-0.01-0.5-0.01-0.73v-0.8c0-0.23,0-0.47,0.01-0.73
		c0.01-0.26,0.02-0.5,0.05-0.72c-0.12,0.02-0.22,0.04-0.3,0.04c-0.08,0-0.18-0.01-0.3-0.04c0.02,0.22,0.04,0.46,0.04,0.72
		C70.39,62.66,70.39,62.91,70.39,63.14 M70.3,60.35c0,0.11,0.03,0.2,0.1,0.28c0.07,0.08,0.15,0.12,0.24,0.12
		c0.09,0,0.17-0.04,0.24-0.12c0.07-0.08,0.1-0.17,0.1-0.28c0-0.11-0.03-0.2-0.1-0.28c-0.07-0.08-0.15-0.12-0.24-0.12
		c-0.09,0-0.17,0.04-0.24,0.12C70.33,60.15,70.3,60.24,70.3,60.35"/>
	<path class="st0" d="M71.79,63.54c0,0.35,0.05,0.65,0.14,0.9c0.1,0.24,0.22,0.44,0.38,0.6c0.15,0.15,0.33,0.25,0.52,0.32
		c0.19,0.06,0.39,0.09,0.58,0.09c0.19,0,0.39-0.03,0.58-0.09c0.19-0.06,0.36-0.17,0.52-0.32c0.16-0.16,0.28-0.35,0.37-0.6
		c0.1-0.25,0.15-0.55,0.15-0.9c0-0.35-0.05-0.65-0.15-0.89c-0.09-0.25-0.22-0.45-0.37-0.59c-0.15-0.15-0.33-0.27-0.52-0.33
		c-0.19-0.07-0.38-0.11-0.58-0.11c-0.19,0-0.38,0.04-0.58,0.11c-0.19,0.07-0.36,0.18-0.52,0.33c-0.16,0.15-0.28,0.35-0.38,0.59
		C71.84,62.89,71.79,63.19,71.79,63.54 M72.38,63.54c0-0.22,0.02-0.42,0.05-0.63c0.04-0.2,0.09-0.38,0.17-0.53
		c0.08-0.16,0.19-0.29,0.32-0.38c0.13-0.09,0.3-0.14,0.49-0.14c0.19,0,0.36,0.05,0.49,0.14c0.13,0.09,0.24,0.22,0.32,0.38
		c0.08,0.15,0.14,0.33,0.17,0.53c0.04,0.2,0.05,0.41,0.05,0.63c0,0.22-0.02,0.43-0.05,0.63c-0.03,0.2-0.09,0.38-0.17,0.54
		c-0.08,0.16-0.19,0.28-0.32,0.37c-0.13,0.09-0.3,0.14-0.49,0.14c-0.2,0-0.36-0.05-0.49-0.14c-0.13-0.09-0.24-0.22-0.32-0.37
		c-0.08-0.16-0.14-0.34-0.17-0.54C72.39,63.96,72.38,63.76,72.38,63.54 M73.93,59.88l-0.98,1.15h0.28l0.98-0.73
		c0.05-0.04,0.11-0.09,0.16-0.14c0.05-0.06,0.08-0.13,0.08-0.22c0-0.08-0.03-0.14-0.08-0.19c-0.05-0.04-0.1-0.06-0.14-0.06
		C74.14,59.69,74.04,59.75,73.93,59.88"/>
	<path class="st0" d="M77.92,63.19v0.47c0,0.3-0.01,0.59-0.02,0.87c-0.01,0.28-0.02,0.56-0.03,0.83c0.09-0.01,0.18-0.01,0.27-0.01
		c0.1,0,0.19,0,0.28,0.01c0-0.07-0.01-0.15-0.01-0.22v-0.25v-0.5c0-0.26,0-0.51,0.01-0.74c0.01-0.24,0.01-0.47,0.01-0.69
		c0-0.27-0.03-0.49-0.1-0.66c-0.06-0.17-0.14-0.31-0.25-0.41c-0.1-0.1-0.22-0.18-0.35-0.22c-0.12-0.04-0.25-0.06-0.37-0.06
		c-0.24,0-0.45,0.06-0.62,0.18c-0.17,0.12-0.32,0.29-0.45,0.51H76.3c0-0.21,0.01-0.41,0.02-0.62c-0.06,0.01-0.11,0.02-0.15,0.03
		c-0.04,0-0.08,0.01-0.11,0.01c-0.07,0-0.17-0.01-0.3-0.04c0.02,0.22,0.04,0.46,0.04,0.72c0.01,0.25,0.01,0.49,0.01,0.73v0.8
		c0,0.23,0,0.48-0.01,0.73c0,0.25-0.02,0.48-0.04,0.69c0.1-0.01,0.2-0.01,0.3-0.01c0.1,0,0.2,0,0.3,0.01
		c-0.02-0.21-0.04-0.43-0.05-0.69c0-0.26-0.01-0.5-0.01-0.73v-0.66c0-0.4,0.07-0.71,0.21-0.94c0.15-0.22,0.37-0.33,0.68-0.33
		c0.23,0,0.4,0.1,0.53,0.3C77.86,62.51,77.92,62.81,77.92,63.19"/>
	<path class="st0" d="M32.64,58.35l0.06-0.46l-0.03-0.03c-0.06,0.06-0.14,0.12-0.23,0.2c-0.09,0.07-0.19,0.14-0.31,0.21
		c-0.11,0.06-0.23,0.12-0.37,0.16c-0.13,0.05-0.28,0.07-0.44,0.07c-0.26,0-0.5-0.05-0.73-0.15c-0.22-0.1-0.42-0.25-0.58-0.45
		c-0.16-0.21-0.29-0.46-0.39-0.77c-0.09-0.31-0.14-0.68-0.14-1.11c0-0.43,0.05-0.8,0.14-1.1c0.09-0.32,0.22-0.57,0.39-0.77
		c0.17-0.21,0.36-0.36,0.58-0.46c0.23-0.1,0.47-0.15,0.73-0.15c0.16,0,0.31,0.03,0.44,0.08c0.13,0.05,0.25,0.11,0.36,0.18
		c0.11,0.07,0.2,0.15,0.28,0.22c0.08,0.08,0.14,0.15,0.19,0.21l0.04-0.01c0.01-0.08,0.03-0.19,0.05-0.31
		c0.02-0.12,0.05-0.22,0.09-0.29c-0.19-0.1-0.4-0.18-0.64-0.25c-0.24-0.07-0.51-0.11-0.8-0.11c-0.37,0-0.7,0.06-1.01,0.19
		c-0.31,0.12-0.57,0.3-0.79,0.54c-0.22,0.24-0.39,0.53-0.51,0.87c-0.12,0.34-0.18,0.73-0.18,1.17c0,0.44,0.06,0.83,0.18,1.18
		c0.12,0.34,0.29,0.63,0.51,0.86c0.22,0.24,0.47,0.42,0.77,0.53c0.3,0.11,0.62,0.17,0.97,0.17c0.16,0,0.32-0.01,0.47-0.05
		c0.15-0.03,0.29-0.06,0.4-0.1c0.12-0.04,0.23-0.08,0.31-0.13C32.53,58.44,32.6,58.39,32.64,58.35"/>
	<path class="st0" d="M33.22,56.84c0,0.35,0.05,0.65,0.14,0.9c0.1,0.24,0.22,0.44,0.38,0.6c0.15,0.15,0.33,0.25,0.52,0.32
		c0.19,0.06,0.39,0.09,0.58,0.09c0.2,0,0.39-0.03,0.58-0.09c0.19-0.06,0.36-0.17,0.52-0.32c0.15-0.16,0.28-0.35,0.37-0.6
		c0.1-0.25,0.15-0.55,0.15-0.9c0-0.35-0.05-0.65-0.15-0.89c-0.09-0.25-0.22-0.45-0.37-0.59c-0.16-0.15-0.33-0.27-0.52-0.33
		c-0.19-0.07-0.38-0.11-0.58-0.11c-0.19,0-0.38,0.04-0.58,0.11c-0.19,0.07-0.36,0.18-0.52,0.33c-0.16,0.15-0.28,0.35-0.38,0.59
		C33.26,56.2,33.22,56.49,33.22,56.84 M33.8,56.84c0-0.22,0.02-0.42,0.05-0.63c0.04-0.2,0.09-0.38,0.17-0.53
		c0.08-0.16,0.19-0.29,0.32-0.38c0.13-0.09,0.3-0.14,0.49-0.14c0.2,0,0.36,0.05,0.49,0.14c0.13,0.09,0.24,0.22,0.32,0.38
		c0.08,0.15,0.14,0.33,0.17,0.53c0.04,0.2,0.05,0.41,0.05,0.63c0,0.22-0.02,0.42-0.05,0.63c-0.03,0.2-0.09,0.38-0.17,0.54
		c-0.08,0.16-0.19,0.28-0.32,0.37c-0.13,0.09-0.3,0.14-0.49,0.14c-0.19,0-0.36-0.05-0.49-0.14c-0.13-0.09-0.24-0.22-0.32-0.37
		c-0.08-0.16-0.14-0.34-0.17-0.54C33.82,57.27,33.8,57.06,33.8,56.84"/>
	<path class="st0" d="M37.19,56.44v0.8c0,0.23,0,0.48-0.01,0.73c0,0.25-0.02,0.48-0.04,0.69c0.1-0.01,0.2-0.02,0.3-0.02
		c0.1,0,0.2,0,0.3,0.02c-0.02-0.21-0.04-0.44-0.05-0.69c0-0.26-0.01-0.5-0.01-0.73v-0.66c0-0.4,0.07-0.71,0.21-0.93
		c0.14-0.22,0.35-0.33,0.64-0.33c0.11,0,0.22,0.04,0.32,0.11c0.11,0.07,0.18,0.15,0.23,0.25c0.03,0.06,0.05,0.12,0.06,0.17
		c0.02,0.05,0.03,0.12,0.04,0.2c0.01,0.08,0.01,0.19,0.01,0.32c0,0.13,0.01,0.32,0.01,0.56c0,0.28,0,0.57-0.01,0.87
		c-0.01,0.29-0.02,0.58-0.05,0.87c0.1-0.01,0.2-0.02,0.29-0.02c0.09,0,0.19,0,0.29,0.02c-0.01-0.22-0.02-0.42-0.03-0.59
		c0-0.19-0.01-0.39-0.01-0.61c0-0.37,0-0.65,0.01-0.86c0-0.21,0.01-0.37,0.02-0.49c0.01-0.12,0.03-0.21,0.05-0.26
		c0.02-0.06,0.05-0.11,0.09-0.17c0.06-0.1,0.15-0.18,0.26-0.25c0.11-0.07,0.25-0.11,0.4-0.11c0.13,0,0.24,0.03,0.33,0.08
		c0.09,0.05,0.16,0.11,0.21,0.19c0.05,0.08,0.09,0.18,0.11,0.29c0.03,0.11,0.04,0.23,0.04,0.36c0,0.7-0.01,1.25-0.03,1.64
		c-0.01,0.39-0.03,0.65-0.04,0.78c0.05-0.01,0.1-0.02,0.15-0.02h0.15h0.14c0.05,0,0.1,0,0.15,0.02c-0.01-0.15-0.02-0.29-0.02-0.42
		v-0.4c0-0.23,0-0.43,0.01-0.6c0-0.17,0.01-0.33,0.01-0.46c0-0.14,0.01-0.26,0.01-0.36c0-0.1,0.01-0.2,0.01-0.29
		c0-0.22-0.03-0.4-0.08-0.56c-0.05-0.15-0.12-0.28-0.21-0.38c-0.09-0.1-0.19-0.17-0.32-0.22c-0.12-0.05-0.26-0.07-0.41-0.07
		c-0.24,0-0.45,0.07-0.64,0.2c-0.18,0.13-0.33,0.32-0.43,0.56h-0.01c-0.02-0.11-0.06-0.21-0.13-0.3c-0.06-0.1-0.14-0.18-0.23-0.25
		c-0.08-0.07-0.18-0.12-0.29-0.15c-0.11-0.04-0.21-0.06-0.33-0.06c-0.42,0-0.75,0.23-0.99,0.7h-0.01c0-0.21,0.01-0.41,0.02-0.62
		c-0.06,0.01-0.11,0.02-0.15,0.03c-0.04,0-0.08,0.01-0.11,0.01c-0.08,0-0.17-0.01-0.3-0.04c0.02,0.22,0.04,0.46,0.04,0.72
		C37.19,55.97,37.19,56.21,37.19,56.44"/>
	<path class="st0" d="M42.89,56.44v0.8c0,0.23,0,0.48-0.01,0.74c0,0.25-0.02,0.48-0.04,0.69c0.1-0.01,0.2-0.01,0.3-0.01
		c0.1,0,0.2,0,0.3,0.01c-0.02-0.21-0.04-0.43-0.05-0.69c0-0.26-0.01-0.5-0.01-0.74v-0.8c0-0.23,0-0.47,0.01-0.73
		c0.01-0.26,0.02-0.5,0.05-0.72c-0.12,0.03-0.22,0.04-0.3,0.04c-0.08,0-0.17-0.01-0.3-0.04c0.02,0.22,0.04,0.46,0.04,0.72
		C42.88,55.97,42.89,56.21,42.89,56.44 M42.79,53.65c0,0.11,0.03,0.2,0.1,0.28c0.07,0.08,0.15,0.12,0.24,0.12
		c0.09,0,0.17-0.04,0.24-0.12c0.07-0.08,0.1-0.17,0.1-0.28c0-0.11-0.03-0.2-0.1-0.28c-0.07-0.08-0.15-0.12-0.24-0.12
		c-0.09,0-0.17,0.04-0.24,0.12C42.83,53.45,42.79,53.54,42.79,53.65"/>
	<path class="st0" d="M44.53,57.95h-0.08c0,0.08-0.02,0.17-0.05,0.29c-0.03,0.11-0.05,0.2-0.08,0.27c0.09,0.06,0.21,0.12,0.34,0.16
		c0.14,0.05,0.31,0.07,0.51,0.07c0.19,0,0.35-0.03,0.5-0.09c0.15-0.07,0.27-0.16,0.37-0.27c0.11-0.12,0.19-0.25,0.24-0.39
		c0.06-0.15,0.09-0.29,0.09-0.44c0-0.22-0.04-0.39-0.12-0.51c-0.07-0.12-0.17-0.22-0.29-0.29c-0.12-0.07-0.24-0.13-0.38-0.16
		c-0.14-0.04-0.26-0.09-0.38-0.14c-0.11-0.05-0.21-0.12-0.29-0.21c-0.07-0.09-0.11-0.22-0.11-0.39c0-0.11,0.02-0.21,0.05-0.29
		c0.04-0.08,0.08-0.15,0.13-0.2c0.05-0.05,0.11-0.09,0.18-0.12c0.07-0.03,0.13-0.04,0.2-0.04c0.15,0,0.28,0.05,0.38,0.15
		c0.1,0.1,0.17,0.21,0.21,0.33h0.08c0.01-0.06,0.03-0.15,0.06-0.26c0.03-0.11,0.06-0.21,0.1-0.29c-0.1-0.04-0.21-0.09-0.33-0.14
		c-0.11-0.05-0.25-0.08-0.41-0.08c-0.18,0-0.33,0.03-0.47,0.09c-0.14,0.06-0.25,0.14-0.35,0.24c-0.09,0.1-0.16,0.23-0.21,0.37
		c-0.05,0.14-0.07,0.29-0.07,0.46c0,0.22,0.04,0.39,0.11,0.51c0.08,0.12,0.18,0.22,0.29,0.3c0.12,0.07,0.24,0.13,0.38,0.17
		c0.14,0.04,0.26,0.09,0.38,0.15c0.12,0.05,0.21,0.12,0.29,0.21c0.08,0.08,0.12,0.2,0.12,0.36c0,0.11-0.02,0.21-0.05,0.3
		c-0.04,0.09-0.08,0.16-0.15,0.22c-0.06,0.06-0.13,0.1-0.21,0.13c-0.08,0.03-0.15,0.05-0.24,0.05c-0.09,0-0.18-0.02-0.27-0.05
		c-0.08-0.04-0.15-0.08-0.22-0.13c-0.06-0.06-0.12-0.12-0.17-0.18C44.58,58.05,44.55,58,44.53,57.95"/>
	<path class="st0" d="M47.32,56.44v0.8c0,0.23,0,0.48-0.01,0.74c0,0.25-0.02,0.48-0.04,0.69c0.1-0.01,0.2-0.01,0.3-0.01
		c0.1,0,0.2,0,0.3,0.01c-0.02-0.21-0.04-0.43-0.05-0.69c0-0.26-0.01-0.5-0.01-0.74v-0.8c0-0.23,0-0.47,0.01-0.73
		c0.01-0.26,0.02-0.5,0.05-0.72c-0.12,0.03-0.22,0.04-0.3,0.04c-0.08,0-0.18-0.01-0.3-0.04c0.02,0.22,0.03,0.46,0.04,0.72
		C47.31,55.97,47.32,56.21,47.32,56.44 M47.23,53.65c0,0.11,0.03,0.2,0.1,0.28c0.07,0.08,0.15,0.12,0.24,0.12
		c0.09,0,0.17-0.04,0.24-0.12c0.07-0.08,0.1-0.17,0.1-0.28c0-0.11-0.03-0.2-0.1-0.28c-0.07-0.08-0.15-0.12-0.24-0.12
		c-0.09,0-0.17,0.04-0.24,0.12C47.26,53.45,47.23,53.54,47.23,53.65"/>
	<path class="st0" d="M48.72,56.84c0,0.35,0.05,0.65,0.14,0.9c0.1,0.24,0.22,0.44,0.38,0.6c0.16,0.15,0.33,0.25,0.52,0.32
		c0.19,0.06,0.39,0.09,0.58,0.09c0.19,0,0.39-0.03,0.58-0.09c0.19-0.06,0.36-0.17,0.52-0.32c0.16-0.16,0.28-0.35,0.37-0.6
		c0.1-0.25,0.15-0.55,0.15-0.9c0-0.35-0.05-0.65-0.15-0.89c-0.09-0.25-0.22-0.45-0.37-0.59c-0.15-0.15-0.33-0.27-0.52-0.33
		c-0.19-0.07-0.38-0.11-0.58-0.11c-0.19,0-0.38,0.04-0.58,0.11c-0.19,0.07-0.36,0.18-0.52,0.33c-0.15,0.15-0.28,0.35-0.38,0.59
		C48.77,56.2,48.72,56.49,48.72,56.84 M49.3,56.84c0-0.22,0.02-0.42,0.05-0.63c0.04-0.2,0.09-0.38,0.17-0.53
		c0.08-0.16,0.19-0.29,0.32-0.38c0.13-0.09,0.3-0.14,0.49-0.14c0.19,0,0.36,0.05,0.49,0.14c0.13,0.09,0.24,0.22,0.32,0.38
		c0.08,0.15,0.13,0.33,0.17,0.53c0.03,0.2,0.05,0.41,0.05,0.63c0,0.22-0.02,0.42-0.05,0.63c-0.03,0.2-0.09,0.38-0.17,0.54
		c-0.08,0.16-0.19,0.28-0.32,0.37c-0.13,0.09-0.3,0.14-0.49,0.14c-0.2,0-0.36-0.05-0.49-0.14c-0.13-0.09-0.24-0.22-0.32-0.37
		c-0.08-0.16-0.14-0.34-0.17-0.54C49.32,57.27,49.3,57.06,49.3,56.84 M50.86,53.18l-0.98,1.15h0.28l0.98-0.73
		c0.05-0.04,0.11-0.09,0.16-0.14c0.05-0.06,0.08-0.13,0.08-0.22c0-0.08-0.03-0.14-0.08-0.19c-0.05-0.04-0.1-0.06-0.14-0.06
		C51.06,52.99,50.96,53.05,50.86,53.18"/>
	<path class="st0" d="M54.85,56.49v0.47c0,0.3-0.01,0.59-0.02,0.87c-0.01,0.28-0.02,0.56-0.03,0.83c0.09-0.01,0.18-0.01,0.27-0.01
		c0.1,0,0.19,0,0.28,0.01c0-0.07-0.01-0.15-0.01-0.22v-0.25v-0.5c0-0.26,0-0.51,0.01-0.74c0.01-0.24,0.01-0.47,0.01-0.69
		c0-0.27-0.03-0.49-0.1-0.66c-0.06-0.17-0.14-0.31-0.25-0.41c-0.1-0.1-0.22-0.18-0.35-0.22c-0.12-0.04-0.25-0.06-0.37-0.06
		c-0.24,0-0.44,0.06-0.62,0.19c-0.17,0.12-0.32,0.29-0.45,0.51h-0.01c0-0.21,0.01-0.41,0.02-0.62c-0.06,0.01-0.11,0.02-0.15,0.03
		c-0.04,0-0.08,0.01-0.11,0.01c-0.07,0-0.17-0.01-0.3-0.04c0.02,0.22,0.04,0.46,0.04,0.72c0.01,0.25,0.01,0.5,0.01,0.73v0.8
		c0,0.23-0.01,0.48-0.01,0.73c0,0.25-0.02,0.48-0.04,0.69c0.1-0.01,0.2-0.01,0.3-0.01c0.1,0,0.2,0,0.3,0.01
		c-0.02-0.21-0.04-0.43-0.05-0.69c-0.01-0.26-0.01-0.5-0.01-0.73v-0.66c0-0.4,0.07-0.71,0.21-0.93c0.15-0.22,0.37-0.33,0.68-0.33
		c0.23,0,0.4,0.1,0.53,0.3C54.79,55.82,54.85,56.11,54.85,56.49"/>
	<path class="st0" d="M62.11,58.77h0.09v-0.26c0-0.12,0-0.27-0.01-0.43c0-0.17,0-0.35-0.01-0.54c0-0.2,0-0.39-0.01-0.58v-0.55v-0.46
		c0-0.15,0-0.35,0.01-0.59c0.01-0.25,0.02-0.5,0.03-0.76c0.01-0.26,0.02-0.5,0.03-0.73c0.01-0.23,0.02-0.4,0.03-0.51
		c-0.09,0.03-0.16,0.04-0.21,0.04c-0.06,0-0.14-0.01-0.23-0.04c0.02,0.45,0.03,0.94,0.04,1.45c0.01,0.51,0.01,1.04,0.01,1.58v1.05
		c-0.2-0.24-0.44-0.52-0.72-0.86c-0.27-0.34-0.56-0.7-0.86-1.07c-0.3-0.38-0.61-0.76-0.92-1.15c-0.3-0.39-0.59-0.76-0.86-1.1h-0.11
		c0.01,0.17,0.01,0.44,0.01,0.8c0,0.36,0.01,0.78,0.01,1.28c0,0.17,0,0.36-0.01,0.58c0,0.22-0.01,0.44-0.02,0.66
		c0,0.23-0.01,0.45-0.03,0.68c-0.01,0.23-0.02,0.44-0.03,0.63c-0.01,0.19-0.02,0.36-0.03,0.5c-0.01,0.14-0.02,0.23-0.03,0.29
		c0.08-0.01,0.16-0.02,0.25-0.02c0.08,0,0.16,0,0.23,0.02c0-0.04-0.01-0.12-0.01-0.23c0-0.12-0.01-0.26-0.01-0.41
		c0-0.15-0.01-0.32-0.01-0.5c0-0.18-0.01-0.36-0.01-0.53c0-0.17,0-0.34-0.01-0.5v-0.4c0-0.42,0-0.75,0.01-0.99
		c0.01-0.24,0.01-0.43,0.01-0.58c0.58,0.71,1.15,1.43,1.73,2.15C61.06,57.38,61.6,58.08,62.11,58.77"/>
	<path class="st0" d="M63.46,55.37v0.4h0.07c0.08-0.17,0.19-0.29,0.34-0.39c0.15-0.09,0.32-0.14,0.5-0.14
		c0.13,0,0.25,0.03,0.34,0.08c0.09,0.05,0.17,0.12,0.23,0.21c0.06,0.09,0.1,0.19,0.13,0.31c0.03,0.12,0.04,0.24,0.04,0.37
		c0,0.08-0.01,0.14-0.02,0.19c-0.01,0.05-0.05,0.09-0.12,0.12c-0.06,0.04-0.16,0.07-0.3,0.11c-0.13,0.03-0.32,0.07-0.56,0.12
		c-0.29,0.06-0.52,0.17-0.69,0.34c-0.16,0.17-0.25,0.41-0.25,0.72c0,0.15,0.02,0.28,0.07,0.4c0.05,0.11,0.12,0.21,0.2,0.29
		c0.08,0.08,0.18,0.14,0.29,0.18c0.11,0.04,0.21,0.05,0.33,0.05c0.23,0,0.42-0.04,0.57-0.13c0.15-0.09,0.31-0.22,0.47-0.41
		c0.01,0.13,0.06,0.24,0.13,0.33c0.08,0.08,0.18,0.12,0.33,0.12c0.09,0,0.17-0.01,0.24-0.02c0.08-0.02,0.14-0.04,0.19-0.06V58.4
		c-0.02,0.02-0.05,0.03-0.07,0.03h-0.07c-0.07,0-0.12-0.02-0.15-0.05c-0.03-0.04-0.06-0.08-0.07-0.13
		c-0.02-0.06-0.03-0.12-0.03-0.18v-0.2c0-0.33,0-0.63,0.01-0.92c0.01-0.29,0.01-0.59,0.01-0.88c0-0.17-0.03-0.33-0.08-0.46
		c-0.05-0.14-0.13-0.27-0.22-0.36c-0.09-0.1-0.21-0.18-0.34-0.23c-0.13-0.06-0.28-0.08-0.44-0.08c-0.18,0-0.35,0.03-0.52,0.09
		C63.84,55.07,63.66,55.19,63.46,55.37 M65.1,56.74l-0.03,1.16c-0.08,0.14-0.18,0.27-0.33,0.38c-0.14,0.11-0.29,0.16-0.46,0.16
		c-0.15,0-0.28-0.06-0.4-0.18c-0.12-0.12-0.18-0.31-0.18-0.55c0-0.14,0.02-0.26,0.07-0.36c0.05-0.09,0.11-0.17,0.19-0.23
		c0.08-0.06,0.17-0.11,0.27-0.15c0.1-0.04,0.2-0.07,0.31-0.08c0.1-0.03,0.2-0.05,0.3-0.07C64.94,56.8,65.02,56.77,65.1,56.74"/>
	<path class="st0" d="M66.49,56.84c0,0.35,0.05,0.65,0.14,0.89c0.1,0.24,0.22,0.44,0.38,0.6c0.16,0.15,0.33,0.26,0.52,0.32
		c0.19,0.06,0.39,0.09,0.58,0.09c0.21,0,0.42-0.04,0.61-0.13c0.2-0.09,0.37-0.19,0.5-0.32c0-0.13,0.02-0.25,0.04-0.38l-0.03-0.02
		c-0.06,0.08-0.13,0.15-0.21,0.22c-0.07,0.07-0.16,0.13-0.25,0.18c-0.09,0.05-0.18,0.08-0.27,0.12c-0.09,0.03-0.18,0.04-0.27,0.04
		c-0.38,0-0.66-0.13-0.86-0.4c-0.19-0.27-0.29-0.67-0.29-1.21c0-0.24,0.02-0.46,0.06-0.66c0.04-0.21,0.11-0.38,0.2-0.53
		c0.09-0.15,0.21-0.26,0.35-0.35c0.15-0.09,0.32-0.13,0.52-0.13c0.11,0,0.2,0.02,0.29,0.06c0.09,0.04,0.17,0.08,0.24,0.15
		c0.08,0.06,0.14,0.12,0.19,0.19c0.05,0.07,0.1,0.13,0.13,0.2h0.05c0.02-0.09,0.04-0.18,0.06-0.26c0.03-0.09,0.05-0.17,0.09-0.25
		c-0.08-0.09-0.22-0.17-0.42-0.23c-0.19-0.07-0.41-0.11-0.65-0.11c-0.21,0-0.42,0.04-0.62,0.12c-0.2,0.07-0.39,0.19-0.54,0.35
		c-0.15,0.16-0.28,0.35-0.38,0.59C66.54,56.22,66.49,56.51,66.49,56.84"/>
	<path class="st0" d="M70.21,56.44v0.8c0,0.23,0,0.48-0.01,0.74c0,0.25-0.02,0.48-0.04,0.69c0.1-0.01,0.2-0.01,0.3-0.01
		c0.1,0,0.2,0,0.3,0.01c-0.02-0.21-0.04-0.43-0.05-0.69c0-0.26-0.01-0.5-0.01-0.74v-0.8c0-0.23,0-0.47,0.01-0.73
		c0.01-0.26,0.03-0.5,0.05-0.72c-0.12,0.03-0.22,0.04-0.3,0.04c-0.08,0-0.17-0.01-0.3-0.04c0.02,0.22,0.04,0.46,0.04,0.72
		C70.2,55.97,70.21,56.21,70.21,56.44 M70.12,53.65c0,0.11,0.03,0.2,0.1,0.28c0.07,0.08,0.15,0.12,0.24,0.12
		c0.09,0,0.17-0.04,0.24-0.12c0.07-0.08,0.1-0.17,0.1-0.28c0-0.11-0.03-0.2-0.1-0.28c-0.07-0.08-0.15-0.12-0.24-0.12
		c-0.09,0-0.17,0.04-0.24,0.12C70.15,53.45,70.12,53.54,70.12,53.65"/>
	<path class="st0" d="M71.61,56.84c0,0.35,0.05,0.65,0.14,0.9c0.1,0.24,0.22,0.44,0.38,0.6c0.15,0.15,0.33,0.25,0.52,0.32
		c0.19,0.06,0.39,0.09,0.58,0.09c0.19,0,0.39-0.03,0.58-0.09c0.19-0.06,0.36-0.17,0.52-0.32c0.16-0.16,0.28-0.35,0.37-0.6
		c0.1-0.25,0.15-0.55,0.15-0.9c0-0.35-0.05-0.65-0.15-0.89c-0.09-0.25-0.22-0.45-0.37-0.59c-0.15-0.15-0.33-0.27-0.52-0.33
		c-0.19-0.07-0.38-0.11-0.58-0.11c-0.19,0-0.38,0.04-0.58,0.11c-0.19,0.07-0.36,0.18-0.52,0.33c-0.15,0.15-0.28,0.35-0.38,0.59
		C71.66,56.2,71.61,56.49,71.61,56.84 M72.19,56.84c0-0.22,0.02-0.42,0.05-0.63c0.04-0.2,0.09-0.38,0.17-0.53
		c0.08-0.16,0.19-0.29,0.32-0.38s0.3-0.14,0.49-0.14c0.19,0,0.36,0.05,0.49,0.14c0.13,0.09,0.24,0.22,0.32,0.38
		c0.08,0.15,0.14,0.33,0.17,0.53c0.04,0.2,0.05,0.41,0.05,0.63c0,0.22-0.02,0.42-0.05,0.63c-0.03,0.2-0.09,0.38-0.17,0.54
		c-0.08,0.16-0.19,0.28-0.32,0.37c-0.13,0.09-0.3,0.14-0.49,0.14c-0.2,0-0.36-0.05-0.49-0.14c-0.13-0.09-0.24-0.22-0.32-0.37
		c-0.08-0.16-0.14-0.34-0.17-0.54C72.21,57.27,72.19,57.06,72.19,56.84"/>
	<path class="st0" d="M77.74,56.49v0.47c0,0.3-0.01,0.59-0.02,0.87c-0.01,0.28-0.02,0.56-0.03,0.83c0.09-0.01,0.18-0.01,0.27-0.01
		c0.1,0,0.19,0,0.28,0.01c0-0.07-0.01-0.15-0.01-0.22v-0.25v-0.5c0-0.26,0-0.51,0.01-0.74c0.01-0.24,0.01-0.47,0.01-0.69
		c0-0.27-0.03-0.49-0.1-0.66c-0.06-0.17-0.14-0.31-0.25-0.41c-0.1-0.1-0.22-0.18-0.35-0.22c-0.12-0.04-0.25-0.06-0.37-0.06
		c-0.24,0-0.44,0.06-0.62,0.19c-0.17,0.12-0.32,0.29-0.45,0.51h-0.01c0-0.21,0.01-0.41,0.02-0.62c-0.06,0.01-0.11,0.02-0.15,0.03
		c-0.04,0-0.08,0.01-0.11,0.01c-0.08,0-0.17-0.01-0.3-0.04c0.02,0.22,0.04,0.46,0.04,0.72c0.01,0.25,0.01,0.5,0.01,0.73v0.8
		c0,0.23,0,0.48-0.01,0.73c0,0.25-0.02,0.48-0.04,0.69c0.1-0.01,0.2-0.01,0.3-0.01c0.1,0,0.2,0,0.3,0.01
		c-0.02-0.21-0.04-0.43-0.05-0.69c0-0.26-0.01-0.5-0.01-0.73v-0.66c0-0.4,0.07-0.71,0.21-0.93c0.15-0.22,0.37-0.33,0.68-0.33
		c0.23,0,0.4,0.1,0.53,0.3C77.68,55.82,77.74,56.11,77.74,56.49"/>
	<path class="st0" d="M79.33,55.37v0.4h0.07c0.08-0.17,0.19-0.29,0.34-0.39c0.15-0.09,0.32-0.14,0.5-0.14
		c0.13,0,0.25,0.03,0.34,0.08c0.09,0.05,0.17,0.12,0.23,0.21c0.06,0.09,0.1,0.19,0.13,0.31c0.03,0.12,0.04,0.24,0.04,0.37
		c0,0.08-0.01,0.14-0.02,0.19c-0.01,0.05-0.05,0.09-0.12,0.12c-0.06,0.04-0.16,0.07-0.3,0.11c-0.13,0.03-0.32,0.07-0.56,0.12
		c-0.29,0.06-0.52,0.17-0.69,0.34c-0.16,0.17-0.25,0.41-0.25,0.72c0,0.15,0.02,0.28,0.07,0.4c0.05,0.11,0.12,0.21,0.2,0.29
		c0.08,0.08,0.18,0.14,0.29,0.18c0.11,0.04,0.21,0.05,0.32,0.05c0.23,0,0.42-0.04,0.57-0.13c0.15-0.09,0.31-0.22,0.47-0.41
		c0.01,0.13,0.06,0.24,0.13,0.33c0.08,0.08,0.18,0.12,0.33,0.12c0.09,0,0.17-0.01,0.24-0.02c0.07-0.02,0.14-0.04,0.19-0.06V58.4
		c-0.02,0.02-0.05,0.03-0.07,0.03h-0.07c-0.07,0-0.12-0.02-0.15-0.05c-0.03-0.04-0.06-0.08-0.07-0.13
		c-0.02-0.06-0.03-0.12-0.03-0.18v-0.2c0-0.33,0-0.63,0.01-0.92c0.01-0.29,0.01-0.59,0.01-0.88c0-0.17-0.03-0.33-0.08-0.46
		c-0.05-0.14-0.13-0.27-0.22-0.36c-0.09-0.1-0.21-0.18-0.34-0.23c-0.13-0.06-0.28-0.08-0.44-0.08c-0.18,0-0.35,0.03-0.52,0.09
		C79.72,55.07,79.53,55.19,79.33,55.37 M80.98,56.74l-0.03,1.16c-0.07,0.14-0.18,0.27-0.32,0.38c-0.14,0.11-0.29,0.16-0.46,0.16
		c-0.15,0-0.28-0.06-0.4-0.18c-0.12-0.12-0.18-0.31-0.18-0.55c0-0.14,0.02-0.26,0.07-0.36c0.05-0.09,0.11-0.17,0.19-0.23
		c0.08-0.06,0.17-0.11,0.27-0.15c0.1-0.04,0.2-0.07,0.31-0.08c0.1-0.03,0.2-0.05,0.3-0.07C80.81,56.8,80.9,56.77,80.98,56.74"/>
	<path class="st0" d="M82.76,55.06v1.4c0,0.17,0,0.37-0.01,0.57c0,0.21,0,0.41-0.01,0.61c0,0.2-0.01,0.39-0.02,0.57
		c0,0.18-0.01,0.33-0.02,0.45c0.1-0.01,0.2-0.02,0.3-0.02c0.1,0,0.2,0,0.3,0.02c-0.01-0.12-0.02-0.27-0.03-0.45
		c0-0.18-0.01-0.37-0.01-0.57c0-0.2-0.01-0.4-0.01-0.61v-0.57v-1.4v-0.57c0-0.21,0.01-0.41,0.01-0.61c0-0.2,0.01-0.39,0.01-0.57
		c0.01-0.19,0.02-0.34,0.03-0.47c-0.12,0.03-0.22,0.04-0.3,0.04c-0.08,0-0.18-0.01-0.3-0.04c0.01,0.13,0.02,0.29,0.02,0.47
		c0.01,0.18,0.02,0.37,0.02,0.57c0,0.2,0.01,0.4,0.01,0.61C82.76,54.7,82.76,54.89,82.76,55.06"/>
</g>
<polygon class="st1" points="59.08,30.94 65,44.02 60.9,46.99 55.82,35.71 49.3,50.67 49.04,50.92 48.52,51.12 43.89,51.12 
	43.76,51.05 52.56,30.82 52.82,30.56 53.15,30.56 58.82,30.56 58.93,30.67 "/>
<polygon class="st2" points="59.08,30.94 65,44.02 60.9,46.99 55.82,35.71 49.3,50.67 49.04,50.92 48.52,51.12 43.89,51.12 
	43.76,51.05 52.56,30.82 52.82,30.56 53.15,30.56 58.82,30.56 58.93,30.67 "/>
<polygon class="st3" points="60.93,47.07 55.66,51.25 62.64,51.24 "/>
<polygon class="st4" points="60.93,47.07 55.66,51.25 62.64,51.24 "/>
<polygon class="st0" points="65.05,44.1 75.49,35.62 68.64,51.18 68.54,51.18 68.32,51.18 68.15,51.02 "/>
<polygon class="st5" points="65.05,44.1 75.49,35.62 68.64,51.18 68.54,51.18 68.32,51.18 68.15,51.02 "/>
<rect x="21.41" y="23.77" class="st6" width="161.28" height="58.27"/>
<g>
	<path class="st0" d="M139.03,70.77h-2.13l-0.4,2.25l0.44,0.03c0.19-0.28,0.47-0.42,0.83-0.42c0.56,0,0.95,0.41,0.95,1.01
		c0,0.57-0.41,1.01-0.92,1.01c-0.51,0-0.86-0.31-0.9-0.79h-0.53c0.03,0.75,0.58,1.25,1.4,1.25c0.89,0,1.49-0.62,1.49-1.53
		c0-0.82-0.56-1.39-1.37-1.39c-0.38,0-0.66,0.11-0.87,0.34c0.05-0.2,0.06-0.25,0.11-0.49l0.15-0.79h1.75V70.77z M135.78,74.55h-2
		h-0.1c-0.03,0-0.07,0-0.12,0.01c0.04-0.18,0.12-0.33,0.25-0.47c0.13-0.14,0.3-0.27,0.71-0.51c0.5-0.3,0.71-0.45,0.9-0.66
		c0.26-0.28,0.38-0.59,0.38-0.97c0-0.77-0.53-1.27-1.34-1.27c-0.84,0-1.39,0.57-1.39,1.45c0,0.01,0,0.05,0.01,0.1h0.52
		c0.03-0.72,0.31-1.1,0.84-1.1c0.49,0,0.83,0.34,0.83,0.83c0,0.23-0.08,0.45-0.23,0.64c-0.13,0.16-0.33,0.3-0.79,0.6
		c-0.33,0.2-0.42,0.27-0.55,0.37c-0.17,0.13-0.29,0.26-0.4,0.39c-0.21,0.28-0.33,0.67-0.34,1.06h2.81V74.55z M130.91,71.13
		c0.38,0,0.66,0.21,0.78,0.6c0.08,0.27,0.12,0.64,0.12,1.16c0,0.55-0.03,0.89-0.12,1.17c-0.12,0.38-0.4,0.6-0.77,0.6
		c-0.38,0-0.67-0.22-0.79-0.6c-0.08-0.27-0.12-0.64-0.12-1.17c0-0.09,0.01-0.32,0.02-0.49c0.02-0.32,0.04-0.48,0.1-0.67
		C130.24,71.33,130.51,71.13,130.91,71.13 M130.91,70.68c-0.76,0-1.25,0.44-1.37,1.25c-0.04,0.25-0.07,0.61-0.07,0.96
		c0,0.71,0.05,1.09,0.2,1.44c0.21,0.5,0.64,0.77,1.24,0.77c0.6,0,1.01-0.25,1.23-0.77c0.15-0.34,0.21-0.74,0.21-1.36
		c0-0.73-0.06-1.16-0.21-1.51C131.93,70.95,131.5,70.68,130.91,70.68 M128.86,74.55h-2h-0.1c-0.03,0-0.07,0-0.12,0.01
		c0.04-0.18,0.12-0.33,0.25-0.47c0.13-0.14,0.3-0.27,0.71-0.51c0.5-0.3,0.71-0.45,0.9-0.66c0.26-0.28,0.38-0.59,0.38-0.97
		c0-0.77-0.53-1.27-1.34-1.27c-0.84,0-1.39,0.57-1.39,1.45c0,0.01,0,0.05,0.01,0.1h0.52c0.03-0.72,0.31-1.1,0.84-1.1
		c0.49,0,0.83,0.34,0.83,0.83c0,0.23-0.08,0.45-0.23,0.64c-0.13,0.16-0.33,0.3-0.79,0.6c-0.33,0.2-0.42,0.27-0.55,0.37
		c-0.17,0.13-0.29,0.26-0.4,0.39c-0.21,0.28-0.33,0.67-0.34,1.06h2.81V74.55z M123.63,74.34h-0.71v0.68h0.71V74.34z M122.83,70.68
		h-0.61l-0.92,2.74c-0.08,0.27-0.13,0.4-0.21,0.68c-0.06,0.2-0.08,0.27-0.13,0.44c-0.08-0.35-0.07-0.31-0.21-0.73l-0.04-0.13
		l-0.08-0.26l-0.91-2.73h-0.64l1.55,4.33h0.65L122.83,70.68z M116.86,71.07c0.88,0,1.47,0.72,1.47,1.77c0,1.08-0.59,1.79-1.5,1.79
		c-0.9,0-1.49-0.71-1.49-1.78C115.35,71.75,115.93,71.07,116.86,71.07 M116.88,70.58c-1.27,0-2.1,0.89-2.1,2.26
		c0,1.37,0.82,2.27,2.07,2.27c1.24,0,2.07-0.91,2.07-2.26C118.92,71.51,118.08,70.58,116.88,70.58 M113.97,70.68h-0.55v2.17
		c0,0.03,0,0.11,0.01,0.3c0,0.1,0-0.04,0.01,0.45l0.01,0.15c0.01,0.26,0.01,0.35,0.02,0.58c-0.1-0.19-0.15-0.28-0.26-0.46
		c-0.14-0.22-0.2-0.33-0.46-0.72l-1.62-2.47h-0.62v4.33h0.54v-2.19v-0.14v-0.13l-0.01-0.14v-0.15v-0.15l-0.01-0.15
		c0-0.2-0.01-0.34-0.03-0.58c0.12,0.25,0.17,0.33,0.45,0.77c0.14,0.22,0.27,0.42,0.33,0.52l1.55,2.34h0.63V70.68z M107.06,73.22
		h-1.48l0.44-1.18l0.04-0.12l0.05-0.13c0.08-0.22,0.06-0.16,0.08-0.22c0.04-0.11,0.07-0.21,0.14-0.38c0.04,0.14,0.06,0.2,0.09,0.28
		c0.04,0.13,0.15,0.41,0.21,0.6L107.06,73.22z M106.66,70.67h-0.64l-1.7,4.35h0.61l0.49-1.33h1.82l0.49,1.33h0.63L106.66,70.67z
		 M104.69,70.68h-3.48v0.5h1.46v3.83h0.57v-3.83h1.45V70.68z M100.74,71.96c-0.03-0.88-0.61-1.37-1.63-1.37
		c-0.96,0-1.53,0.47-1.53,1.26c0,0.32,0.13,0.6,0.36,0.77c0.19,0.14,0.38,0.21,0.88,0.33l0.08,0.02L99,72.99l0.08,0.02l0.1,0.02
		c0.35,0.08,0.39,0.1,0.57,0.16c0.4,0.13,0.58,0.34,0.58,0.64c0,0.24-0.08,0.42-0.25,0.57c-0.2,0.17-0.44,0.23-0.85,0.23
		c-0.44,0-0.8-0.13-1.01-0.37c-0.16-0.16-0.23-0.37-0.23-0.67h-0.55c0.01,0.97,0.66,1.53,1.79,1.53c0.53,0,0.91-0.1,1.2-0.32
		c0.31-0.25,0.48-0.59,0.48-0.99c0-0.34-0.14-0.62-0.4-0.84c-0.22-0.17-0.43-0.26-0.94-0.38c-0.13-0.03-0.23-0.06-0.26-0.06
		c-0.44-0.09-0.31-0.06-0.38-0.08c-0.26-0.06-0.43-0.12-0.56-0.2c-0.14-0.08-0.23-0.24-0.23-0.44c0-0.45,0.36-0.72,0.95-0.72
		c0.7,0,1.03,0.27,1.1,0.88H100.74z M95.94,73.22h-1.48l0.44-1.18l0.05-0.12l0.04-0.13c0.08-0.22,0.07-0.16,0.08-0.22
		c0.04-0.11,0.07-0.21,0.14-0.38c0.04,0.14,0.06,0.2,0.09,0.28c0.05,0.13,0.15,0.41,0.22,0.6L95.94,73.22z M95.54,70.67H94.9
		l-1.7,4.35h0.6l0.49-1.33h1.82l0.49,1.33h0.63L95.54,70.67z M92.66,70.68h-0.57v1.81H89.8v-1.81h-0.57v4.33h0.57v-2.03h2.29v2.03
		h0.57V70.68z"/>
	<path class="st0" d="M169.49,62.76c-0.01-0.38-0.1-0.65-0.28-0.89c-0.31-0.41-0.86-0.64-1.53-0.64c-1.14,0-1.87,0.56-1.87,1.44
		c0,0.56,0.26,0.94,0.81,1.17c0.15,0.06,0.49,0.17,0.7,0.23c0.64,0.17,0.46,0.13,0.52,0.14c0.17,0.05,0.29,0.09,0.41,0.14
		c0.26,0.1,0.37,0.24,0.37,0.44c0,0.39-0.34,0.64-0.87,0.64c-0.39,0-0.66-0.09-0.86-0.29c-0.14-0.15-0.2-0.31-0.21-0.61h-1.04
		c0.03,1.09,0.77,1.71,2.04,1.71c1.24,0,1.99-0.58,1.99-1.54c0-0.44-0.19-0.79-0.56-1.04c-0.24-0.16-0.53-0.26-1.14-0.41l-0.11-0.03
		l-0.11-0.03c-0.23-0.06-0.15-0.04-0.24-0.06c-0.29-0.08-0.42-0.13-0.51-0.18c-0.13-0.07-0.19-0.19-0.19-0.35
		c0-0.34,0.29-0.54,0.78-0.54c0.55,0,0.87,0.25,0.9,0.72H169.49z M162.93,62.1c0.79,0,1.29,0.63,1.29,1.63
		c0,1.01-0.49,1.64-1.29,1.64c-0.8,0-1.31-0.63-1.31-1.62C161.62,62.72,162.12,62.1,162.93,62.1 M162.94,61.23
		c-1.42,0-2.36,0.99-2.36,2.49c0,1.49,0.94,2.5,2.34,2.5c1.41,0,2.35-1,2.35-2.49C165.27,62.25,164.32,61.23,162.94,61.23
		 M158.68,60.05c-0.09,0.2-0.16,0.26-0.32,0.26c-0.09,0-0.22-0.03-0.43-0.11c-0.26-0.1-0.34-0.12-0.49-0.12
		c-0.19,0-0.36,0.09-0.53,0.3c-0.13,0.16-0.19,0.28-0.23,0.54h0.46c0.04-0.18,0.14-0.28,0.28-0.28c0.07,0,0.27,0.06,0.45,0.13
		c0.32,0.13,0.33,0.13,0.48,0.13c0.41,0,0.68-0.29,0.78-0.85H158.68z M159.86,61.35h-1v1.99c0,0.16,0,0.26,0.01,0.58v0.14l0.01,0.13
		c0.01,0.27,0.01,0.31,0.02,0.52c-0.09-0.18-0.13-0.26-0.24-0.44c-0.12-0.23-0.23-0.4-0.39-0.66l-1.39-2.25h-1.06v4.77h1v-2.03
		c0-0.09,0-0.24-0.01-0.44c0-0.17-0.01-0.3-0.01-0.37c-0.01-0.21-0.01-0.31-0.03-0.53c0.12,0.26,0.15,0.31,0.36,0.66
		c0.11,0.19,0.22,0.38,0.24,0.41l1.42,2.3h1.04V61.35z M153.65,64.28h-1.26l0.31-0.86c0.04-0.13,0.13-0.37,0.18-0.52
		c0.06-0.2,0.09-0.27,0.16-0.51c0.09,0.35,0.15,0.57,0.32,1.03L153.65,64.28z M153.56,61.35h-1.07l-1.82,4.77h1.07l0.39-1.06h1.77
		l0.38,1.06h1.09L153.56,61.35z M148.49,61.46h-3.19v0.86h1.59c0.06,0,0.12,0,0.23-0.01c0.08,0-0.01,0.01,0.33-0.01h0.1
		c-0.28,0.28-0.59,0.74-0.89,1.33c-0.43,0.87-0.68,1.75-0.69,2.47h0.99c0.06-1.03,0.27-1.9,0.63-2.59c0.2-0.36,0.49-0.79,0.68-1.01
		c0.24-0.26,0.19-0.21,0.24-0.26V61.46z"/>
	<path class="st0" d="M140.73,62.7c-0.56,0-1,0.44-1,0.99c0,0.55,0.44,0.99,1,0.99c0.54,0,0.98-0.45,0.98-0.99
		S141.27,62.7,140.73,62.7 M136.2,63.66c-0.03-0.31-0.09-0.49-0.24-0.66c-0.25-0.29-0.69-0.44-1.26-0.44
		c-0.96,0-1.51,0.38-1.51,1.05c0,0.33,0.16,0.61,0.42,0.76c0.21,0.11,0.35,0.16,1,0.31c0.25,0.05,0.44,0.11,0.52,0.14
		c0.17,0.07,0.26,0.17,0.26,0.32c0,0.27-0.24,0.44-0.64,0.44c-0.46,0-0.69-0.18-0.73-0.58h-0.91c0.05,0.81,0.6,1.21,1.62,1.21
		c0.99,0,1.6-0.44,1.6-1.16c0-0.31-0.14-0.58-0.36-0.73c-0.21-0.14-0.5-0.24-0.99-0.34c-0.75-0.16-0.85-0.21-0.85-0.45
		c0-0.21,0.2-0.33,0.54-0.33c0.41,0,0.59,0.13,0.64,0.46H136.2z M131.79,64.82c0,0.24-0.03,0.35-0.16,0.49
		c-0.17,0.19-0.41,0.29-0.68,0.29c-0.33,0-0.53-0.18-0.53-0.46c0-0.31,0.17-0.44,0.7-0.52c0.43-0.07,0.5-0.08,0.66-0.18V64.82z
		 M132.83,66.11c-0.09-0.23-0.12-0.43-0.12-0.93l0.02-1.42c0-0.5-0.07-0.68-0.3-0.87c-0.26-0.22-0.68-0.33-1.23-0.33
		c-0.99,0-1.53,0.39-1.59,1.15h0.89c0.06-0.37,0.24-0.52,0.67-0.52c0.44,0,0.64,0.14,0.64,0.45c0,0.28-0.09,0.32-0.84,0.41
		c-0.49,0.07-0.69,0.11-0.88,0.18c-0.41,0.17-0.63,0.48-0.63,0.92c0,0.64,0.46,1.04,1.18,1.04c0.5,0,0.87-0.14,1.17-0.43
		c0,0.13,0.01,0.18,0.06,0.33H132.83z M126.59,64.03c0.05-0.48,0.35-0.78,0.77-0.78s0.69,0.28,0.74,0.78H126.59z M128.11,65.04
		c-0.14,0.34-0.36,0.49-0.71,0.49c-0.51,0-0.79-0.31-0.81-0.89h2.48v-0.14c0-1.16-0.68-1.92-1.7-1.92c-1.01,0-1.74,0.77-1.74,1.82
		c0,1.09,0.7,1.81,1.76,1.81c0.81,0,1.44-0.45,1.62-1.16H128.11z M125.4,62.6c-0.09-0.01-0.17-0.01-0.21-0.01
		c-0.5,0-0.87,0.23-1.12,0.71v-0.64h-0.9v3.45h0.94v-1.44c0-0.39,0.04-0.61,0.13-0.78c0.15-0.29,0.44-0.45,0.79-0.45
		c0.11,0,0.2,0.01,0.37,0.04V62.6z M122.03,61.17h-1l-0.6,0.96h0.64L122.03,61.17z M121.55,64.82c0,0.24-0.04,0.35-0.16,0.49
		c-0.17,0.19-0.41,0.29-0.68,0.29c-0.33,0-0.53-0.18-0.53-0.46c0-0.31,0.17-0.44,0.7-0.52c0.43-0.07,0.5-0.08,0.67-0.18V64.82z
		 M122.58,66.11c-0.09-0.23-0.12-0.43-0.12-0.93l0.01-1.42c0-0.5-0.06-0.68-0.3-0.87c-0.26-0.22-0.68-0.33-1.23-0.33
		c-0.99,0-1.53,0.39-1.59,1.15h0.89c0.06-0.37,0.24-0.52,0.66-0.52c0.44,0,0.64,0.14,0.64,0.45c0,0.28-0.09,0.32-0.84,0.41
		c-0.49,0.07-0.69,0.11-0.88,0.18c-0.41,0.17-0.63,0.48-0.63,0.92c0,0.64,0.46,1.04,1.18,1.04c0.5,0,0.87-0.14,1.17-0.43
		c0,0.13,0.01,0.18,0.06,0.33H122.58z M116.9,63.66c-0.03-0.31-0.09-0.49-0.24-0.66c-0.25-0.29-0.69-0.44-1.26-0.44
		c-0.96,0-1.51,0.38-1.51,1.05c0,0.33,0.16,0.61,0.42,0.76c0.21,0.11,0.35,0.16,1,0.31c0.25,0.05,0.44,0.11,0.52,0.14
		c0.17,0.07,0.26,0.17,0.26,0.32c0,0.27-0.24,0.44-0.64,0.44c-0.46,0-0.69-0.18-0.73-0.58h-0.91c0.05,0.81,0.6,1.21,1.62,1.21
		c0.99,0,1.6-0.44,1.6-1.16c0-0.31-0.13-0.58-0.36-0.73c-0.21-0.14-0.5-0.24-0.99-0.34c-0.75-0.16-0.85-0.21-0.85-0.45
		c0-0.21,0.2-0.33,0.54-0.33c0.41,0,0.59,0.13,0.64,0.46H116.9z M112.49,64.82c0,0.24-0.04,0.35-0.16,0.49
		c-0.17,0.19-0.41,0.29-0.68,0.29c-0.33,0-0.53-0.18-0.53-0.46c0-0.31,0.17-0.44,0.7-0.52c0.43-0.07,0.5-0.08,0.67-0.18V64.82z
		 M113.53,66.11c-0.09-0.23-0.12-0.43-0.12-0.93l0.01-1.42c0-0.5-0.06-0.68-0.3-0.87c-0.26-0.22-0.68-0.33-1.23-0.33
		c-0.99,0-1.53,0.39-1.59,1.15h0.89c0.07-0.37,0.24-0.52,0.67-0.52c0.44,0,0.64,0.14,0.64,0.45c0,0.28-0.09,0.32-0.84,0.41
		c-0.49,0.07-0.69,0.11-0.88,0.18c-0.41,0.17-0.63,0.48-0.63,0.92c0,0.64,0.46,1.04,1.18,1.04c0.5,0,0.87-0.14,1.17-0.43
		c0,0.13,0.01,0.18,0.06,0.33H113.53z M109.56,61.35h-0.94v4.77h0.94V61.35z M106.07,63.66c-0.03-0.31-0.09-0.49-0.24-0.66
		c-0.25-0.29-0.69-0.44-1.26-0.44c-0.96,0-1.51,0.38-1.51,1.05c0,0.33,0.16,0.61,0.42,0.76c0.21,0.11,0.35,0.16,1,0.31
		c0.25,0.05,0.44,0.11,0.52,0.14c0.17,0.07,0.26,0.17,0.26,0.32c0,0.27-0.24,0.44-0.64,0.44c-0.46,0-0.69-0.18-0.73-0.58h-0.91
		c0.05,0.81,0.6,1.21,1.62,1.21c0.99,0,1.6-0.44,1.6-1.16c0-0.31-0.14-0.58-0.36-0.73c-0.21-0.14-0.5-0.24-0.99-0.34
		c-0.75-0.16-0.85-0.21-0.85-0.45c0-0.21,0.2-0.33,0.54-0.33c0.41,0,0.59,0.13,0.64,0.46H106.07z M101.66,64.82
		c0,0.24-0.04,0.35-0.16,0.49c-0.17,0.19-0.41,0.29-0.68,0.29c-0.33,0-0.53-0.18-0.53-0.46c0-0.31,0.17-0.44,0.7-0.52
		c0.43-0.07,0.5-0.08,0.66-0.18V64.82z M102.69,66.11c-0.09-0.23-0.12-0.43-0.12-0.93l0.01-1.42c0-0.5-0.06-0.68-0.3-0.87
		c-0.26-0.22-0.68-0.33-1.23-0.33c-0.99,0-1.53,0.39-1.59,1.15h0.89c0.06-0.37,0.24-0.52,0.67-0.52c0.44,0,0.64,0.14,0.64,0.45
		c0,0.28-0.09,0.32-0.84,0.41c-0.49,0.07-0.69,0.11-0.88,0.18c-0.41,0.17-0.63,0.48-0.63,0.92c0,0.64,0.46,1.04,1.18,1.04
		c0.5,0,0.87-0.14,1.17-0.43c0,0.13,0.01,0.18,0.06,0.33H102.69z M96.98,63.3c0.52,0,0.83,0.4,0.83,1.06c0,0.69-0.3,1.08-0.83,1.08
		c-0.52,0-0.82-0.4-0.82-1.07C96.16,63.69,96.46,63.3,96.98,63.3 M98.72,61.35h-0.94v1.74c-0.22-0.33-0.59-0.52-1.05-0.52
		c-0.91,0-1.52,0.71-1.52,1.79c0,1.13,0.61,1.86,1.54,1.86c0.49,0,0.83-0.17,1.06-0.53v0.44h0.9V61.35z M92.98,63.27
		c0.53,0,0.84,0.41,0.84,1.13c0,0.69-0.31,1.11-0.83,1.11c-0.53,0-0.84-0.42-0.84-1.12C92.15,63.69,92.46,63.27,92.98,63.27
		 M93.02,62.57c-1.11,0-1.82,0.72-1.82,1.83c0,1.08,0.72,1.81,1.79,1.81c1.07,0,1.78-0.72,1.78-1.81
		C94.77,63.3,94.07,62.57,93.02,62.57 M90.9,62.66h-0.7v-1.04h-0.94v1.04h-0.58v0.64h0.58v1.59c0,0.59,0.02,0.75,0.14,0.92
		c0.16,0.25,0.42,0.35,0.95,0.35c0.16,0,0.33-0.01,0.56-0.04v-0.72c-0.12,0.01-0.21,0.01-0.29,0.01c-0.36,0-0.42-0.07-0.42-0.49
		V63.3h0.7V62.66z"/>
	<path class="st0" d="M161.98,54.08h-0.9v3.45h0.94v-1.79c0-0.3,0.03-0.46,0.09-0.61c0.11-0.23,0.36-0.38,0.64-0.38
		c0.28,0,0.48,0.11,0.56,0.3c0.04,0.12,0.06,0.24,0.06,0.49v1.98h0.94v-2.17c0-0.45-0.05-0.68-0.19-0.9
		c-0.19-0.29-0.55-0.47-0.99-0.47c-0.5,0-0.85,0.17-1.15,0.57V54.08z M157.99,55.45c0.05-0.48,0.35-0.78,0.77-0.78
		c0.42,0,0.69,0.28,0.74,0.78H157.99z M159.5,56.46c-0.14,0.34-0.36,0.49-0.71,0.49c-0.51,0-0.79-0.32-0.81-0.89h2.48v-0.14
		c0-1.16-0.68-1.92-1.7-1.92c-1.01,0-1.74,0.77-1.74,1.82c0,1.09,0.7,1.82,1.76,1.82c0.81,0,1.44-0.45,1.62-1.16H159.5z
		 M152.29,54.08h-0.9v3.45h0.94v-1.79c0-0.3,0.03-0.46,0.09-0.61c0.11-0.23,0.36-0.38,0.64-0.38c0.28,0,0.48,0.11,0.56,0.3
		c0.04,0.12,0.06,0.24,0.06,0.49v1.98h0.94v-2.17c0-0.45-0.05-0.68-0.18-0.9c-0.19-0.29-0.55-0.47-0.99-0.47
		c-0.5,0-0.85,0.17-1.15,0.57V54.08z M150.07,52.6h-1l-0.6,0.96h0.64L150.07,52.6z M148.98,54.69c0.53,0,0.84,0.41,0.84,1.13
		c0,0.69-0.31,1.11-0.83,1.11c-0.53,0-0.84-0.42-0.84-1.12C148.14,55.11,148.46,54.69,148.98,54.69 M149.02,53.99
		c-1.11,0-1.82,0.72-1.82,1.83c0,1.08,0.72,1.81,1.79,1.81c1.07,0,1.78-0.72,1.78-1.82C150.77,54.72,150.07,53.99,149.02,53.99
		 M146.56,54.08h-0.94v3.45h0.94V54.08z M146.56,52.77h-0.94v0.81h0.94V52.77z M144.11,56.21c-0.07,0.46-0.33,0.7-0.75,0.7
		c-0.49,0-0.79-0.41-0.79-1.09c0-0.71,0.31-1.12,0.83-1.12c0.36,0,0.61,0.21,0.69,0.59h0.93c-0.08-0.81-0.7-1.3-1.63-1.3
		c-1.06,0-1.76,0.73-1.76,1.85c0,1.08,0.7,1.79,1.75,1.79c0.93,0,1.54-0.52,1.67-1.41H144.11z M140.2,56.24
		c0,0.24-0.04,0.35-0.16,0.49c-0.17,0.19-0.41,0.29-0.68,0.29c-0.33,0-0.53-0.18-0.53-0.46c0-0.32,0.17-0.44,0.7-0.52
		c0.43-0.07,0.5-0.08,0.66-0.18V56.24z M141.23,57.54c-0.09-0.23-0.12-0.44-0.12-0.93l0.01-1.42c0-0.5-0.06-0.68-0.3-0.87
		c-0.26-0.22-0.68-0.33-1.23-0.33c-0.99,0-1.53,0.39-1.59,1.15h0.89c0.06-0.37,0.24-0.51,0.67-0.51c0.44,0,0.64,0.14,0.64,0.45
		c0,0.28-0.09,0.32-0.84,0.41c-0.49,0.06-0.69,0.11-0.88,0.18c-0.41,0.17-0.63,0.48-0.63,0.92c0,0.64,0.46,1.04,1.18,1.04
		c0.5,0,0.87-0.13,1.17-0.43c0,0.13,0.01,0.18,0.06,0.33H141.23z M137.49,54.08h-0.7v-1.04h-0.94v1.04h-0.58v0.63h0.58v1.59
		c0,0.59,0.02,0.75,0.14,0.92c0.16,0.25,0.42,0.35,0.95,0.35c0.16,0,0.33-0.01,0.56-0.04v-0.72c-0.12,0.01-0.21,0.01-0.29,0.01
		c-0.37,0-0.42-0.06-0.42-0.49v-1.63h0.7V54.08z M134.9,54.08h-0.94v3.45h0.94V54.08z M134.9,52.77h-0.94v0.81h0.94V52.77z
		 M131.38,54.72c0.52,0,0.83,0.4,0.83,1.06c0,0.69-0.3,1.08-0.83,1.08c-0.51,0-0.82-0.4-0.82-1.06
		C130.56,55.11,130.86,54.72,131.38,54.72 M133.12,52.77h-0.94v1.74c-0.22-0.33-0.59-0.52-1.05-0.52c-0.91,0-1.51,0.71-1.51,1.79
		c0,1.13,0.61,1.86,1.54,1.86c0.49,0,0.83-0.17,1.07-0.54v0.44h0.9V52.77z M126.7,55.45c0.05-0.48,0.35-0.78,0.77-0.78
		c0.42,0,0.69,0.28,0.74,0.78H126.7z M128.22,56.46c-0.14,0.34-0.36,0.49-0.71,0.49c-0.51,0-0.79-0.32-0.81-0.89h2.48v-0.14
		c0-1.16-0.68-1.92-1.7-1.92c-1.01,0-1.74,0.77-1.74,1.82c0,1.09,0.7,1.82,1.76,1.82c0.81,0,1.44-0.45,1.62-1.16H128.22z
		 M125.51,54.03c-0.09-0.01-0.17-0.01-0.21-0.01c-0.5,0-0.86,0.23-1.11,0.71v-0.63h-0.9v3.45h0.94v-1.44c0-0.39,0.04-0.61,0.13-0.78
		c0.15-0.29,0.44-0.45,0.79-0.45c0.11,0,0.2,0.01,0.37,0.04V54.03z M121.78,56.21c-0.07,0.46-0.33,0.7-0.75,0.7
		c-0.49,0-0.79-0.41-0.79-1.09c0-0.71,0.31-1.12,0.83-1.12c0.36,0,0.61,0.21,0.69,0.59h0.93c-0.08-0.81-0.7-1.3-1.63-1.3
		c-1.06,0-1.76,0.73-1.76,1.85c0,1.08,0.7,1.79,1.75,1.79c0.93,0,1.54-0.52,1.67-1.41H121.78z M117.86,56.24
		c0,0.24-0.04,0.35-0.16,0.49c-0.17,0.19-0.41,0.29-0.68,0.29c-0.33,0-0.53-0.18-0.53-0.46c0-0.32,0.17-0.44,0.7-0.52
		c0.43-0.07,0.5-0.08,0.67-0.18V56.24z M118.9,57.54c-0.09-0.23-0.12-0.44-0.12-0.93l0.01-1.42c0-0.5-0.06-0.68-0.3-0.87
		c-0.26-0.22-0.68-0.33-1.23-0.33c-0.99,0-1.53,0.39-1.59,1.15h0.89c0.06-0.37,0.24-0.51,0.67-0.51c0.44,0,0.64,0.14,0.64,0.45
		c0,0.28-0.09,0.32-0.84,0.41c-0.49,0.06-0.69,0.11-0.88,0.18c-0.41,0.17-0.63,0.48-0.63,0.92c0,0.64,0.46,1.04,1.18,1.04
		c0.5,0,0.87-0.13,1.17-0.43c0,0.13,0.01,0.18,0.06,0.33H118.9z M112.35,56.24c0,0.24-0.04,0.35-0.16,0.49
		c-0.17,0.19-0.41,0.29-0.68,0.29c-0.33,0-0.53-0.18-0.53-0.46c0-0.32,0.17-0.44,0.7-0.52c0.43-0.07,0.5-0.08,0.67-0.18V56.24z
		 M113.39,57.54c-0.09-0.23-0.12-0.44-0.12-0.93l0.01-1.42c0-0.5-0.07-0.68-0.3-0.87c-0.26-0.22-0.68-0.33-1.23-0.33
		c-0.99,0-1.53,0.39-1.59,1.15h0.89c0.06-0.37,0.24-0.51,0.67-0.51c0.44,0,0.64,0.14,0.64,0.45c0,0.28-0.09,0.32-0.84,0.41
		c-0.49,0.06-0.69,0.11-0.88,0.18c-0.41,0.17-0.63,0.48-0.63,0.92c0,0.64,0.46,1.04,1.18,1.04c0.5,0,0.87-0.13,1.17-0.43
		c0,0.13,0.01,0.18,0.06,0.33H113.39z M105.08,54.08h-0.9v3.45h0.94v-1.87c0-0.24,0.02-0.41,0.07-0.52
		c0.11-0.24,0.34-0.38,0.61-0.38c0.21,0,0.38,0.09,0.46,0.23c0.05,0.09,0.07,0.22,0.07,0.44v2.1h0.94v-1.87
		c0-0.29,0.01-0.42,0.06-0.54c0.1-0.22,0.33-0.37,0.59-0.37c0.24,0,0.4,0.08,0.49,0.23c0.06,0.1,0.08,0.24,0.08,0.49v2.06h0.94
		v-2.32c0-0.79-0.42-1.22-1.17-1.22c-0.48,0-0.84,0.18-1.13,0.57c-0.19-0.38-0.5-0.57-0.96-0.57c-0.48,0-0.81,0.17-1.1,0.56V54.08z
		 M103.34,54.08h-0.94v3.45h0.94V54.08z M103.34,52.77h-0.94v0.81h0.94V52.77z M101.92,54.08h-1.06l-0.34,0.53
		c-0.06,0.11-0.13,0.21-0.27,0.44c-0.15-0.27-0.19-0.35-0.24-0.42l-0.36-0.55h-1.09l1.15,1.63l-1.26,1.82h1.07l0.49-0.74
		c0.07-0.12,0.13-0.21,0.24-0.43c0.12,0.25,0.17,0.34,0.22,0.42l0.5,0.75h1.09l-1.28-1.84L101.92,54.08z M97.8,52.6h-1l-0.6,0.96
		h0.64L97.8,52.6z M97.32,56.24c0,0.24-0.04,0.35-0.16,0.49c-0.17,0.19-0.41,0.29-0.68,0.29c-0.33,0-0.53-0.18-0.53-0.46
		c0-0.32,0.17-0.44,0.7-0.52c0.43-0.07,0.5-0.08,0.66-0.18V56.24z M98.36,57.54c-0.09-0.23-0.12-0.44-0.12-0.93l0.01-1.42
		c0-0.5-0.06-0.68-0.3-0.87c-0.27-0.22-0.68-0.33-1.23-0.33c-0.99,0-1.53,0.39-1.59,1.15h0.89c0.06-0.37,0.24-0.51,0.67-0.51
		c0.44,0,0.64,0.14,0.64,0.45c0,0.28-0.09,0.32-0.84,0.41c-0.49,0.06-0.69,0.11-0.88,0.18c-0.42,0.17-0.63,0.48-0.63,0.92
		c0,0.64,0.46,1.04,1.18,1.04c0.5,0,0.87-0.13,1.17-0.43c0,0.13,0.01,0.18,0.06,0.33H98.36z M94.33,52.77h-1.46l-0.68,2.06
		c-0.08,0.22-0.17,0.54-0.24,0.81c-0.07,0.26-0.1,0.38-0.17,0.71c-0.12-0.6-0.23-1.02-0.39-1.51l-0.72-2.07h-1.48v4.77h0.99V56
		c0-0.75-0.01-1.02-0.04-1.89l-0.01-0.19l-0.01-0.2c0.09,0.39,0.14,0.57,0.2,0.78c0.12,0.41,0.23,0.75,0.29,0.92l0.77,2.13h0.82
		l0.74-2.17c0.06-0.18,0.14-0.44,0.22-0.7c0.1-0.34,0.15-0.51,0.27-0.97c-0.04,0.8-0.04,0.89-0.05,1.47
		c-0.01,0.39-0.01,0.76-0.01,0.94v1.43h0.98V52.77z"/>
	<path class="st0" d="M140.02,45.14h-2.07l0.61-1.65l0.06-0.17l0.06-0.18c0.12-0.31,0.09-0.22,0.12-0.3
		c0.05-0.15,0.1-0.29,0.19-0.54c0.06,0.19,0.09,0.28,0.13,0.39c0.06,0.18,0.21,0.57,0.3,0.84L140.02,45.14z M139.45,41.56h-0.9
		l-2.38,6.08h0.85l0.69-1.86h2.55l0.68,1.86h0.88L139.45,41.56z M131.78,42.28h1.39c0.63,0,1.04,0.14,1.38,0.46
		c0.43,0.41,0.61,0.95,0.61,1.83c0,0.82-0.18,1.44-0.55,1.87c-0.34,0.39-0.69,0.51-1.53,0.51h-1.31V42.28z M130.98,41.58v6.07h2.26
		c0.92,0,1.37-0.16,1.87-0.67c0.56-0.57,0.85-1.42,0.85-2.48c0-0.99-0.31-1.79-0.89-2.31c-0.48-0.44-1.01-0.6-1.93-0.6H130.98z
		 M128.42,45.14h-2.07l0.61-1.65l0.06-0.17l0.06-0.18c0.12-0.31,0.09-0.22,0.12-0.3c0.05-0.15,0.1-0.29,0.19-0.54
		c0.05,0.19,0.09,0.28,0.13,0.39c0.06,0.18,0.21,0.57,0.3,0.84L128.42,45.14z M127.86,41.56h-0.9l-2.38,6.08h0.85l0.69-1.86h2.55
		l0.68,1.86h0.88L127.86,41.56z M125.1,41.58h-4.87v0.7h2.04v5.37h0.8v-5.37h2.04V41.58z M119.39,41.58h-0.8v6.07h0.8V41.58z
		 M113.3,42.28h1.39c0.63,0,1.04,0.14,1.38,0.46c0.43,0.41,0.61,0.95,0.61,1.83c0,0.82-0.18,1.44-0.55,1.87
		c-0.34,0.39-0.69,0.51-1.53,0.51h-1.31V42.28z M112.5,41.58v6.07h2.26c0.92,0,1.37-0.16,1.88-0.67c0.56-0.57,0.85-1.42,0.85-2.48
		c0-0.99-0.31-1.79-0.89-2.31c-0.48-0.44-1.01-0.6-1.93-0.6H112.5z M111.39,41.58h-4.2v6.07h4.25v-0.7h-3.45v-2.1h3.17V44.2h-3.17
		v-1.92h3.4V41.58z M101.89,42.28h1.72c0.36,0,0.62,0.04,0.8,0.1c0.36,0.14,0.57,0.47,0.57,0.93c0,0.41-0.15,0.71-0.45,0.88
		c-0.24,0.14-0.53,0.18-1.14,0.18h-1.51V42.28z M101.09,41.58v6.07h0.8v-2.63h1.59c1.07,0,1.38,0.31,1.44,1.44l0.03,0.47v0.09
		c0.02,0.19,0.03,0.29,0.05,0.39c0.04,0.12,0.06,0.19,0.11,0.24h0.91l-0.07-0.09c-0.12-0.13-0.19-0.42-0.24-0.96l-0.02-0.18
		l-0.02-0.17c-0.03-0.3-0.03-0.34-0.05-0.46c-0.03-0.27-0.08-0.44-0.2-0.62c-0.16-0.26-0.34-0.38-0.68-0.45
		c0.67-0.22,1.04-0.75,1.04-1.48c0-0.6-0.25-1.09-0.74-1.39c-0.31-0.19-0.64-0.26-1.19-0.26H101.09z M99.3,45.36
		c-0.14,1.14-0.76,1.74-1.81,1.74c-1.23,0-2.02-0.97-2.02-2.47c0-0.61,0.15-1.19,0.42-1.62c0.36-0.6,0.9-0.88,1.65-0.88
		c0.88,0,1.53,0.48,1.71,1.27h0.8c-0.04-0.42-0.21-0.81-0.52-1.16c-0.48-0.54-1.14-0.8-1.98-0.8c-0.85,0-1.51,0.26-2.03,0.81
		c-0.57,0.61-0.85,1.4-0.85,2.38c0,1.93,1.09,3.15,2.81,3.15c1.51,0,2.5-0.91,2.63-2.42H99.3z M92.63,45.14h-2.07l0.61-1.65
		l0.06-0.17l0.06-0.18c0.12-0.31,0.09-0.22,0.12-0.3c0.06-0.15,0.1-0.29,0.19-0.54c0.06,0.19,0.09,0.28,0.13,0.39
		c0.06,0.18,0.21,0.57,0.3,0.84L92.63,45.14z M92.07,41.56h-0.9l-2.38,6.08h0.85l0.69-1.86h2.55l0.68,1.86h0.88L92.07,41.56z"/>
	<path class="st0" d="M140.77,32.53h1.39c0.63,0,1.04,0.14,1.38,0.46c0.43,0.41,0.61,0.95,0.61,1.83c0,0.82-0.18,1.44-0.55,1.87
		c-0.34,0.39-0.69,0.51-1.53,0.51h-1.31V32.53z M139.97,31.83v6.07h2.26c0.92,0,1.37-0.16,1.88-0.67c0.56-0.57,0.85-1.42,0.85-2.48
		c0-0.99-0.31-1.79-0.89-2.31c-0.48-0.44-1.01-0.6-1.93-0.6H139.97z M137.41,35.39h-2.07l0.61-1.65l0.06-0.17l0.06-0.18
		c0.12-0.31,0.09-0.22,0.12-0.3c0.05-0.16,0.1-0.29,0.19-0.54c0.05,0.19,0.09,0.28,0.13,0.39c0.06,0.18,0.21,0.57,0.3,0.84
		L137.41,35.39z M136.85,31.81h-0.9l-2.38,6.08h0.85l0.69-1.87h2.55l0.68,1.87h0.88L136.85,31.81z M129.17,32.53h1.39
		c0.63,0,1.04,0.14,1.38,0.46c0.43,0.41,0.61,0.95,0.61,1.83c0,0.82-0.18,1.44-0.55,1.87c-0.34,0.39-0.69,0.51-1.53,0.51h-1.31
		V32.53z M128.37,31.83v6.07h2.26c0.92,0,1.37-0.16,1.87-0.67c0.56-0.57,0.85-1.42,0.85-2.48c0-0.99-0.31-1.79-0.89-2.31
		c-0.48-0.44-1.01-0.6-1.93-0.6H128.37z M126.98,31.83h-0.8v6.07h0.8V31.83z M124.87,33.61c-0.05-1.24-0.86-1.92-2.28-1.92
		c-1.34,0-2.14,0.66-2.14,1.76c0,0.45,0.18,0.84,0.5,1.08c0.26,0.2,0.53,0.3,1.24,0.46l0.12,0.03l0.13,0.03l0.12,0.03l0.14,0.03
		c0.49,0.12,0.55,0.14,0.79,0.22c0.56,0.18,0.82,0.47,0.82,0.89c0,0.34-0.12,0.59-0.35,0.8c-0.27,0.24-0.61,0.33-1.18,0.33
		c-0.61,0-1.12-0.18-1.42-0.52c-0.22-0.23-0.32-0.52-0.33-0.94h-0.77c0.01,1.35,0.93,2.14,2.51,2.14c0.75,0,1.27-0.15,1.68-0.45
		c0.44-0.35,0.67-0.83,0.67-1.38c0-0.47-0.19-0.87-0.56-1.17c-0.31-0.25-0.6-0.36-1.31-0.53c-0.18-0.05-0.32-0.08-0.36-0.09
		c-0.61-0.13-0.43-0.09-0.54-0.12c-0.36-0.09-0.61-0.17-0.79-0.28c-0.2-0.12-0.32-0.34-0.32-0.62c0-0.63,0.51-1.01,1.33-1.01
		c0.98,0,1.45,0.37,1.55,1.24H124.87z M115.42,32.53h1.72c0.36,0,0.62,0.04,0.8,0.1c0.36,0.14,0.57,0.47,0.57,0.93
		c0,0.41-0.15,0.71-0.45,0.88c-0.24,0.14-0.53,0.18-1.14,0.18h-1.51V32.53z M114.62,31.83v6.07h0.8v-2.63h1.59
		c1.07,0,1.38,0.31,1.44,1.44l0.03,0.46v0.09c0.02,0.19,0.03,0.29,0.05,0.39c0.04,0.12,0.06,0.19,0.11,0.24h0.91l-0.07-0.09
		c-0.12-0.13-0.19-0.42-0.24-0.95l-0.02-0.18l-0.02-0.17c-0.03-0.3-0.03-0.34-0.05-0.46c-0.03-0.27-0.08-0.44-0.2-0.62
		c-0.16-0.26-0.34-0.38-0.68-0.45c0.67-0.22,1.04-0.75,1.04-1.48c0-0.6-0.26-1.09-0.74-1.39c-0.31-0.19-0.64-0.26-1.19-0.26H114.62z
		 M113.53,31.83h-4.2v6.07h4.25v-0.7h-3.45v-2.1h3.17v-0.64h-3.17v-1.92h3.4V31.83z M108.57,31.83h-0.86l-1.28,3.83
		c-0.12,0.37-0.18,0.56-0.3,0.95c-0.09,0.28-0.12,0.37-0.18,0.62c-0.12-0.49-0.1-0.43-0.29-1.03l-0.06-0.18l-0.11-0.36l-1.27-3.82
		h-0.89l2.17,6.07h0.91L108.57,31.83z M102.57,31.83h-0.8v6.07h0.8V31.83z M100.37,31.83h-0.76v3.04c0,0.04,0,0.15,0.01,0.42
		c0,0.14,0-0.05,0.01,0.63l0.01,0.21c0.01,0.36,0.01,0.49,0.03,0.82c-0.14-0.26-0.21-0.39-0.36-0.65c-0.19-0.31-0.28-0.46-0.65-1.01
		l-2.27-3.46h-0.86v6.07h0.76v-3.06v-0.19v-0.18l-0.01-0.19v-0.21v-0.21l-0.01-0.21c0-0.28-0.01-0.47-0.04-0.82
		c0.17,0.35,0.24,0.46,0.63,1.07c0.19,0.31,0.37,0.58,0.46,0.73l2.17,3.27h0.88V31.83z M94.22,31.83h-0.8v3.55
		c0,0.76-0.05,1.06-0.23,1.37c-0.23,0.41-0.69,0.6-1.43,0.6c-0.91,0-1.46-0.4-1.58-1.16c-0.05-0.23-0.05-0.31-0.05-0.82v-3.55h-0.8
		v3.53c0,0.87,0.08,1.29,0.33,1.69c0.4,0.66,1.07,0.98,2.12,0.98c1.3,0,2.07-0.51,2.35-1.55c0.07-0.25,0.09-0.49,0.09-1.12V31.83z"
		/>
</g>
</svg>
