<?xml version="1.0" encoding="utf-8"?>
<!-- Generator: Adobe Illustrator 25.0.0, SVG Export Plug-In . SVG Version: 6.00 Build 0)  -->
<svg version="1.1" id="Capa_1" xmlns="http://www.w3.org/2000/svg" xmlns:xlink="http://www.w3.org/1999/xlink" x="0px" y="0px"
	 viewBox="0 0 476.27 489.14" style="enable-background:new 0 0 476.27 489.14;" xml:space="preserve">
<style type="text/css">
	.st0{fill:#B1DBFC;}
	.st1{fill:#0E4C7F;}
	.st2{fill:#DFEBFA;}
	.st3{fill:#5CB3F8;}
	.st4{fill:#FF656F;}
	.st5{fill:#FF4756;}
	.st6{fill:#43CB8E;}
	.st7{fill:#0776DE;}
	.st8{fill:#2A7DE1;}
	.st9{fill:#FFFFFF;}
</style>
<g>
	<g>
		<path class="st0" d="M215.51,266.99v14.02c0,5.36-2.57,10.34-6.79,13.16l-10.19,6.8h76.63l-10.19-6.8
			c-4.22-2.82-6.79-7.79-6.79-13.16v-14.02C244.14,266.99,229.54,266.99,215.51,266.99L215.51,266.99z"/>
		<path class="st0" d="M282.29,300.47H191.4c-2.53,0-4.58,2.05-4.58,4.58v5.13c0,2.53,2.05,4.58,4.58,4.58h90.89
			c2.53,0,4.58-2.05,4.58-4.58v-5.13C286.87,302.52,284.82,300.47,282.29,300.47z"/>
		<g>
			<g>
				<path class="st1" d="M337.52,104.61H136.17c-7.28,0-13.21,5.92-13.21,13.21v136.56c0,7.28,5.92,13.21,13.21,13.21h201.35
					c7.28,0,13.21-5.92,13.21-13.21V117.82C350.73,110.54,344.8,104.61,337.52,104.61L337.52,104.61z"/>
			</g>
		</g>
		<g>
			<path class="st2" d="M137.26,134.99v0.92v115.49c0,1.05,0.85,1.9,1.9,1.9h195.37c1.05,0,1.9-0.85,1.9-1.9
				c0-3.08,0-82.85,0-116.41H137.26z"/>
		</g>
		<path class="st0" d="M151.01,251.39V135.9v-0.92h-13.75v0.92v115.49c0,1.05,0.85,1.9,1.9,1.9h13.75
			C151.86,253.29,151.01,252.44,151.01,251.39z"/>
		<path class="st3" d="M334.53,118.91H157.44v17h178.99c0-7.96,0-13.5,0-15.1C336.43,119.76,335.58,118.91,334.53,118.91z"/>
		<path class="st4" d="M157.89,118.91h-18.74c-1.05,0-1.9,0.85-1.9,1.9v15.1h20.64V118.91z"/>
		<path class="st5" d="M152.9,118.91h-13.75c-1.05,0-1.9,0.85-1.9,1.9v15.1H151v-15.1C151,119.76,151.86,118.91,152.9,118.91z"/>
		<g>
			<path class="st6" d="M170.05,169.89l-7.01-7.01c-2.52-2.52-2.52-6.6,0-9.12c2.52-2.52,6.6-2.52,9.12,0l2.45,2.45l5.99-5.99
				c2.52-2.52,6.6-2.52,9.12,0c2.52,2.52,2.52,6.6,0,9.12l-10.55,10.55C176.65,172.41,172.56,172.41,170.05,169.89L170.05,169.89z"
				/>
		</g>
		<g>
			<path class="st6" d="M170.05,203.82l-7.01-7.01c-2.52-2.52-2.52-6.6,0-9.12c2.52-2.52,6.6-2.52,9.12,0l2.45,2.45l5.99-5.99
				c2.52-2.52,6.6-2.52,9.12,0c2.52,2.52,2.52,6.6,0,9.12l-10.55,10.55C176.65,206.33,172.56,206.33,170.05,203.82L170.05,203.82z"
				/>
		</g>
		<g>
			<path class="st6" d="M170.05,237.74l-7.01-7.01c-2.52-2.52-2.52-6.6,0-9.12c2.52-2.52,6.6-2.52,9.12,0l2.45,2.45l5.99-5.99
				c2.52-2.52,6.6-2.52,9.12,0c2.52,2.52,2.52,6.6,0,9.12l-10.55,10.55C176.65,240.26,172.56,240.26,170.05,237.74z"/>
		</g>
		<g>
			<path class="st3" d="M306.97,153.28h-94.82c-2.37,0-4.28,1.92-4.28,4.28v5c0,2.37,1.92,4.28,4.28,4.28h94.82
				c2.37,0,4.28-1.92,4.28-4.28v-5C311.26,155.2,309.34,153.28,306.97,153.28z"/>
			<path class="st3" d="M306.97,187.2h-94.82c-2.37,0-4.28,1.92-4.28,4.28v5c0,2.37,1.92,4.28,4.28,4.28h94.82
				c2.37,0,4.28-1.92,4.28-4.28v-5C311.26,189.12,309.34,187.2,306.97,187.2z"/>
			<path class="st3" d="M306.97,221.12h-94.82c-2.37,0-4.28,1.92-4.28,4.28v5c0,2.37,1.92,4.28,4.28,4.28h94.82
				c2.37,0,4.28-1.92,4.28-4.28v-5C311.26,223.04,309.34,221.12,306.97,221.12z"/>
		</g>
		<path class="st7" d="M229.55,162.56v-5c0-2.37,1.92-4.28,4.28-4.28h-21.68c-2.37,0-4.28,1.92-4.28,4.28v5
			c0,2.37,1.92,4.28,4.28,4.28h21.68C231.47,166.84,229.55,164.93,229.55,162.56L229.55,162.56z"/>
		<path class="st7" d="M229.55,196.48v-5c0-2.37,1.92-4.28,4.28-4.28h-21.68c-2.37,0-4.28,1.92-4.28,4.28v5
			c0,2.37,1.92,4.28,4.28,4.28h21.68C231.47,200.77,229.55,198.85,229.55,196.48L229.55,196.48z"/>
		<path class="st7" d="M229.55,230.41v-5c0-2.37,1.92-4.28,4.28-4.28h-21.68c-2.37,0-4.28,1.92-4.28,4.28v5
			c0,2.37,1.92,4.28,4.28,4.28h21.68C231.47,234.69,229.55,232.77,229.55,230.41z"/>
	</g>
	<rect x="114.35" y="307.45" class="st8" width="244.99" height="68.72"/>
	<g>
		<path class="st9" d="M137.08,323.99h24.56v7.85h-14.41v6.11h11.48v7.26h-11.48v6.46h15.21v7.85h-25.35V323.99z"/>
		<path class="st9" d="M167.5,323.99h11.48l11.38,20.03v-20.03h8.9v35.54h-9.84l-12.97-22.32v22.32h-8.95V323.99z"/>
		<path class="st9" d="M203.84,348.25h9.69c0.25,2.53,1.39,4.62,5.62,4.62c2.93,0,4.57-1.44,4.57-3.53c0-2.19-1.34-2.78-5.62-3.43
			c-10.04-1.19-13.42-4.18-13.42-11.33c0-6.41,5.27-11.09,13.77-11.09c8.55,0,13.37,3.58,14.02,11.09h-9.44
			c-0.35-2.54-1.79-3.83-4.57-3.83c-2.73,0-4.13,1.24-4.13,3.03c0,1.99,1.09,2.88,5.52,3.48c9,0.99,13.62,3.33,13.62,11.04
			c0,6.51-5.17,11.83-14.32,11.83C209.21,360.13,204.13,355.96,203.84,348.25z"/>
		<path class="st9" d="M245.89,323.99h13.17l11.28,35.54h-10.79l-1.89-6.61h-11.78l-1.89,6.61h-9.49L245.89,323.99z M247.88,345.91
			h7.8l-3.88-13.67L247.88,345.91z"/>
		<path class="st9" d="M278.75,344.32l-11.58-20.33h11.09l6.01,11.98l6.01-11.98h9.74l-11.04,20.33v15.21h-10.24V344.32z"/>
		<path class="st9" d="M298.98,341.99v-0.4c0-10.84,8.15-18.09,18.79-18.09c10.84,0,18.84,6.81,18.84,17.85v0.4
			c0,10.94-7.51,18.39-18.99,18.39C306.13,360.13,298.98,352.67,298.98,341.99z M325.97,341.89v-0.4c0-6.31-3.18-10.04-8.2-10.04
			c-5.02,0-8.15,3.63-8.15,10.09v0.4c0,6.46,3.28,10.19,8.2,10.19C322.84,352.13,325.97,348.25,325.97,341.89z"/>
	</g>
</g>
</svg>
