<?xml version="1.0" encoding="utf-8"?>
<!-- Generator: Adobe Illustrator 24.3.0, SVG Export Plug-In . SVG Version: 6.00 Build 0)  -->
<svg version="1.2" baseProfile="tiny" id="image" xmlns="http://www.w3.org/2000/svg" xmlns:xlink="http://www.w3.org/1999/xlink"
	 x="0px" y="0px" viewBox="0 0 63.7338982 67.9167023" overflow="visible" xml:space="preserve">
<g>
	<g>
		<g>
			<path fill="#161A1A" d="M35.5167007,0C13.9147997,0,0,17.4169998,0,37.4612999
				c0,18.7792015,13.5251999,30.4554024,29.4832001,30.4554024c6.5201225,0,11.9682007-1.0700989,17.319397-3.8920059
				l-1.5569992-4.1839981c-3.9880981,2.2383003-9.1451988,3.4055023-14.6919994,3.4055023
				c-14.4013996,0-25.0066986-10.1196022-25.0066986-26.3685989c0-19.7524014,13.3311005-32.4019012,29.1905994-32.4019012
				c15.0818214,0,23.5481987,10.2164993,23.5481987,24.4228992c0,11.1898022-5.5466003,17.9036999-10.5098,17.7088985
				c-3.2108002-0.0969963-4.3778992-3.5023994-2.9183006-10.8978996l3.3078003-17.6119976
				c-2.5300751-1.1672001-6.324398-2.0427017-10.4111977-2.0427017c-13.5250015,0-23.0601006,10.9951-23.0601006,23.0602016
				c0,7.6871986,4.8644009,12.2607994,10.5082226,12.2607994c5.8377781,0,10.3143787-2.8218994,13.7190762-8.5626984h0.2927017
				c-0.1957016,6.0324974,3.4044991,8.5626984,7.2975998,8.5626984c9.0483971,0,17.2221985-8.5626984,17.2221985-23.1587009
				C63.7338982,11.9680996,52.4464989,0,35.5167007,0z M39.4079971,32.8876991
				c-1.0702972,6.0335007-6.2273979,13.2332001-11.8711987,13.2332001c-4.280899,0-6.421299-3.1135979-6.421299-7.3945999
				c0-9.4389992,6.9078999-17.5149994,15.4714985-17.5149994c2.2373238,0,3.8913231,0.3896008,4.8644028,0.7782993
				L39.4079971,32.8876991z"/>
		</g>
	</g>
</g>
</svg>
