<svg xmlns="http://www.w3.org/2000/svg" viewBox="0 0 85.9265594 85.9254379" overflow="visible" xml:space="preserve">
<path fill="#EF4223" d="M85.9156189,37.7456932c-0.0985718-0.8221436-0.8426514-1.4022827-1.6688843-1.3095703l-5.8833008,0.7094116
	c-0.583374-3.5949707-1.7091064-7.0482788-3.3596191-10.3047485l5.3566895-3.0022583
	c0.7226562-0.4053345,0.9799194-1.3193359,0.5752563-2.0419922c-0.4038086-0.7217407-1.3179321-0.9805298-2.0420532-0.5751953
	l-5.3619385,3.005188c-2.0043335-3.2305908-4.4663086-6.0768433-7.3405762-8.4857798l3.708313-4.7342529
	c0.5113525-0.6524048,0.3965454-1.5947876-0.2557983-2.1054688c-0.6518555-0.5106812-1.5947876-0.3964844-2.1054688,0.2559204
	l-3.7180786,4.7466431c-2.9325562-2.0953369-6.1324463-3.7051392-9.5397949-4.8006592l1.6660767-5.9373169
	c0.2235718-0.7977905-0.2412109-1.6259155-1.0391235-1.8496094c-0.7973022-0.2235718-1.625,0.2412109-1.8496094,1.0391235
	l-1.6708984,5.9547729c-2.6580811-0.6334229-5.390564-0.9733887-8.1532593-0.9733887h-0.2964478
	c-0.9283447,0.0113525-1.8514404,0.0714722-2.7664795,0.1534424l-0.7550049-6.1729126
	c-0.1000977-0.8232422-0.8500977-1.3984375-1.6708984-1.3076172c-0.8222046,0.1005859-1.4071655,0.8485718-1.3065796,1.6708984
	l0.7564697,6.1845703c-3.5378418,0.5943604-6.9224834,1.7108154-10.0960064,3.3308105L24.067049,5.8081923
	c-0.406189-0.7216797-1.3212891-0.9784546-2.0425415-0.5721436c-0.7220459,0.406189-0.9779663,1.321167-0.5716553,2.0428467
	l3.0339966,5.3920288c-3.2056885,1.9852295-6.038208,4.4307261-8.4481201,7.2943735l-5.031312-3.93927
	c-0.6517944-0.5106821-1.5946655-0.3975229-2.105896,0.2559204c-0.5108032,0.6522827-0.3959961,1.5946655,0.2562866,2.1053467
	l5.043457,3.9489136c-2.1124268,2.9639893-3.7293701,6.1742554-4.8197021,9.5697632l-5.9854126-1.6817627
	c-0.7949219-0.2216187-1.6254884,0.2412109-1.8496095,1.0391235c-0.2241211,0.796875,0.2407227,1.625,1.0380861,1.8496094
	l6.0032959,1.6867065c-0.5949097,2.4867554-0.9190674,5.0474243-0.9547729,7.6746826
	c-0.0386963,0.1372681-0.0656128,0.2799072-0.0656128,0.430603c0,0.1320801,0.0240479,0.2578735,0.0582275,0.3799438
	c0.0073242,0.8199463,0.0480957,1.6363525,0.1115723,2.4489136l-6.4174194,0.7756348
	c-0.8222046,0.0996094-1.4082031,0.8466797-1.30896,1.6688843c0.0921631,0.7617798,0.7391968,1.3203125,1.4873047,1.3203125
	c0.0599976,0,0.1205444-0.0039062,0.1820679-0.0106812l6.4061279-0.774231
	c0.5836182,3.6140747,1.7098389,7.0789185,3.3609619,10.3383789l-5.4077148,3.0354004
	c-0.722168,0.4053345-0.9789429,1.319458-0.5737915,2.0420494c0.2753906,0.4901733,0.784729,0.765564,1.3096313,0.765564
	c0.2484741,0,0.5004883-0.0614624,0.7329102-0.1922607l5.4092407-3.0363121
	c1.93573,3.1221886,4.2971811,5.8864708,7.0397959,8.2410851l-3.9299316,5.0089722
	c-0.5113535,0.6514282-0.3975229,1.5947266,0.2543945,2.1055298c0.274353,0.2158203,0.6004639,0.3203125,0.9248047,0.3203125
	c0.4447632,0,0.8851929-0.1973267,1.1810913-0.5742188l3.9182739-4.9940796
	c3.0031128,2.2062378,6.3009033,3.8894653,9.834837,5.0275879l-1.6852398,5.9713745
	c-0.2246094,0.796814,0.2391968,1.6259155,1.0366211,1.8505249c0.1361694,0.0391235,0.2730103,0.0567017,0.4082031,0.0567017
	c0.654295,0,1.2558575-0.4317017,1.4428692-1.0928345l1.6853027-5.9710083
	c2.5343018,0.6040649,5.1854248,0.9415894,7.9265137,0.9710083h0.2783203c0.9016113,0,1.7331543-0.0403442,2.5354004-0.1002197
	l0.7414551,6.1188354c0.0923462,0.7607422,0.7391968,1.3193359,1.4873047,1.3193359
	c0.0599976,0,0.1210938-0.0039062,0.1826172-0.0107422c0.8223267-0.0996094,1.4082031-0.8476562,1.3085938-1.6699829
	l-0.7390137-6.0988159c3.6948242-0.5662842,7.2381592-1.708313,10.5666504-3.4033813l3.0175781,5.3723755
	c0.2749023,0.4902344,0.7841797,0.765625,1.309082,0.765625c0.2485352,0,0.5010376-0.0615234,0.7329102-0.1923828
	c0.7225952-0.4053345,0.9790039-1.3193359,0.5737305-2.0419922l-3.015625-5.3690186
	c3.1257324-1.9169922,5.9002686-4.286377,8.2728271-7.0634155l4.7124634,3.6862793
	c0.2745361,0.2149048,0.6000977,0.3184204,0.9234009,0.3184204c0.4453125,0,0.8867188-0.1972656,1.1826172-0.5761719
	c0.5103149-0.6523438,0.3949585-1.5947266-0.2573242-2.1055298l-4.7003784-3.676815
	c2.1804199-2.9858398,3.8597412-6.2764893,5.0092163-9.8110962l5.9274902,1.6676025
	c0.1358032,0.038147,0.2724609,0.0557251,0.4071655,0.0557251c0.6548462,0,1.256897-0.4326172,1.4429321-1.093811
	c0.2246094-0.7977905-0.2402344-1.6259155-1.0375977-1.8504639l-5.9403687-1.6713257
	c0.6339722-2.6625366,0.9740601-5.4140015,0.9740601-8.2515869c0-0.9675293-0.0512085-1.8831177-0.1260376-2.7811279
	l5.8814087-0.7091064C85.4283142,39.3150902,86.014801,38.5680199,85.9156189,37.7456932z M71.6852112,26.9811058
	c2.090332,3.7304077,3.4072266,7.7695312,3.9165039,12.0283203c0.104126,0.7755127,0.1710815,1.5665283,0.2098389,2.3955078
	H50.7945251c-0.1623535-0.8010864-0.4450684-1.5556641-0.8432007-2.2227173
	c-0.5161133-0.9335938-1.2608032-1.7783203-2.152771-2.4432983c-0.0019531-0.0014648-0.0042114-0.0021973-0.0061646-0.0036621
	c-0.0020752-0.0015259-0.0036011-0.0036011-0.0056763-0.005127c-0.7526855-0.5489502-1.5847168-0.9484253-2.4716797-1.1900024
	c-0.0064697-0.0019531-0.0119629-0.0054932-0.0184937-0.0073242c-0.0062866-0.00177-0.0130005-0.0029297-0.0193481-0.0046997
	c-0.0012207-0.0003052-0.0023193-0.0007935-0.00354-0.0010986c-0.0011597-0.0003052-0.0023193-0.0002441-0.003479-0.0005493
	c-0.2649536-0.0737915-0.5390625-0.1308594-0.8149414-0.1781006V10.3784437
	c2.5750122,0.0966797,5.119873,0.4793701,7.5858765,1.1817627c4.0537109,1.1141968,7.800354,2.9990234,11.1455078,5.6074228
	C66.5968323,19.7877464,69.5367126,23.1822166,71.6852112,26.9811058z M27.2496052,14.5153456
	c3.6347046-2.0562134,7.5968609-3.3652954,11.7888775-3.8944092c0.0014038-0.0001221,0.0027466-0.000061,0.0041504-0.0002441
	c0.001709-0.0001831,0.0032959-0.0009155,0.0050049-0.0011597c0.0039062-0.0004883,0.0076904-0.0012207,0.0115967-0.001709
	c0.7891846-0.1053467,1.5918579-0.1713257,2.3959961-0.2180786v25.0632324
	c-0.692749,0.1550293-1.3695679,0.418457-2.0004883,0.7837524c-0.9072266,0.4931641-1.7402344,1.2177734-2.4125977,2.1005859
	c-0.5908203,0.7792969-1.0126953,1.6455078-1.2435913,2.5341797c-0.0496826,0.1708374-0.0751343,0.3490601-0.1120605,0.5234375
	H10.6681223c0.1148071-2.4630127,0.4956055-4.8970947,1.1723022-7.2598267
	c1.1026001-4.0274048,2.9904175-7.7827759,5.6140146-11.1651611c0.0002441-0.0003052,0.0005493-0.0005493,0.0007935-0.0008545
	c0.0004883-0.0006104,0.0007324-0.0013428,0.0012207-0.0019531c0.00177-0.0022583,0.0032959-0.0045776,0.0050659-0.0068359
	C20.1241169,19.5201073,23.4166584,16.6764183,27.2496052,14.5153456z M14.7653513,58.9107933
	c-0.0001221-0.0002441-0.0002441-0.0004272-0.0003662-0.0006714c-0.000061-0.0001221-0.000061-0.0001831-0.0001221-0.0003052
	c-0.000061-0.000061-0.000061-0.0001221-0.0001221-0.0001831c-2.088501-3.7272949-3.4048462-7.7763062-3.9134521-12.0391846
	c-0.000061-0.0005493,0-0.0010986-0.000061-0.0016479c-0.0001221-0.0007935-0.0004272-0.0015259-0.0005493-0.0023193
	c-0.0975952-0.8022461-0.1538696-1.6256104-0.1905518-2.4615479h24.9940796
	c0.145874,0.8081665,0.4215698,1.5921631,0.8410034,2.343689c0.449707,0.7822876,1.0323486,1.4921875,1.7857056,2.1572876
	c0.8833008,0.7098999,1.8471069,1.2070312,2.8378906,1.468689c0.1118774,0.0319214,0.2242432,0.0491333,0.3364258,0.0758057
	v25.0736046c-2.3724365-0.1293335-4.6754761-0.4879761-6.859375-1.0985718
	c-0.0698242-0.03125-0.1426392-0.0576172-0.2182007-0.078125c-4.1724224-1.147522-8.0079327-3.1104126-11.4102154-5.8417969
	C19.6446247,65.8883286,16.8839436,62.6578026,14.7653513,58.9107933z M59.171051,71.4244003
	c-3.7946777,2.1373901-7.9121094,3.463623-12.2675781,3.944397c-0.0004883,0.000061-0.0009766-0.000061-0.0014648,0
	c-0.0006714,0.000061-0.0012817,0.0003662-0.0019531,0.0004272c-0.0036011,0.0004272-0.0071411,0.0010986-0.0107422,0.0014648
	c-0.7632446,0.098938-1.581604,0.151123-2.434082,0.182312V50.5683861c0.9013062-0.132019,1.7634277-0.4211426,2.487793-0.8470459
	c0.809082-0.4238281,1.5581055-1.0322266,2.246582-1.8330078c0.6958008-0.8428345,1.1904297-1.7998047,1.4570312-2.7958984
	c0.0685425-0.2254028,0.107605-0.4572144,0.1532593-0.6875h25.0018921c-0.1097412,2.520752-0.4909058,5.0036011-1.1732788,7.3983765
	c-1.1723022,4.1895142-3.130249,8.022522-5.8291016,11.4024048C66.1612244,66.5719223,62.9239197,69.3355942,59.171051,71.4244003z"
	/>
</svg>
