<svg xmlns="http://www.w3.org/2000/svg" viewBox="0 0 63.099617 62.1502991" overflow="visible" xml:space="preserve">
<path fill="#23b191" d="M57.9090881,35.7284698l5.1905518-4.6552753l-5.1895142-4.6328125l3.296875-6.1484985l-6.4833984-2.5839233
	l0.9794922-6.9024038l-6.9472656-0.2225952l-1.4248047-6.8134766l-6.6367188,2.1600955l-3.6776733-5.9276733l-5.4776611,4.3192749
	l-5.4569702-4.321167l-3.6787109,5.9295654l-6.6366587-2.1600955l-1.4249268,6.8134766l-6.9472046,0.2225952l0.9794922,6.9024038
	L1.8886404,20.29286l3.2988892,6.1289062l-5.1875,4.6533203l5.1883545,4.6533833l-3.2977905,6.1503906l6.4833984,2.5839233
	l-0.9804688,6.9072876l6.9481812,0.1992188l1.4249268,6.8358765l6.6385508-2.1835938l3.6768188,5.9287109l5.4569702-4.3222046
	l5.4776611,4.3203125l3.6756592-5.9268188l6.6387329,2.1835938l1.4248047-6.8358765l6.9482422-0.1992188l-0.9804688-6.9072876
	l6.4833984-2.5839233L57.9090881,35.7284698z M39.8085022,53.8114777c-5.243103,1.9130859-11.2508545,1.9227905-16.5195312,0
	C13.7713919,50.339798,7.3769217,41.2021027,7.3769217,31.0750866c0-10.1356812,6.3935547-19.2636108,15.9120493-22.7158203
	c2.6279297-0.9589844,5.4024048-1.4453125,8.2490234-1.4453125c5.6708984,0,11.1914062,2.0039062,15.5449829,5.6436157
	c5.4891968,4.5996084,8.6376953,11.3486319,8.6376953,18.5175171
	C55.7206726,41.2099152,49.3260803,50.3465729,39.8085022,53.8114777z"/>
</svg>
