<?xml version="1.0" encoding="utf-8"?>
<!-- Generator: Adobe Illustrator 24.3.0, SVG Export Plug-In . SVG Version: 6.00 Build 0)  -->
<svg version="1.2" baseProfile="tiny" id="Capa_1" xmlns="http://www.w3.org/2000/svg" xmlns:xlink="http://www.w3.org/1999/xlink"
	 x="0px" y="0px" viewBox="0 0 237.9250641 252.3179626" overflow="visible" xml:space="preserve">
<g>
	<g>
		<g>
			<g>
				<rect x="95.6939545" y="94.441452" fill="#D1DEE8" width="13.9435968" height="31.7500095"/>
			</g>
		</g>
		<g>
			<g>
				<rect x="77.5141449" y="94.441452" fill="#E6F1FC" width="18.254118" height="31.7500095"/>
			</g>
		</g>
		<g>
			<g>
				<rect x="109.5738754" y="106.88871" fill="#E6F1FC" width="15.0006618" height="19.3027515"/>
			</g>
		</g>
		<g>
			<g>
				<rect x="109.5738754" y="94.441452" fill="#E6F1FC" width="15.0006618" height="12.447258"/>
			</g>
		</g>
		<g>
			<g>
				<rect x="81.1776886" y="116.5063629" fill="#FFFFFF" width="9.9181957" height="9.6850996"/>
			</g>
		</g>
		<g>
			<g>
				<rect x="100.8958282" y="111.9109802" fill="#FFFFFF" width="21.100853" height="14.2804813"/>
			</g>
		</g>
		<g>
			<g>
				<rect x="112.9797668" y="99.9868851" fill="#FFFFFF" width="7.2416067" height="6.9018207"/>
			</g>
		</g>
		<g>
			<g>
				<rect x="109.577919" y="107.1564865" fill="#E6F1FC" width="16.8008385" height="3.329114"/>
			</g>
		</g>
		<g>
			<g>
				<rect x="81.706459" y="100.1555557" fill="#FFFFFF" width="9.2060728" height="11.7998075"/>
			</g>
		</g>
		<g>
			<g>
				<rect x="76.5266342" y="91.6044312" fill="#D1DEE8" width="17.5583038" height="2.8370187"/>
			</g>
		</g>
		<g>
			<g>
				<rect x="108.1390991" y="91.6044312" fill="#D1DEE8" width="17.5582809" height="2.8370187"/>
			</g>
		</g>
		<g>
			<g>
				<rect x="94.0331345" y="91.6044312" fill="#D1DEE8" width="17.3712215" height="2.8370187"/>
			</g>
		</g>
		<g>
			<g>
				<rect x="76.5266342" y="125.9049377" fill="#E6F1FC" width="17.5583038" height="1.4185258"/>
			</g>
		</g>
		<g>
			<g>
				<rect x="108.1390991" y="125.9049377" fill="#E6F1FC" width="17.5582809" height="1.4185258"/>
			</g>
		</g>
		<g>
			<g>
				<rect x="94.0331345" y="125.9049377" fill="#E6F1FC" width="17.3712215" height="1.4185258"/>
			</g>
		</g>
	</g>
	<g>
		<g>
			<g>
				<rect x="199.850235" y="114.1599045" fill="#D1DEE8" width="13.9435968" height="31.7500095"/>
			</g>
		</g>
		<g>
			<g>
				<rect x="181.6704254" y="114.1599045" fill="#E6F1FC" width="18.254118" height="31.7500095"/>
			</g>
		</g>
		<g>
			<g>
				<rect x="213.7301636" y="126.6071625" fill="#E6F1FC" width="15.0006618" height="19.3027515"/>
			</g>
		</g>
		<g>
			<g>
				<rect x="213.7301636" y="114.1599045" fill="#E6F1FC" width="15.0006618" height="12.447258"/>
			</g>
		</g>
		<g>
			<g>
				<rect x="185.3339691" y="136.224823" fill="#FFFFFF" width="9.9181957" height="9.6850996"/>
			</g>
		</g>
		<g>
			<g>
				<rect x="205.0521088" y="131.6294403" fill="#FFFFFF" width="21.100853" height="14.2804813"/>
			</g>
		</g>
		<g>
			<g>
				<rect x="217.1360474" y="119.7053452" fill="#FFFFFF" width="7.2416067" height="6.9018207"/>
			</g>
		</g>
		<g>
			<g>
				<rect x="213.7342072" y="126.874939" fill="#E6F1FC" width="16.8008385" height="3.329114"/>
			</g>
		</g>
		<g>
			<g>
				<rect x="185.8627472" y="119.8740082" fill="#FFFFFF" width="9.2060728" height="11.7998075"/>
			</g>
		</g>
		<g>
			<g>
				<rect x="180.6829071" y="111.3228836" fill="#D1DEE8" width="17.5583038" height="2.8370187"/>
			</g>
		</g>
		<g>
			<g>
				<rect x="212.2953796" y="111.3228836" fill="#D1DEE8" width="17.5582809" height="2.8370187"/>
			</g>
		</g>
		<g>
			<g>
				<rect x="198.1894226" y="111.3228836" fill="#D1DEE8" width="17.3712215" height="2.8370187"/>
			</g>
		</g>
		<g>
			<g>
				<rect x="180.6829071" y="145.6233826" fill="#E6F1FC" width="17.5583038" height="1.4185258"/>
			</g>
		</g>
		<g>
			<g>
				<rect x="212.2953796" y="145.6233826" fill="#E6F1FC" width="17.5582809" height="1.4185258"/>
			</g>
		</g>
		<g>
			<g>
				<rect x="198.1894226" y="145.6233826" fill="#E6F1FC" width="17.3712215" height="1.4185258"/>
			</g>
		</g>
	</g>
	<g>
		<g>
			<g>
				<rect x="28.9139423" y="114.0203705" fill="#D1DEE8" width="16.841856" height="32.8135033"/>
			</g>
		</g>
		<g>
			<g>
				<rect x="6.9553452" y="114.0203705" fill="#E6F1FC" width="22.0483437" height="32.8135033"/>
			</g>
		</g>
		<g>
			<g>
				<rect x="45.6788864" y="125.0139694" fill="#E6F1FC" width="18.118639" height="21.8199005"/>
			</g>
		</g>
		<g>
			<g>
				<rect x="45.6788864" y="114.0203705" fill="#E6F1FC" width="18.118639" height="10.9936018"/>
			</g>
		</g>
		<g>
			<g>
				<rect x="11.3803797" y="133.5084229" fill="#FFFFFF" width="11.9797525" height="13.3254471"/>
			</g>
		</g>
		<g>
			<g>
				<rect x="35.1970558" y="129.4497223" fill="#FFFFFF" width="25.4867916" height="17.3841572"/>
			</g>
		</g>
		<g>
			<g>
				<rect x="49.7927094" y="118.9181824" fill="#FFFFFF" width="8.7468176" height="6.0957899"/>
			</g>
		</g>
		<g>
			<g>
				<rect x="45.683773" y="125.250473" fill="#E6F1FC" width="20.2929916" height="2.9403226"/>
			</g>
		</g>
		<g>
			<g>
				<rect x="12.019063" y="119.0671539" fill="#FFFFFF" width="11.1196098" height="10.4217644"/>
			</g>
		</g>
		<g>
			<g>
				<rect x="5.7625771" y="111.5146713" fill="#D1DEE8" width="21.2079029" height="2.5056968"/>
			</g>
		</g>
		<g>
			<g>
				<rect x="43.9458809" y="111.5146713" fill="#D1DEE8" width="21.2078743" height="2.5056968"/>
			</g>
		</g>
		<g>
			<g>
				<rect x="26.9079113" y="111.5146713" fill="#D1DEE8" width="20.9819317" height="2.5056968"/>
			</g>
		</g>
		<g>
			<g>
				<rect x="5.7625771" y="146.5808105" fill="#E6F1FC" width="21.2079029" height="1.2528629"/>
			</g>
		</g>
		<g>
			<g>
				<rect x="43.9458809" y="146.5808105" fill="#E6F1FC" width="21.2078743" height="1.2528629"/>
			</g>
		</g>
		<g>
			<g>
				<rect x="26.9079113" y="146.5808105" fill="#E6F1FC" width="20.9819317" height="1.2528629"/>
			</g>
		</g>
	</g>
	<g>
		<g>
			<g>
				<polygon fill="#FFFFFF" points="150.4099884,80.8868942 113.6648941,82.2706375 109.3797379,139.1566772 
					147.2413025,138.3452148 				"/>
			</g>
			<g>
				<path fill="#A5C8EA" d="M109.3797226,139.5716248c-0.1137543,0-0.2227478-0.0467987-0.3011475-0.1294556
					c-0.0805283-0.0848846-0.1213531-0.1999664-0.1125412-0.3166504l4.2852097-56.886055
					c0.0158005-0.2104874,0.1871872-0.3755035,0.3980865-0.3834l36.7450638-1.3837967
					c0.1179047-0.0038528,0.2297363,0.0405121,0.3115845,0.1237793c0.0818329,0.0832672,0.1247864,0.1971207,0.1183014,0.3137131
					l-3.1687164,57.4582672c-0.0119629,0.2163696-0.1886139,0.3873596-0.4053955,0.3920135l-37.8615265,0.8115845
					C109.3855972,139.5716248,109.3826599,139.5716248,109.3797226,139.5716248z M114.0508652,82.6712875l-4.223114,56.0607986
					l37.0204849-0.7935486l3.1223297-56.6199493L114.0508652,82.6712875z"/>
			</g>
		</g>
		<g>
			<g>
				<path fill="#FFFFFF" d="M180.2789917,74.6292114l-0.1619263-7.8434448c0,0,4.6357117-3.2121315,11.0632477,0.6101151
					l0.1187592,8.6264572"/>
			</g>
			<g>
				<path fill="#A5C8EA" d="M190.8842316,76.0280228l-0.1156769-8.3922348
					c-5.3771667-3.0931549-9.3384399-1.1489944-10.2318573-0.6237717l0.1572113,7.6086044l-0.8298187,0.0172195
					l-0.1663208-8.0662613l0.183136-0.1269226c0.197937-0.1371536,4.9304657-3.3187447,11.5114288,0.5946045l0.1995544,0.118721
					l0.1221619,8.858696L190.8842316,76.0280228z"/>
			</g>
		</g>
		<g>
			<g>
				<polygon fill="#A5C8EA" points="214.4009552,79.9809265 215.8034973,139.1188812 191.0363464,138.3220978 
					189.6781006,84.5277634 212.3560944,79.8681564 				"/>
			</g>
		</g>
		<g>
			<g>
				<polygon fill="#FFFFFF" points="137.4543762,57.4057312 215.5523834,79.6949921 188.5505219,86.4003906 148.2600403,76.0978012 
									"/>
			</g>
			<g>
				<path fill="#A5C8EA" d="M188.5505829,86.8152924c-0.0346375,0-0.0690765-0.0043564-0.1027069-0.01297l-40.2904968-10.3025665
					c-0.1081848-0.0276489-0.2005615-0.0976486-0.256485-0.1942825l-10.8058014-18.6920662
					c-0.0846863-0.1463699-0.0719147-0.3295135,0.0320129-0.4628181c0.1037292-0.1332054,0.2781525-0.1900291,0.44104-0.1438408
					l78.0980377,22.2892723c0.1807098,0.0516586,0.3042908,0.2182922,0.3010559,0.4061966
					c-0.0032501,0.1879044-0.1324921,0.350174-0.3148346,0.3954544l-27.0017395,6.7053604
					C188.6176453,86.8112335,188.5842133,86.8152924,188.5505829,86.8152924z M148.5319672,75.7391281l40.0200348,10.2333832
					l25.3909454-6.3053436l-75.6161041-21.5809135L148.5319672,75.7391281z"/>
			</g>
		</g>
		<g>
			<g>
				<path fill="#FFFFFF" d="M137.4543762,57.4057312L136.303894,78.267807c0,0,11.2364349,9.7078552,11.2527771,9.4115219
					s0.7033691-11.5815277,0.7033691-11.5815277L137.4543762,57.4057312z"/>
			</g>
			<g>
				<path fill="#A5C8EA" d="M147.5704651,88.1051865c-0.3196869,0-1.0850677-0.5969315-5.9985199-4.7753754
					c-2.7523956-2.3407364-5.5116882-4.7243195-5.5392456-4.7481232c-0.0972443-0.0839767-0.150116-0.2083664-0.1430206-0.3367081
					l1.1503143-20.8620186c0.0101318-0.1832428,0.1393738-0.3381233,0.3178558-0.3807716
					c0.1792908-0.0425415,0.3638611,0.037075,0.4556274,0.1959076l10.8058014,18.6920624
					c0.0407257,0.0705032,0.059967,0.1515427,0.0549011,0.2328796c-0.0068817,0.1128464-0.6869812,11.2873611-0.703186,11.5791931
					c-0.0087128,0.15802-0.1104126,0.3030777-0.2558746,0.3648682
					C147.667511,88.0873566,147.6255798,88.1051865,147.5704651,88.1051865z M136.7294159,78.087059
					c3.6040955,3.1123047,8.7717896,7.524025,10.4567413,8.842392c0.1422119-2.3537064,0.5852814-9.6321945,0.6521454-10.7321625
					l-10.0462952-17.3784637L136.7294159,78.087059z"/>
			</g>
		</g>
		<g>
			<g>
				<polygon fill="#A5C8EA" points="183.8443298,85.2355042 148.2600403,76.0978012 144.3856659,138.373642 184.693222,137.97229 
									"/>
			</g>
		</g>
		<g>
			<g>
				<path fill="#FFFFFF" d="M192.5301971,138.0630493l-0.8989563-55.9314423c0,0-6.3487091-2.5131226-10.583725-0.0148926
					l0.2752838,56.9216461l11.1448212,0.1593628L192.5301971,138.0630493z"/>
			</g>
			<g>
				<path fill="#A5C8EA" d="M192.8601074,139.6182251l-11.9502411-0.1707916l-0.2785645-57.5670624l0.2052307-0.121048
					c4.3597565-2.5718918,10.6803894-0.1191254,10.9474182-0.0134735l0.2576904,0.102005l0.9037628,56.2233734
					L192.8601074,139.6182251z M181.7356262,138.629364l10.3396454,0.1476898l0.0399017-0.7220306l-0.8942261-55.6313019
					c-1.1880035-0.4144974-6.2240143-1.9767838-9.7574005-0.0656357L181.7356262,138.629364z"/>
			</g>
		</g>
	</g>
	<g>
		<g>
			<g>
				<path fill="#4F985F" d="M157.2356567,138.7048492c0,0,0.5926819-10.1060181-5.6312408-13.6635666
					c-6.2255402-3.557373-14.0216827,2.1038208-19.9480133-0.5627289
					c-5.9279404-2.6679916-4.3575134-15.0275421-9.6929474-15.3251419
					c-5.3361511-0.2957993-3.8533554,10.0808716-8.2985077,8.5961075
					c-4.4467621-1.4809952-3.8542557-15.1158371-10.0789032-11.8560562
					c-6.2248154,3.2599487-3.5566559,14.5242233-7.1133194,15.1178055
					c-3.5566483,0.5899963-9.1887817-10.405632-16.303894-5.3651047
					c-7.1115189,5.0385513-7.4091187,13.0412598-14.5222549,13.9306488
					c-7.1133156,0.889389-12.449646-7.3804016-21.0457535-5.9010086c-8.5961151,1.484581-11.85606,6.52314-18.0816097,6.2273331
					c-6.2221241-0.2976074-6.6456623-7.7123108-16.0053978-5.1289291
					c-10.7009153,2.9535599,0.3357639,21.8988266,0.3357639,21.8988266l37.6046028-7.0769958h26.9736977h38.8288574
					L157.2356567,138.7048492z"/>
			</g>
		</g>
	</g>
	<g>
		<g>
			<g>
				<g>
					<polygon fill="#0675DE" points="10.2704878,90.4784012 22.3177185,91.5172043 22.3177185,145.5298309 36.1156006,139.7723236 
						36.1156006,85.9603195 20.0440483,83.1365128 					"/>
				</g>
			</g>
		</g>
		<g>
			<g>
				<g>
					<g>
						<polygon fill="#FFFFFF" points="34.4403,87.1967163 20.5015278,86.4580688 20.1265316,57.1389885 85.3115234,65.1229019 
							85.3115234,135.9346619 34.4403,142.5642395 						"/>
					</g>
				</g>
			</g>
			<g>
				<g>
					<g>
						<path fill="#0675DE" d="M20.5474644,57.6085396l64.3491287,7.8815346v70.0800858l-50.0413857,6.5216217V87.5901718V86.803154
							l-0.7859001-0.041626l-13.1579418-0.6971588L20.5474644,57.6085396 M19.7055721,56.6694069l0.3859806,30.1824989
							l13.9338417,0.738266v55.4465866l51.7010078-6.737915V64.7557068L19.7055721,56.6694069L19.7055721,56.6694069z"/>
					</g>
				</g>
			</g>
		</g>
		<g>
			<g>
				<g>
					<polygon fill="#0675DE" points="19.7055798,56.6694069 10.2704878,61.6037598 10.2704878,90.4784012 20.0915623,86.8519058 
											"/>
				</g>
			</g>
		</g>
		<g>
			<g>
				<g>
					<polyline fill="#0675DE" points="67.5896988,62.9616699 67.5896988,83.1572037 79.9599991,84.4486923 79.9599991,64.5541534 
											"/>
				</g>
			</g>
		</g>
		<g>
			<g>
				<g>
					<polygon fill="#0675DE" points="67.5896988,115.5215225 67.5896988,141.3182983 79.9599991,142.609787 79.9599991,115.8692856 
											"/>
				</g>
			</g>
		</g>
		<g>
			<g>
				<g>
					<polygon fill="#0675DE" points="42.6751556,82.7452393 63.6703033,84.4486923 63.6703033,100.9190063 42.6751556,99.5727997 
											"/>
				</g>
			</g>
		</g>
		<g>
			<g>
				<g>
					<polygon fill="#0675DE" points="42.6751556,128.1182709 63.6703033,128.5770111 63.6703033,145.0473175 
						42.6751556,143.7011108 					"/>
				</g>
			</g>
		</g>
	</g>
	<g>
		<g>
			<g>
				<path fill="#F8D907" d="M176.2831116,140.7985992c0.9599457,0.065033,16.4042664,1.3661957,20.9205627,1.9129028
					c4.5175171,0.5468445,8.3498688,0.9247894,13.0954742,1.7626953c4.7455902,0.8390045,13.5782471-0.0307922,14.509201-6.2644196
					c0.9288788-6.233902-0.1127167-9.2680206-4.5720215-8.8377686c-4.4592896,0.4292603-9.0463562,1.1956787-9.5341187-1.3315887
					c-0.4878998-2.5260696,4.625351-10.5441742-3.318512-13.3566971c-7.94487-2.8125381-10.8796539,6.8791504-13.4075165,4.4576721
					c-2.5278625-2.4213638,3.5016174-12.1794815-4.2334595-13.8201981
					c-8.4556274-1.7954941-6.8206177,6.8413773-11.3321228,4.7970886
					c-4.1028748-1.8575821-8.6074829-3.1944275-11.1207886,0.8574982c-3.6137695,5.820694,8.3487549,11.852356,4.3957672,13.9280319
					c-5.3903809,2.8325958-7.3072968-0.7952499-9.3028412,2.5767288
					C159.7490692,131.9326324,167.8053284,140.2111816,176.2831116,140.7985992z"/>
			</g>
		</g>
	</g>
	<g>
		<g>
			<path fill="#A5C8EA" d="M233.6954193,148.7676392H4.1180716c0,0,23.4763756-16.9013672,114.7886734-16.9013672
				S233.6954193,148.7676392,233.6954193,148.7676392z"/>
		</g>
	</g>
	<g>
		<g>
			<polygon fill="#FFFFFF" points="23.8746033,95.6997223 26.1844406,94.9605713 26.1844406,115.5215225 23.8746033,115.5215225 			
				"/>
		</g>
	</g>
	<g>
		<g>
			<polygon fill="#FFFFFF" points="29.0486412,114.4499588 31.3584785,114.333168 31.3584785,135.309021 29.0486412,134.8941193 			
				"/>
		</g>
	</g>
	<g>
		<g>
			<g>
				<g>
					<path fill="#9BE0C7" d="M35.833065,128.4191589c-4.3663006-0.818924-8.5963211-6.9139175-9.3437767-12.1470261
						c-0.7474556-5.233017-0.1874866-14.0159912,2.4290218-16.4458466c2.6157703-2.4291077,5.2826443-5.5430908,9.9054089-4.858963
						c5.0456161,0.7474594,6.3530464,5.2331085,7.661293,8.7837296c1.3083382,3.550705,3.1765633,9.1579514,2.9899063,12.52108
						c-0.186657,3.3640518-5.2322655,10.0912323-7.10215,11.3987427
						C40.5045433,128.9807129,38.8228874,128.9807129,35.833065,128.4191589z"/>
				</g>
			</g>
		</g>
		<g>
			<g>
				<g>
					<g>
						<path fill="#4F985F" d="M38.1915283,145.7667084l-0.6752357-0.0227661
							c0.2369347-6.8220825,0.6232948-20.093956,0.3846169-21.4979477
							c-0.3059044-1.8000793-1.6247253-15.8875427-1.6799049-16.4856567l0.6735725-0.0633316
							c0.0129662,0.1461029,1.371582,14.6604004,1.6735077,16.435379
							C38.8772392,125.9543228,38.2198677,144.9583435,38.1915283,145.7667084z"/>
					</g>
				</g>
			</g>
			<g>
				<g>
					<g>
						
							<rect x="33.4570312" y="115.593811" transform="matrix(0.4576612 -0.8891267 0.8891267 0.4576612 -88.5265961 95.2262878)" fill="#4F985F" width="0.67622" height="9.1718597"/>
					</g>
				</g>
			</g>
			<g>
				<g>
					<g>
						<path fill="#4F985F" d="M38.5972633,125.8163681l-0.2994423-0.6062622
							c0.0324135-0.0153732,3.2317467-1.5906525,3.9353294-1.9664536c0.7702179-0.4106293,1.1938934-0.8082886,1.4178619-1.329361
							c0.2345276-0.5405273,1.0282707-3.5084915,1.3155708-4.6065674l0.6532974,0.1704483
							c-0.0422211,0.1639633-1.047718,4.0043793-1.3472328,4.702301c-0.3651695,0.8489304-1.0744781,1.314827-1.7205429,1.6588821
							C41.8387222,124.2208099,38.7287292,125.7514572,38.5972633,125.8163681z"/>
					</g>
				</g>
			</g>
			<g>
				<g>
					<g>
						<path fill="#4F985F" d="M36.5910835,108.0694885c-0.0292625,0-0.0576859-0.0032425-0.0860252-0.0073166
							c-0.180172-0.0275879-0.481266-0.0746231-2.4761353-2.4022598c-0.9504089-1.1086349-1.8415527-2.2196808-1.8496132-2.2318115
							l0.5267258-0.4220123c1.5752716,1.9664536,3.4208069,4.0903091,3.8915215,4.3736191
							c0.0974083-0.0519409,0.4252548-0.2848892,1.1638145-1.2766724c0.4755363-0.6370926,0.8756905-1.2595596,0.8797607-1.2668686
							l0.5681152,0.3659973c-0.0170364,0.0284195-0.4609909,0.7182846-0.9828949,1.4088974
							C37.3409386,107.7813568,36.914856,108.0694885,36.5910835,108.0694885z"/>
					</g>
				</g>
			</g>
			<g>
				<g>
					<g>
						
							<rect x="32.5458145" y="116.2670364" transform="matrix(0.9858798 -0.1674542 0.1674542 0.9858798 -19.3122215 7.1741905)" fill="#4F985F" width="0.676634" height="3.6684911"/>
					</g>
				</g>
			</g>
			<g>
				<g>
					<g>
						
							<rect x="36.5532265" y="114.1849823" transform="matrix(0.7450965 -0.6669567 0.6669567 0.7450965 -66.2572174 55.6831589)" fill="#4F985F" width="6.3316774" height="0.6756355"/>
					</g>
				</g>
			</g>
			<g>
				<g>
					<g>
						
							<rect x="43.0377617" y="117.7233276" transform="matrix(0.9119166 -0.4103756 0.4103756 0.9119166 -45.2058907 28.3234291)" fill="#4F985F" width="0.6758422" height="3.4884679"/>
					</g>
				</g>
			</g>
		</g>
	</g>
	<g>
		<g>
			<g>
				<g>
					<path fill="#F8D907" d="M136.4810791,113.2342682c5.5264282-1.0365219,10.8803711-8.7509689,11.8264313-15.3745117
						c0.9460602-6.6234436,0.2373047-17.7400742-3.0744171-20.8155441
						c-3.310791-3.0745239-6.6862488-7.0158997-12.5372925-6.1499939c-6.3862457,0.9460526-8.041069,6.6235428-9.6969147,11.1175766
						c-1.6559677,4.494133-4.0205841,11.5912323-3.7843323,15.8479614
						c0.2362518,4.2578812,6.6224899,12.7724838,8.989212,14.4273987
						C130.5683746,113.945015,132.6968536,113.945015,136.4810791,113.2342682z"/>
				</g>
			</g>
		</g>
		<g>
			<g>
				<g>
					<g>
						<path fill="#9BE0C7" d="M133.6121063,137.2741699l0.8447266-0.0284882
							c-0.296402-8.5344086-1.327652-27.102623-1.029068-28.8590164c0.3826904-2.2518845,2.0325317-19.875267,2.1015625-20.6235046
							l-0.8426361-0.0792236c-0.0162201,0.1827698-1.7158508,18.3401184-2.0935516,20.5606079
							C132.2063904,110.5237808,133.5766602,136.2628937,133.6121063,137.2741699z"/>
					</g>
				</g>
			</g>
		</g>
	</g>
	<g>
		<g>
			<g>
				<g>
					<polygon fill="#FFFFFF" points="143.5993652,134.2145691 144.2849121,57.8896904 156.8533783,53.0908203 
						157.7674561,136.1746368 					"/>
				</g>
			</g>
		</g>
		<g>
			<g>
				<g>
					<g>
						<path fill="#83A1BA" d="M155.5894623,46.1894341c0,0,1.0785065-11.0352554-1.948761-15.3597736
							c-3.0274048-4.3258591-6.0553436-7.5673027-8.8658905-7.352457c-2.8112183,0.2147102-5.1902008,3.460043-6.7041626,1.2977829
							c-1.5139771-2.1622581,3.243988-3.8922787,5.1902008-3.8922787c1.9461975,0,6.2707214-3.4615192,10.3798523-6.0546732
							c4.107666-2.5957031,6.9195557-5.839695,6.9195557-5.839695s-3.8922882-5.6212287-0.8643494-7.782146
							c3.0266113-2.1648068,5.8371582-1.0844151,5.621109,0.6469475c-0.2160645,1.7301557-0.432251,5.4063845-0.432251,5.4063845
							s2.162262-1.2965775,3.2434692-2.8118887c1.0817261-1.5126288,3.6762238-3.2414432,3.0272675-0.4308958
							c-0.6489716,2.8118882-1.7293549,4.9715986-3.2433319,6.919013c-1.5140991,1.946207-1.081192,8.8652201-1.081192,10.5965834
							c0,1.7300205-1.6736908,23.838623-1.6736908,25.3525925c0,0.2291946-2.9002686-0.4217758-5.4797516-1.0975571
							C157.0228271,45.0932198,155.5894623,46.1894341,155.5894623,46.1894341z"/>
					</g>
				</g>
			</g>
		</g>
		<g>
			<g>
				<g>
					<g>
						<path fill="#5A788C" d="M160.2394562,45.5333672c0,0,0.0580902-4.9203835,0.6048584-8.4869957
							c1.1047058-7.2058372,2.7307281-14.8663197,3.5127411-18.6696644c0.2611237-1.27001,1.1800232-6.2517986,2.4778137-7.1161385
							c1.2972412-0.8656816,0.6482849,0.4322376,0.6482849,0.4322376s-0.2366943,4.8432293-0.4320984,7.0276413
							c-0.1757965,1.9651699-0.9730988,15.0271835-1.0805206,16.2188835
							c-0.1087646,1.1892891-0.8132477,11.9455986-0.8132477,11.9455986L160.2394562,45.5333672z"/>
					</g>
				</g>
			</g>
		</g>
		<g>
			<g>
				<g>
					<polygon fill="#0675DE" points="148.0405426,140.799057 142.3696899,139.8174286 142.7179108,51.3432007 
						158.4270935,44.9831657 158.8529205,142.5664215 151.3121338,141.3653564 151.3121338,115.7385864 155.6433258,115.0166321 
						155.6433258,58.6632652 144.9745331,62.1539803 144.9409332,116.6209641 148.0656128,116.0594482 					"/>
				</g>
			</g>
		</g>
		<g>
			<g>
				<g>
					<g>
						<polygon fill="#FFFFFF" points="158.8313141,45.5061073 177.2132111,49.7796669 177.2132111,140.5796661 
							159.2543182,142.1147003 						"/>
					</g>
				</g>
			</g>
			<g>
				<g>
					<g>
						<path fill="#0675DE" d="M159.2484741,46.0290833l17.5498505,4.0801277v90.0894775l-17.1309967,1.4643097
							L159.2484741,46.0290833 M158.4140778,44.9831657l0.4273834,97.583252l18.7866821-1.6058044V49.4501953
							L158.4140778,44.9831657L158.4140778,44.9831657z"/>
					</g>
				</g>
			</g>
		</g>
		<g>
			<g>
				<g>
					<polyline fill="#FFFFFF" points="175.0870972,137.8428192 175.0870972,60.9530411 161.7847443,58.7959023 
						161.7847443,138.8015594 					"/>
				</g>
			</g>
			<g>
				<g>
					<polygon fill="#0675DE" points="162.1995697,138.8015747 161.369751,138.8015747 161.369751,58.3082962 
						175.5021057,60.6000061 175.5021057,137.8429108 174.672287,137.8429108 174.672287,61.3060341 162.1995697,59.2835693 					
						"/>
				</g>
			</g>
		</g>
		<g>
			<g>
				<g>
					<line fill="#FFFFFF" x1="169.0461273" y1="60.0749016" x2="169.0461273" y2="121.0403824"/>
				</g>
			</g>
			<g>
				<g>
					<rect x="168.6312256" y="60.0748901" fill="#0675DE" width="0.829813" height="60.9655266"/>
				</g>
			</g>
		</g>
	</g>
	<g>
		<g>
			<path fill="#F8D907" d="M6.5183673,161.7579346v1.6296387h12.0339088v4.2619019H6.5183673v1.6296539h12.0339088v5.0141144H0
				v-17.5494385h18.5522766v5.0141296H6.5183673z"/>
		</g>
		<g>
			<path fill="#F8D907" d="M27.3523254,165.5184174l-8.2983322-8.7746124h8.5240192l4.4124336,5.0141296l4.4124317-5.0141296
				h8.5240211l-8.2983322,8.7746124l8.2983322,8.774826h-8.5240211l-4.4124317-5.0141144l-4.4124336,5.0141144h-8.5240192
				L27.3523254,165.5184174z"/>
		</g>
		<g>
			<path fill="#F8D907" d="M65.9367065,163.462738c0,3.9110107-2.7326508,6.7189331-6.7189331,6.7189331h-7.2704887v4.1115723
				h-6.5183678v-17.5494385h13.7888565C63.2040558,156.7438049,65.9367065,159.551712,65.9367065,163.462738z
				 M59.4183388,163.462738c0-1.2033997-0.8022614-1.2033997-1.4540977-1.2033997h-6.0169563v2.4067841h6.0169563
				C58.6160774,164.6661224,59.4183388,164.6661224,59.4183388,163.462738z"/>
		</g>
		<g>
			<path fill="#F8D907" d="M66.4385223,165.4934998c0-6.0921173,3.3093262-9.0005035,11.0310822-9.0005035
				c7.6967392,0,11.0310822,2.9333191,11.0310822,9.0005035c0,6.0921173-3.334343,9.050354-11.0310822,9.050354
				C69.7478485,174.5438538,66.4385223,171.6107483,66.4385223,165.4934998z M81.9823227,165.4934998
				c0-1.8302002-0.6518402-3.4847565-4.5127182-3.4847565s-4.5127106,1.6294403-4.5127106,3.4847565
				c0,1.880249,0.6769562,3.5350189,4.5127106,3.5350189C81.3053665,169.0285187,81.9823227,167.3486328,81.9823227,165.4934998z"/>
		</g>
		<g>
			<path fill="#F8D907" d="M123.2492065,156.7438049l-7.2704849,17.5494385h-9.677269l-7.2704849-17.5494385h7.1702042
				l4.9389648,13.0367279l4.9388657-13.0367279H123.2492065z"/>
		</g>
		<g>
			<path fill="#F8D907" d="M130.2698059,174.2932434h-6.5183716v-17.5494385h6.5183716V174.2932434z"/>
		</g>
		<g>
			<path fill="#F8D907" d="M148.6715546,169.2539978l3.108551,5.0392456h-7.7215576l-2.4319-4.1115723h-3.8358612v4.1115723
				h-6.5183563v-17.5494385h13.7889557c3.9861755,0,6.7187195,2.8079071,6.7187195,6.7189331
				C151.7801056,166.0200348,150.6018372,168.1257782,148.6715546,169.2539978z M137.7907867,164.6661224h6.0169525
				c0.651947,0,1.4542084,0,1.4542084-1.2033844c0-1.2033997-0.8022614-1.2033997-1.4542084-1.2033997h-6.0169525V164.6661224z"/>
		</g>
		<g>
			<path fill="#F8D907" d="M173.8426819,162.2593384h-7.5209961v12.033905h-6.5185699v-12.033905h-7.5209808v-5.5155334h21.5605469
				V162.2593384z"/>
		</g>
		<g>
			<path fill="#F8D907" d="M185.6263885,174.5438538c-7.721756,0-11.0310822-2.9331055-11.0310822-9.050354v-8.7496948h6.5183716
				v8.7496948c0,1.880249,0.6768494,3.5350189,4.5127106,3.5350189s4.5127106-1.6798859,4.5127106-3.5350189v-8.7496948h6.5183716
				v8.7496948C196.6574707,171.5856171,193.3230286,174.5438538,185.6263885,174.5438538z"/>
		</g>
		<g>
			<path fill="#F8D907" d="M210.9986877,171.1342468h-7.4711456l-1.2033997,3.1589966h-7.1700897l7.2703857-17.5494385h9.6771545
				l7.2705994,17.5494385h-7.170105L210.9986877,171.1342468z M209.2936859,166.6217346l-2.0305634-5.3652191l-2.030777,5.3652191
				H209.2936859z"/>
		</g>
		<g>
			<path fill="#F8D907" d="M237.9250641,168.77771v5.5155334h-18.0508575v-17.5494385h6.5183716v12.033905H237.9250641z"/>
		</g>
	</g>
	<g>
		<g>
			<path fill="#A5C8EA" d="M82.0044022,245.9089813h10.6725006v6.1304169H70.8301926v-3.3439789
				c0-7.300766,14.8803101-6.6040497,14.8803101-9.3349915c0-0.8358765-0.6966095-0.9752655-3.1209106-0.9752655
				c-2.5636902,0-4.235672,0-4.235672,1.8113708h-7.2450638c0-6.6599884,4.5699463-7.9417725,11.2020721-7.9417725
				c6.7155838,0,10.6446381,1.2817841,10.6446381,6.1304016C92.9555664,244.7106628,83.3976212,243.7353821,82.0044022,245.9089813z
				"/>
		</g>
		<g>
			<path fill="#A5C8EA" d="M93.5131989,242.2584991c0-6.7714081,3.6782455-10.0037384,11.4249191-10.0037384
				c7.7188187,0,11.4250183,3.2602997,11.4250183,10.0037384c0,6.7714081-3.7061996,10.0594635-11.4250183,10.0594635
				C97.1914444,252.3179626,93.5131989,249.057663,93.5131989,242.2584991z M109.117981,242.2584991
				c0-2.0342102-0.724472-3.8733368-4.179863-3.8733368c-3.4552917,0-4.1798553,1.8113708-4.1798553,3.8733368
				c0,2.0899353,0.7524185,3.9290466,4.1798553,3.9290466C108.365654,246.1875458,109.117981,244.3206787,109.117981,242.2584991z"
				/>
		</g>
		<g>
			<path fill="#A5C8EA" d="M128.0947876,245.9089813h10.672699v6.1304169h-21.846817v-3.3439789
				c0-7.300766,14.8803101-6.6040497,14.8803101-9.3349915c0-0.8358765-0.696701-0.9752655-3.1209106-0.9752655
				c-2.5637894,0-4.2355728,0-4.2355728,1.8113708h-7.245163c0-6.6599884,4.5699463-7.9417725,11.201973-7.9417725
				c6.715683,0,10.6447449,1.2817841,10.6447449,6.1304016C139.046051,244.7106628,129.488205,243.7353821,128.0947876,245.9089813z
				"/>
		</g>
		<g>
			<path fill="#A5C8EA" d="M158.2737579,245.9089813v6.1304169h-18.3914185v-6.1304169h5.6010437l0.0557098-6.3255005
				c-2.1178894,1.8668823-3.6225281,1.8668823-5.6567535,1.8668823v-6.1304016c2.8701172,0,5.5730743,0,5.5730743-2.7866364
				h7.2452698v13.3756561H158.2737579z"/>
		</g>
	</g>
	<g>
		<g>
			<path fill="#0675DE" d="M110.8453674,197.4609528l-0.4512711-1.7045898h-0.3008423v1.7045898v19.2042236h-4.9639893v-36.8539581
				h4.8135605l5.2648392,19.2042236l0.4512711,1.7048035h0.3008423v-1.7048035v-19.2042236h4.9639893v36.8539581h-4.8135605
				L110.8453674,197.4609528z"/>
		</g>
		<g>
			<path fill="#0675DE" d="M130.9008789,217.0662994c-7.2703934,0-7.2203522-7.9725647-7.2203522-7.9725647v-21.7110748
				c0,0-0.0500412-7.9725647,7.2203522-7.9725647c7.2703857,0,7.2203369,7.9725647,7.2203369,7.9725647v21.7110748
				C138.1212158,209.0937347,138.1712646,217.0662994,130.9008789,217.0662994z M130.9008789,184.6750336
				c-1.9053802,0-1.8050995,2.7076263-1.8050995,2.7076263v21.7110748c0,0-0.1002808,2.70784,1.8050995,2.70784
				c1.905365,0,1.8050842-2.70784,1.8050842-2.70784v-21.7110748
				C132.7059631,187.3826599,132.8062439,184.6750336,130.9008789,184.6750336z"/>
		</g>
		<g>
			<path fill="#0675DE" d="M150.9111938,179.8112183h5.26474l-5.6158295,36.8539581h-5.4152527l-5.6158295-36.8539581h5.2649384
				l2.7076263,20.2570801l0.2005615,1.5544891h0.3008575l0.2005615-1.5544891L150.9111938,179.8112183z"/>
		</g>
		<g>
			<path fill="#0675DE" d="M154.7762299,216.6651764l5.5657806-36.8539581h6.6186523l5.5655823,36.8539581h-5.2649384
				l-1.0028229-7.5211945h-5.2146912l-1.0028229,7.5211945H154.7762299z M163.952179,191.7950897l-0.1505127-0.9527893h-0.3008575
				l-0.1503143,0.9527893l-1.5544891,11.632782h3.7104645L163.952179,191.7950897z"/>
		</g>
		<g>
			<path fill="#0675DE" d="M171.2169037,185.3770142v-5.5657959h15.6440735v5.5657959h-5.1144104v31.2881622h-5.4152527v-31.2881622
				H171.2169037z"/>
		</g>
		<g>
			<path fill="#0675DE" d="M195.8003082,217.0662994c-7.2703857,0-7.2203369-7.9725647-7.2203369-7.9725647v-21.7110748
				c0,0-0.0500488-7.9725647,7.2203369-7.9725647c7.2705841,0,7.2203522,7.9725647,7.2203522,7.9725647v21.7110748
				C203.0206604,209.0937347,203.0708923,217.0662994,195.8003082,217.0662994z M195.8003082,184.6750336
				c-1.9051666,0-1.8050842,2.7076263-1.8050842,2.7076263v21.7110748c0,0-0.1000824,2.70784,1.8050842,2.70784
				c1.9055786,0,1.8050842-2.70784,1.8050842-2.70784v-21.7110748
				C197.6053925,187.3826599,197.7058868,184.6750336,195.8003082,184.6750336z"/>
		</g>
		<g>
			<path fill="#A5C8EA" d="M220.1428375,179.8112183v29.2825165c0,0,0.0502472,7.9725647-7.2203369,7.9725647
				c-7.2703857,0-7.2203522-7.9725647-7.2203522-7.9725647v-29.2825165h5.4152679v29.2825165
				c0,0-0.1000824,2.70784,1.8050842,2.70784c1.9055634,0,1.8050842-2.70784,1.8050842-2.70784v-29.2825165H220.1428375z"/>
		</g>
		<g>
			<path fill="#A5C8EA" d="M237.2658386,204.0295715v5.0641632c0,0,0.0500336,7.9725647-7.2203522,7.9725647
				c-7.2705841,0-7.2203369-7.9725647-7.2203369-7.9725647v-21.7110748c0,0-0.0502472-7.9725647,7.2203369-7.9725647
				c7.2703857,0,7.2203522,7.9725647,7.2203522,7.9725647v5.0641632h-5.0643768v-5.0641632
				c0,0,0.2005768-2.7076263-2.0558929-2.7076263c-1.9051666,0-1.9051666,2.7076263-1.9051666,2.7076263v21.7110748
				c0,0,0,2.70784,1.9051666,2.70784c2.2564697,0,2.0558929-2.70784,2.0558929-2.70784v-5.0641632H237.2658386z"/>
		</g>
	</g>
	<g>
		<g>
			<path fill="#FFFFFF" d="M14.1970749,185.169754H6.7261248v9.6771698h5.0141287v5.5657806H6.7261248v16.0452118H1.3107642
				v-36.8539429c0,0,0.5515542,0,12.8863106,0V185.169754z"/>
			<path fill="#0675DE" d="M7.0373044,216.769104H0.9995843v-37.4763184H14.508255v6.1881561H7.0373044v9.0548096h5.0141292
				v6.1881409H7.0373044V216.769104z M1.6219441,216.1467438h4.7930007V200.101532h5.0141287v-4.9434204H6.4149446v-10.29953
				h7.4709511v-4.9434357H1.6219441V216.1467438z"/>
		</g>
		<g>
			<path fill="#FFFFFF" d="M30.8684959,179.6039734v29.2825165c0,0,0.0500412,7.9725647-7.2203445,7.9725647
				c-7.2705879,0-7.2203465-7.9725647-7.2203465-7.9725647v-29.2825165h5.4152603v29.2825165
				c0,0-0.1004868,2.7078247,1.8050861,2.7078247c1.9051666,0,1.8050861-2.7078247,1.8050861-2.7078247v-29.2825165H30.8684959z"/>
			<path fill="#0675DE" d="M23.6481514,217.1702271c-2.1156597,0-3.8396072-0.6553802-5.1239338-1.9479065
				c-2.4044514-2.4195404-2.4086056-6.1790314-2.4075928-6.3378601v-29.5916748h6.0376186v29.5937042
				c-0.0007076,0.024704-0.0398083,1.374176,0.6021023,2.0386658c0.2326756,0.2408905,0.5244064,0.3579865,0.8918056,0.3579865
				c0.3671951,0,0.6588249-0.1170959,0.8915005-0.3579865c0.6420116-0.6644897,0.6031151-2.0139618,0.6026077-2.0275269
				l-0.0002022-29.6048431h6.0376186v29.5937042c0.0010128,0.1567993-0.0032406,3.9162903-2.4076939,6.3360291
				C27.4875546,216.5148468,25.7637081,217.1702271,23.6481514,217.1702271z M16.7389851,179.9151459v28.971344
				c-0.0002022,0.0380859,0.0076981,3.6672974,2.2295151,5.9000549c1.1629734,1.1687469,2.7374096,1.761322,4.6796513,1.761322
				c1.9421387,0,3.5165749-0.5925751,4.6794472-1.761322c2.2219181-2.2327576,2.2299213-5.861969,2.2297173-5.8982391v-28.9731598
				h-4.7928982v28.971344c0.0022278,0.0544891,0.0499382,1.6128235-0.7755184,2.4693756
				c-0.3513947,0.3646698-0.8024635,0.5496368-1.3407478,0.5496368c-0.5383873,0-0.9896584-0.184967-1.341053-0.5496368
				c-0.8254566-0.8567505-0.7774429-2.4150848-0.7750111-2.4809265l-0.0002022-28.9597931H16.7389851z"/>
		</g>
		<g>
			<path fill="#FFFFFF" d="M33.0540504,185.169754v-5.5657806h15.6440811v5.5657806h-5.1144142v31.2881622h-5.4152565V185.169754
				H33.0540504z"/>
			<path fill="#0675DE" d="M43.8948975,216.769104h-6.0376167v-31.2881622h-5.1144104v-6.1881561h16.2664413v6.1881561h-5.1144142
				V216.769104z M38.479641,216.1467438h4.7929001v-31.2881622h5.1144104v-4.9434357H33.3652267v4.9434357h5.1144142V216.1467438z"
				/>
		</g>
		<g>
			<path fill="#FFFFFF" d="M65.3243713,179.6039734v29.2825165c0,0,0.0500412,7.9725647-7.2203445,7.9725647
				c-7.2705879,0-7.2203445-7.9725647-7.2203445-7.9725647v-29.2825165h5.4152603v29.2825165
				c0,0-0.1004868,2.7078247,1.8050842,2.7078247c1.9051666,0,1.805088-2.7078247,1.805088-2.7078247v-29.2825165H65.3243713z"/>
			<path fill="#0675DE" d="M58.1040268,217.1702271c-2.1156578,0-3.8396072-0.6553802-5.1239319-1.9479065
				c-2.4044533-2.4195404-2.4086037-6.1790314-2.4075928-6.3378601v-29.5916748h6.0376205v29.5937042
				c-0.0007095,0.024704-0.0398102,1.374176,0.6021004,2.0386658c0.2326736,0.2408905,0.5244064,0.3579865,0.8918037,0.3579865
				c0.3671989,0,0.6588287-0.1170959,0.8915024-0.3579865c0.6420135-0.6644897,0.6031151-2.0139618,0.6026077-2.0275269
				l-0.0002022-29.6048431h6.0376167v29.5937042c0.0010147,0.1567993-0.0032425,3.9162903-2.407692,6.3360291
				C61.9434319,216.5148468,60.2195854,217.1702271,58.1040268,217.1702271z M51.1948624,179.9151459v28.971344
				c-0.0002022,0.0380859,0.0076981,3.6672974,2.2295151,5.9000549c1.1629753,1.1687469,2.7374115,1.761322,4.6796494,1.761322
				c1.9421425,0,3.5165787-0.5925751,4.679451-1.761322c2.2219162-2.2327576,2.2299194-5.861969,2.2297134-5.8982391v-28.9731598
				H60.220295v28.971344c0.0022278,0.0544891,0.0499382,1.6128235-0.7755203,2.4693756
				c-0.3513947,0.3646698-0.8024635,0.5496368-1.3407478,0.5496368c-0.5383835,0-0.9896545-0.184967-1.3410492-0.5496368
				c-0.8254585-0.8567505-0.7774429-2.4150848-0.775013-2.4809265l-0.0002022-28.9597931H51.1948624z"/>
		</g>
		<g>
			<path fill="#FFFFFF" d="M78.224968,216.4579163l-2.8079147-15.5437927h-1.4539948v15.5437927h-5.4152603v-36.8539429h5.4152603
				c6.4180832,0,9.2259979,3.7106628,9.2259979,10.6299591c0,3.6604156-0.9527893,6.9697266-3.0084763,8.3736877
				l3.4596481,17.850296H78.224968z M73.9630585,184.9691925v10.9308014c1.5042419,0,4.0113068-0.2005615,4.0113068-5.4654999
				C77.9743652,185.169754,75.4673004,184.9691925,73.9630585,184.9691925z"/>
			<path fill="#0675DE" d="M84.0175552,216.769104h-6.0526123l-2.8079147-15.543808h-0.8827896v15.543808H68.236618v-37.4763184
				h5.7264404c6.4175797,0,9.537178,3.5789795,9.537178,10.9411469c0,4.0034027-1.0820389,7.0868378-2.976265,8.5102386
				L84.0175552,216.769104z M78.484993,216.1467438h4.7779083l-3.4267273-17.6807251l0.1688614-0.1152802
				c1.7989044-1.228714,2.8728409-4.2629242,2.8728409-8.116806c0-3.4770813-0.6978226-5.9989319-2.1333847-7.70961
				c-1.4732437-1.755661-3.6915131-2.6091766-6.7814331-2.6091766h-5.1040802v36.2315979h4.7929001v-15.543808h2.0251999
				L78.484993,216.1467438z M73.9630585,196.2111664h-0.3111801v-11.5531616h0.3111801
				c2.0124359,0,4.3224869,0.656601,4.3224869,5.7764893C78.2855453,195.5545807,75.9754944,196.2111664,73.9630585,196.2111664z
				 M74.2742386,185.2825928v10.3039856c1.3324432-0.0273438,3.3889465-0.3879547,3.3889465-5.1520844
				S75.6066818,185.3099518,74.2742386,185.2825928z"/>
		</g>
		<g>
			<path fill="#FFFFFF" d="M93.065979,216.8590546c-7.2705917,0-7.2203445-7.9725647-7.2203445-7.9725647V187.175415
				c0,0-0.0502472-7.97258,7.2203445-7.97258c7.2703857,0,7.2203445,7.97258,7.2203445,7.97258v21.7110748
				C100.2863235,208.8864899,100.3363647,216.8590546,93.065979,216.8590546z M93.065979,184.4677734
				c-1.905571,0-1.8050842,2.7076416-1.8050842,2.7076416v21.7110748c0,0-0.1004868,2.7078247,1.8050842,2.7078247
				c1.9051666,0,1.8050842-2.7078247,1.8050842-2.7078247V187.175415
				C94.8710632,187.175415,94.9711456,184.4677734,93.065979,184.4677734z"/>
			<path fill="#0675DE" d="M93.065979,217.1702271c-2.1156616,0-3.8396072-0.6553802-5.1239319-1.9479065
				c-2.4044571-2.4195404-2.4086075-6.1790314-2.4075928-6.3378601V187.175415
				c-0.0010147-0.1568146,0.0031357-3.9162903,2.4075928-6.3358459c1.2843246-1.2925262,3.0082703-1.9479065,5.1239319-1.9479065
				c2.1155548,0,3.8394012,0.6553802,5.1238327,1.9477081c2.4044495,2.419754,2.4087067,6.1792297,2.407692,6.3380585v21.7090607
				c0.0010147,0.1567993-0.0032425,3.9162903-2.407692,6.3360291
				C96.9053802,216.5148468,95.1815338,217.1702271,93.065979,217.1702271z M93.065979,179.5140228
				c-1.9437637,0-3.5192108,0.5935974-4.6824875,1.7641602c-2.2238388,2.2378235-2.2268829,5.8589325-2.2266769,5.8952026
				v21.7131042c-0.000206,0.0380859,0.0076981,3.6672974,2.2295151,5.9000549
				c1.1629715,1.1687469,2.7374115,1.761322,4.6796494,1.761322c1.9421387,0,3.5165787-0.5925751,4.679451-1.761322
				c2.2219162-2.2327576,2.2299194-5.861969,2.2297134-5.8982391V187.175415
				c0.000206-0.0380859-0.0077972-3.6673126-2.2297134-5.9000702
				C96.5825577,180.1065979,95.0081177,179.5140228,93.065979,179.5140228z M93.065979,211.9055023
				c-0.5383835,0-0.9896545-0.184967-1.3410492-0.5496368c-0.8254623-0.8565521-0.7774429-2.4150848-0.7750168-2.4809265
				l-0.0001984-21.6995239c-0.0022278-0.054306-0.0502472-1.6126251,0.7751083-2.4691925
				c0.3515015-0.3646545,0.8027725-0.5496216,1.341156-0.5496216c0.5382843,0,0.9893494,0.184967,1.3408508,0.5496216
				c0.8253555,0.8563538,0.7776413,2.4146881,0.7752151,2.4807281l0.0001984,21.6995392
				c0.0022278,0.0544891,0.049942,1.6128235-0.7755203,2.4693756
				C94.0553284,211.7205353,93.6042633,211.9055023,93.065979,211.9055023z M93.065979,184.7789612
				c-0.3674011,0-0.6591339,0.1170959-0.8918076,0.3579712c-0.6419067,0.664505-0.6028061,2.0137634-0.6023026,2.0273285
				l0.000206,21.722229c-0.0007095,0.024704-0.0398102,1.374176,0.6020966,2.0386658
				c0.2326736,0.2408905,0.5244064,0.3579865,0.8918076,0.3579865c0.3671951,0,0.6588287-0.1170959,0.8915024-0.3579865
				c0.6420135-0.6644897,0.6031113-2.0139618,0.6026077-2.0275269l-0.000206-21.7222137
				c0.0007095-0.0247192,0.0396118-1.3739777-0.6023026-2.0384827
				C93.7249069,184.8960571,93.4332733,184.7789612,93.065979,184.7789612z"/>
		</g>
	</g>
	<g>
		<rect x="0.4287144" y="222.87146" fill="#0675DE" width="236.8392639" height="1.5597317"/>
	</g>
	<g>
		<rect x="0.4287144" y="147.9877777" fill="#0675DE" width="236.8392639" height="1.5597317"/>
	</g>
</g>
</svg>
